<?xml version="1.0"?>
<svg xmlns="http://www.w3.org/2000/svg" xmlns:xlink="http://www.w3.org/1999/xlink" version="1.0" width="1792.0000" height="992.0000" viewBox="-2.0000 -2.0000 61.0000 36.0000">
<g id="layer_3_top-fab" opacity="0.75">
<!--normal-->
 <polygon points="7.0000,5.0000 12.0000,2.0000 24.0000,1.0000 29.0000,2.0000 30.0000,8.0000 31.0000,15.0000 26.0000,22.0000 19.0000,26.0000 10.0000,26.0000 3.0000,21.0000 3.0000,13.0000 " stroke-width="0.010" stroke="#ff0000" fill="#ff0000"/>
 <line x1="3.0000" y1="21.0000" x2="10.0000" y2="26.0000" stroke-width="0.2540" stroke="#800000" stroke-linecap="round"/>
 <line x1="10.0000" y1="26.0000" x2="19.0000" y2="26.0000" stroke-width="0.2540" stroke="#800000" stroke-linecap="round"/>
 <line x1="31.0000" y1="15.0000" x2="30.0000" y2="8.0000" stroke-width="0.2540" stroke="#800000" stroke-linecap="round"/>
 <line x1="3.0000" y1="13.0000" x2="3.0000" y2="21.0000" stroke-width="0.2540" stroke="#800000" stroke-linecap="round"/>
 <line x1="19.0000" y1="26.0000" x2="26.0000" y2="22.0000" stroke-width="0.2540" stroke="#800000" stroke-linecap="round"/>
 <line x1="26.0000" y1="22.0000" x2="31.0000" y2="15.0000" stroke-width="0.2540" stroke="#800000" stroke-linecap="round"/>
 <line x1="30.0000" y1="8.0000" x2="29.0000" y2="2.0000" stroke-width="0.2540" stroke="#800000" stroke-linecap="round"/>
 <line x1="29.0000" y1="2.0000" x2="24.0000" y2="1.0000" stroke-width="0.2540" stroke="#800000" stroke-linecap="round"/>
 <line x1="24.0000" y1="1.0000" x2="12.0000" y2="2.0000" stroke-width="0.2540" stroke="#800000" stroke-linecap="round"/>
 <line x1="12.0000" y1="2.0000" x2="7.0000" y2="5.0000" stroke-width="0.2540" stroke="#800000" stroke-linecap="round"/>
 <line x1="7.0000" y1="5.0000" x2="3.0000" y2="13.0000" stroke-width="0.2540" stroke="#800000" stroke-linecap="round"/>
</g>
<g id="layer_4_top" opacity="0.75">
<!--normal-->
 <polygon points="51.0000,7.0000 55.0000,15.0000 52.0000,23.0000 35.0000,30.0000 23.0000,28.0000 21.0000,20.0000 25.0000,17.0000 23.0000,13.0000 26.0000,9.0000 38.0000,4.0000 " stroke-width="0.010" stroke="#00ff00" fill="#00ff00"/>
 <line x1="38.0000" y1="4.0000" x2="26.0000" y2="9.0000" stroke-width="0.2540" stroke="#548b54" stroke-linecap="round"/>
 <line x1="26.0000" y1="9.0000" x2="23.0000" y2="13.0000" stroke-width="0.2540" stroke="#548b54" stroke-linecap="round"/>
 <line x1="23.0000" y1="13.0000" x2="25.0000" y2="17.0000" stroke-width="0.2540" stroke="#548b54" stroke-linecap="round"/>
 <line x1="25.0000" y1="17.0000" x2="21.0000" y2="20.0000" stroke-width="0.2540" stroke="#548b54" stroke-linecap="round"/>
 <line x1="21.0000" y1="20.0000" x2="23.0000" y2="28.0000" stroke-width="0.2540" stroke="#548b54" stroke-linecap="round"/>
 <line x1="23.0000" y1="28.0000" x2="35.0000" y2="30.0000" stroke-width="0.2540" stroke="#548b54" stroke-linecap="round"/>
 <line x1="35.0000" y1="30.0000" x2="52.0000" y2="23.0000" stroke-width="0.2540" stroke="#548b54" stroke-linecap="round"/>
 <line x1="52.0000" y1="23.0000" x2="55.0000" y2="15.0000" stroke-width="0.2540" stroke="#548b54" stroke-linecap="round"/>
 <line x1="55.0000" y1="15.0000" x2="51.0000" y2="7.0000" stroke-width="0.2540" stroke="#548b54" stroke-linecap="round"/>
 <line x1="51.0000" y1="7.0000" x2="38.0000" y2="4.0000" stroke-width="0.2540" stroke="#548b54" stroke-linecap="round"/>
</g>
<g id="layer_5_top" opacity="0.75">
</g>
<g id="layer_6_top" opacity="0.75">
</g>
<g id="layer_7_top" opacity="0.75">
<!--normal-->
 <path d="M 30.50000000 7.35000000 A 0.6000 0.6000 0 0 1 29.3000 7.3500" stroke-width="0.2540" stroke="#000000" stroke-linecap="round" fill="none"/>
 <path d="M 29.30000000 7.35000000 A 0.6000 0.6000 0 0 1 30.5000 7.3500" stroke-width="0.2540" stroke="#000000" stroke-linecap="round" fill="none"/>
 <path d="M 22.60000000 24.25000000 A 0.6000 0.6000 0 0 1 21.4000 24.2500" stroke-width="0.2540" stroke="#000000" stroke-linecap="round" fill="none"/>
 <path d="M 21.40000000 24.25000000 A 0.6000 0.6000 0 0 1 22.6000 24.2500" stroke-width="0.2540" stroke="#000000" stroke-linecap="round" fill="none"/>
 <line x1="10.0000" y1="16.2740" x2="10.0000" y2="18.5600" stroke-width="0.3048" stroke="#000000" stroke-linecap="round"/>
 <line x1="10.0000" y1="16.2740" x2="10.5334" y2="15.5120" stroke-width="0.3048" stroke="#000000" stroke-linecap="round"/>
 <line x1="10.5334" y1="15.5120" x2="11.3716" y2="15.5120" stroke-width="0.3048" stroke="#000000" stroke-linecap="round"/>
 <line x1="11.3716" y1="15.5120" x2="11.9050" y2="16.2740" stroke-width="0.3048" stroke="#000000" stroke-linecap="round"/>
 <line x1="11.9050" y1="16.2740" x2="11.9050" y2="18.5600" stroke-width="0.3048" stroke="#000000" stroke-linecap="round"/>
 <line x1="10.0000" y1="17.0360" x2="11.9050" y2="17.0360" stroke-width="0.3048" stroke="#000000" stroke-linecap="round"/>
 <line x1="20.1905" y1="26.5835" x2="20.1905" y2="27.7265" stroke-width="0.2540" stroke="#000000" stroke-linecap="round"/>
 <line x1="20.0000" y1="26.3930" x2="20.1905" y2="26.5835" stroke-width="0.2540" stroke="#000000" stroke-linecap="round"/>
 <line x1="20.1905" y1="26.5835" x2="20.3810" y2="26.3930" stroke-width="0.2540" stroke="#000000" stroke-linecap="round"/>
 <line x1="20.3810" y1="26.3930" x2="20.7620" y2="26.3930" stroke-width="0.2540" stroke="#000000" stroke-linecap="round"/>
 <line x1="20.7620" y1="26.3930" x2="20.9525" y2="26.5835" stroke-width="0.2540" stroke="#000000" stroke-linecap="round"/>
 <line x1="20.9525" y1="26.5835" x2="20.9525" y2="26.9645" stroke-width="0.2540" stroke="#000000" stroke-linecap="round"/>
 <line x1="20.7620" y1="27.1550" x2="20.9525" y2="26.9645" stroke-width="0.2540" stroke="#000000" stroke-linecap="round"/>
 <line x1="20.3810" y1="27.1550" x2="20.7620" y2="27.1550" stroke-width="0.2540" stroke="#000000" stroke-linecap="round"/>
 <line x1="20.1905" y1="26.9645" x2="20.3810" y2="27.1550" stroke-width="0.2540" stroke="#000000" stroke-linecap="round"/>
 <line x1="21.4097" y1="25.8215" x2="21.6002" y2="25.6310" stroke-width="0.2540" stroke="#000000" stroke-linecap="round"/>
 <line x1="21.6002" y1="25.6310" x2="22.1717" y2="25.6310" stroke-width="0.2540" stroke="#000000" stroke-linecap="round"/>
 <line x1="22.1717" y1="25.6310" x2="22.3622" y2="25.8215" stroke-width="0.2540" stroke="#000000" stroke-linecap="round"/>
 <line x1="22.3622" y1="25.8215" x2="22.3622" y2="26.2025" stroke-width="0.2540" stroke="#000000" stroke-linecap="round"/>
 <line x1="21.4097" y1="27.1550" x2="22.3622" y2="26.2025" stroke-width="0.2540" stroke="#000000" stroke-linecap="round"/>
 <line x1="21.4097" y1="27.1550" x2="22.3622" y2="27.1550" stroke-width="0.2540" stroke="#000000" stroke-linecap="round"/>
 <line x1="1.2667" y1="10.1550" x2="1.7620" y2="10.1550" stroke-width="0.2540" stroke="#000000" stroke-linecap="round"/>
 <line x1="1.0000" y1="9.8883" x2="1.2667" y2="10.1550" stroke-width="0.2540" stroke="#000000" stroke-linecap="round"/>
 <line x1="1.0000" y1="8.8977" x2="1.0000" y2="9.8883" stroke-width="0.2540" stroke="#000000" stroke-linecap="round"/>
 <line x1="1.0000" y1="8.8977" x2="1.2667" y2="8.6310" stroke-width="0.2540" stroke="#000000" stroke-linecap="round"/>
 <line x1="1.2667" y1="8.6310" x2="1.7620" y2="8.6310" stroke-width="0.2540" stroke="#000000" stroke-linecap="round"/>
 <line x1="2.2192" y1="9.0120" x2="2.2192" y2="10.1550" stroke-width="0.2540" stroke="#000000" stroke-linecap="round"/>
 <line x1="2.2192" y1="9.0120" x2="2.4859" y2="8.6310" stroke-width="0.2540" stroke="#000000" stroke-linecap="round"/>
 <line x1="2.4859" y1="8.6310" x2="2.9050" y2="8.6310" stroke-width="0.2540" stroke="#000000" stroke-linecap="round"/>
 <line x1="2.9050" y1="8.6310" x2="3.1717" y2="9.0120" stroke-width="0.2540" stroke="#000000" stroke-linecap="round"/>
 <line x1="3.1717" y1="9.0120" x2="3.1717" y2="10.1550" stroke-width="0.2540" stroke="#000000" stroke-linecap="round"/>
 <line x1="2.2192" y1="9.3930" x2="3.1717" y2="9.3930" stroke-width="0.2540" stroke="#000000" stroke-linecap="round"/>
 <line x1="3.6289" y1="8.9358" x2="3.9337" y2="8.6310" stroke-width="0.2540" stroke="#000000" stroke-linecap="round"/>
 <line x1="3.9337" y1="8.6310" x2="3.9337" y2="10.1550" stroke-width="0.2540" stroke="#000000" stroke-linecap="round"/>
 <line x1="3.6289" y1="10.1550" x2="4.2004" y2="10.1550" stroke-width="0.2540" stroke="#000000" stroke-linecap="round"/>
 <line x1="21.2667" y1="10.6550" x2="21.7620" y2="10.6550" stroke-width="0.2540" stroke="#000000" stroke-linecap="round"/>
 <line x1="21.0000" y1="10.3883" x2="21.2667" y2="10.6550" stroke-width="0.2540" stroke="#000000" stroke-linecap="round"/>
 <line x1="21.0000" y1="9.3977" x2="21.0000" y2="10.3883" stroke-width="0.2540" stroke="#000000" stroke-linecap="round"/>
 <line x1="21.0000" y1="9.3977" x2="21.2667" y2="9.1310" stroke-width="0.2540" stroke="#000000" stroke-linecap="round"/>
 <line x1="21.2667" y1="9.1310" x2="21.7620" y2="9.1310" stroke-width="0.2540" stroke="#000000" stroke-linecap="round"/>
 <line x1="22.2192" y1="10.6550" x2="22.9812" y2="10.6550" stroke-width="0.2540" stroke="#000000" stroke-linecap="round"/>
 <line x1="22.9812" y1="10.6550" x2="23.1717" y2="10.4645" stroke-width="0.2540" stroke="#000000" stroke-linecap="round"/>
 <line x1="23.1717" y1="10.0073" x2="23.1717" y2="10.4645" stroke-width="0.2540" stroke="#000000" stroke-linecap="round"/>
 <line x1="22.9812" y1="9.8168" x2="23.1717" y2="10.0073" stroke-width="0.2540" stroke="#000000" stroke-linecap="round"/>
 <line x1="22.4097" y1="9.8168" x2="22.9812" y2="9.8168" stroke-width="0.2540" stroke="#000000" stroke-linecap="round"/>
 <line x1="22.4097" y1="9.1310" x2="22.4097" y2="10.6550" stroke-width="0.2540" stroke="#000000" stroke-linecap="round"/>
 <line x1="22.2192" y1="9.1310" x2="22.9812" y2="9.1310" stroke-width="0.2540" stroke="#000000" stroke-linecap="round"/>
 <line x1="22.9812" y1="9.1310" x2="23.1717" y2="9.3215" stroke-width="0.2540" stroke="#000000" stroke-linecap="round"/>
 <line x1="23.1717" y1="9.3215" x2="23.1717" y2="9.6263" stroke-width="0.2540" stroke="#000000" stroke-linecap="round"/>
 <line x1="22.9812" y1="9.8168" x2="23.1717" y2="9.6263" stroke-width="0.2540" stroke="#000000" stroke-linecap="round"/>
 <line x1="23.6289" y1="9.3215" x2="23.8194" y2="9.1310" stroke-width="0.2540" stroke="#000000" stroke-linecap="round"/>
 <line x1="23.8194" y1="9.1310" x2="24.3909" y2="9.1310" stroke-width="0.2540" stroke="#000000" stroke-linecap="round"/>
 <line x1="24.3909" y1="9.1310" x2="24.5814" y2="9.3215" stroke-width="0.2540" stroke="#000000" stroke-linecap="round"/>
 <line x1="24.5814" y1="9.3215" x2="24.5814" y2="9.7025" stroke-width="0.2540" stroke="#000000" stroke-linecap="round"/>
 <line x1="23.6289" y1="10.6550" x2="24.5814" y2="9.7025" stroke-width="0.2540" stroke="#000000" stroke-linecap="round"/>
 <line x1="23.6289" y1="10.6550" x2="24.5814" y2="10.6550" stroke-width="0.2540" stroke="#000000" stroke-linecap="round"/>
 <line x1="44.0000" y1="17.5600" x2="45.5240" y2="17.5600" stroke-width="0.3048" stroke="#000000" stroke-linecap="round"/>
 <line x1="45.5240" y1="17.5600" x2="45.9050" y2="17.1790" stroke-width="0.3048" stroke="#000000" stroke-linecap="round"/>
 <line x1="45.9050" y1="16.2646" x2="45.9050" y2="17.1790" stroke-width="0.3048" stroke="#000000" stroke-linecap="round"/>
 <line x1="45.5240" y1="15.8836" x2="45.9050" y2="16.2646" stroke-width="0.3048" stroke="#000000" stroke-linecap="round"/>
 <line x1="44.3810" y1="15.8836" x2="45.5240" y2="15.8836" stroke-width="0.3048" stroke="#000000" stroke-linecap="round"/>
 <line x1="44.3810" y1="14.5120" x2="44.3810" y2="17.5600" stroke-width="0.3048" stroke="#000000" stroke-linecap="round"/>
 <line x1="44.0000" y1="14.5120" x2="45.5240" y2="14.5120" stroke-width="0.3048" stroke="#000000" stroke-linecap="round"/>
 <line x1="45.5240" y1="14.5120" x2="45.9050" y2="14.8930" stroke-width="0.3048" stroke="#000000" stroke-linecap="round"/>
 <line x1="45.9050" y1="14.8930" x2="45.9050" y2="15.5026" stroke-width="0.3048" stroke="#000000" stroke-linecap="round"/>
 <line x1="45.5240" y1="15.8836" x2="45.9050" y2="15.5026" stroke-width="0.3048" stroke="#000000" stroke-linecap="round"/>
 <line x1="30.6905" y1="5.5835" x2="30.6905" y2="6.7265" stroke-width="0.2540" stroke="#000000" stroke-linecap="round"/>
 <line x1="30.5000" y1="5.3930" x2="30.6905" y2="5.5835" stroke-width="0.2540" stroke="#000000" stroke-linecap="round"/>
 <line x1="30.6905" y1="5.5835" x2="30.8810" y2="5.3930" stroke-width="0.2540" stroke="#000000" stroke-linecap="round"/>
 <line x1="30.8810" y1="5.3930" x2="31.2620" y2="5.3930" stroke-width="0.2540" stroke="#000000" stroke-linecap="round"/>
 <line x1="31.2620" y1="5.3930" x2="31.4525" y2="5.5835" stroke-width="0.2540" stroke="#000000" stroke-linecap="round"/>
 <line x1="31.4525" y1="5.5835" x2="31.4525" y2="5.9645" stroke-width="0.2540" stroke="#000000" stroke-linecap="round"/>
 <line x1="31.2620" y1="6.1550" x2="31.4525" y2="5.9645" stroke-width="0.2540" stroke="#000000" stroke-linecap="round"/>
 <line x1="30.8810" y1="6.1550" x2="31.2620" y2="6.1550" stroke-width="0.2540" stroke="#000000" stroke-linecap="round"/>
 <line x1="30.6905" y1="5.9645" x2="30.8810" y2="6.1550" stroke-width="0.2540" stroke="#000000" stroke-linecap="round"/>
 <line x1="31.9097" y1="4.9358" x2="32.2145" y2="4.6310" stroke-width="0.2540" stroke="#000000" stroke-linecap="round"/>
 <line x1="32.2145" y1="4.6310" x2="32.2145" y2="6.1550" stroke-width="0.2540" stroke="#000000" stroke-linecap="round"/>
 <line x1="31.9097" y1="6.1550" x2="32.4812" y2="6.1550" stroke-width="0.2540" stroke="#000000" stroke-linecap="round"/>
 <line x1="28.2667" y1="21.6550" x2="28.7620" y2="21.6550" stroke-width="0.2540" stroke="#000000" stroke-linecap="round"/>
 <line x1="28.0000" y1="21.3883" x2="28.2667" y2="21.6550" stroke-width="0.2540" stroke="#000000" stroke-linecap="round"/>
 <line x1="28.0000" y1="20.3977" x2="28.0000" y2="21.3883" stroke-width="0.2540" stroke="#000000" stroke-linecap="round"/>
 <line x1="28.0000" y1="20.3977" x2="28.2667" y2="20.1310" stroke-width="0.2540" stroke="#000000" stroke-linecap="round"/>
 <line x1="28.2667" y1="20.1310" x2="28.7620" y2="20.1310" stroke-width="0.2540" stroke="#000000" stroke-linecap="round"/>
 <line x1="29.2192" y1="20.5120" x2="29.2192" y2="21.6550" stroke-width="0.2540" stroke="#000000" stroke-linecap="round"/>
 <line x1="29.2192" y1="20.5120" x2="29.4859" y2="20.1310" stroke-width="0.2540" stroke="#000000" stroke-linecap="round"/>
 <line x1="29.4859" y1="20.1310" x2="29.9050" y2="20.1310" stroke-width="0.2540" stroke="#000000" stroke-linecap="round"/>
 <line x1="29.9050" y1="20.1310" x2="30.1717" y2="20.5120" stroke-width="0.2540" stroke="#000000" stroke-linecap="round"/>
 <line x1="30.1717" y1="20.5120" x2="30.1717" y2="21.6550" stroke-width="0.2540" stroke="#000000" stroke-linecap="round"/>
 <line x1="29.2192" y1="20.8930" x2="30.1717" y2="20.8930" stroke-width="0.2540" stroke="#000000" stroke-linecap="round"/>
 <line x1="30.6289" y1="20.3215" x2="30.8194" y2="20.1310" stroke-width="0.2540" stroke="#000000" stroke-linecap="round"/>
 <line x1="30.8194" y1="20.1310" x2="31.3909" y2="20.1310" stroke-width="0.2540" stroke="#000000" stroke-linecap="round"/>
 <line x1="31.3909" y1="20.1310" x2="31.5814" y2="20.3215" stroke-width="0.2540" stroke="#000000" stroke-linecap="round"/>
 <line x1="31.5814" y1="20.3215" x2="31.5814" y2="20.7025" stroke-width="0.2540" stroke="#000000" stroke-linecap="round"/>
 <line x1="30.6289" y1="21.6550" x2="31.5814" y2="20.7025" stroke-width="0.2540" stroke="#000000" stroke-linecap="round"/>
 <line x1="30.6289" y1="21.6550" x2="31.5814" y2="21.6550" stroke-width="0.2540" stroke="#000000" stroke-linecap="round"/>
 <line x1="47.2667" y1="27.6550" x2="47.7620" y2="27.6550" stroke-width="0.2540" stroke="#000000" stroke-linecap="round"/>
 <line x1="47.0000" y1="27.3883" x2="47.2667" y2="27.6550" stroke-width="0.2540" stroke="#000000" stroke-linecap="round"/>
 <line x1="47.0000" y1="26.3977" x2="47.0000" y2="27.3883" stroke-width="0.2540" stroke="#000000" stroke-linecap="round"/>
 <line x1="47.0000" y1="26.3977" x2="47.2667" y2="26.1310" stroke-width="0.2540" stroke="#000000" stroke-linecap="round"/>
 <line x1="47.2667" y1="26.1310" x2="47.7620" y2="26.1310" stroke-width="0.2540" stroke="#000000" stroke-linecap="round"/>
 <line x1="48.2192" y1="27.6550" x2="48.9812" y2="27.6550" stroke-width="0.2540" stroke="#000000" stroke-linecap="round"/>
 <line x1="48.9812" y1="27.6550" x2="49.1717" y2="27.4645" stroke-width="0.2540" stroke="#000000" stroke-linecap="round"/>
 <line x1="49.1717" y1="27.0073" x2="49.1717" y2="27.4645" stroke-width="0.2540" stroke="#000000" stroke-linecap="round"/>
 <line x1="48.9812" y1="26.8168" x2="49.1717" y2="27.0073" stroke-width="0.2540" stroke="#000000" stroke-linecap="round"/>
 <line x1="48.4097" y1="26.8168" x2="48.9812" y2="26.8168" stroke-width="0.2540" stroke="#000000" stroke-linecap="round"/>
 <line x1="48.4097" y1="26.1310" x2="48.4097" y2="27.6550" stroke-width="0.2540" stroke="#000000" stroke-linecap="round"/>
 <line x1="48.2192" y1="26.1310" x2="48.9812" y2="26.1310" stroke-width="0.2540" stroke="#000000" stroke-linecap="round"/>
 <line x1="48.9812" y1="26.1310" x2="49.1717" y2="26.3215" stroke-width="0.2540" stroke="#000000" stroke-linecap="round"/>
 <line x1="49.1717" y1="26.3215" x2="49.1717" y2="26.6263" stroke-width="0.2540" stroke="#000000" stroke-linecap="round"/>
 <line x1="48.9812" y1="26.8168" x2="49.1717" y2="26.6263" stroke-width="0.2540" stroke="#000000" stroke-linecap="round"/>
 <line x1="49.6289" y1="26.4358" x2="49.9337" y2="26.1310" stroke-width="0.2540" stroke="#000000" stroke-linecap="round"/>
 <line x1="49.9337" y1="26.1310" x2="49.9337" y2="27.6550" stroke-width="0.2540" stroke="#000000" stroke-linecap="round"/>
 <line x1="49.6289" y1="27.6550" x2="50.2004" y2="27.6550" stroke-width="0.2540" stroke="#000000" stroke-linecap="round"/>
</g>
</svg>
