<?xml version="1.0"?>
<svg xmlns="http://www.w3.org/2000/svg" xmlns:xlink="http://www.w3.org/1999/xlink" version="1.0" width="1912.0000" height="848.0000" viewBox="-2.0000 -2.0000 124.5000 58.0000">
<g id="layer_3_top-fab">
<!--normal-->
 <polygon points="7.0000,1.5000 7.0000,51.0000 1.5000,51.0000 1.5000,1.5000 " stroke-width="0.010" stroke="#ff0000" fill="#ff0000"/>
 <polygon points="7.0000,42.0000 18.2500,30.7500 29.5000,42.0000 29.5000,19.5000 18.2500,30.7500 7.0000,19.5000 7.0000,1.5000 39.0000,1.5000 39.0000,51.0000 7.0000,51.0000 " stroke-width="0.010" stroke="#ff0000" fill="#ff0000"/>
 <polygon points="60.2500,26.5000 51.2500,35.5000 51.2500,17.5000 " stroke-width="0.010" stroke="#ff0000" fill="#ff0000"/>
 <polygon points="69.2500,17.5000 69.2500,35.5000 60.2500,26.5000 " stroke-width="0.010" stroke="#ff0000" fill="#ff0000"/>
 <polygon points="106.0000,28.5000 92.0000,28.5000 99.0000,21.5000 " stroke-width="0.010" stroke="#ff0000" fill="#ff0000"/>
 <polygon points="117.5000,1.5000 117.5000,21.5000 80.0000,21.5000 80.0000,1.5000 " stroke-width="0.010" stroke="#ff0000" fill="#ff0000"/>
 <polygon points="99.0000,35.5000 113.0000,21.5000 117.5000,21.5000 117.5000,51.0000 80.0000,51.0000 80.0000,21.5000 85.0000,21.5000 " stroke-width="0.010" stroke="#ff0000" fill="#ff0000"/>
</g>
<g id="layer_4_top">
</g>
<g id="layer_5_top">
</g>
<g id="layer_6_top">
</g>
<g id="layer_7_top">
<!--normal-->
 <polygon points="40.0000,6.5000 38.0000,6.5000 39.0000,1.5000 " stroke-width="0.010" stroke="#000000" fill="#000000"/>
 <polygon points="6.5000,0.5000 6.5000,2.5000 1.5000,1.5000 " stroke-width="0.010" stroke="#000000" fill="#000000"/>
 <polygon points="8.0000,24.5000 6.0000,24.5000 7.0000,19.5000 " stroke-width="0.010" stroke="#000000" fill="#000000"/>
 <polygon points="26.6716,23.7426 25.2574,22.3284 29.5000,19.5000 " stroke-width="0.010" stroke="#000000" fill="#000000"/>
 <polygon points="55.4926,20.3284 54.0784,21.7426 51.2500,17.5000 " stroke-width="0.010" stroke="#000000" fill="#000000"/>
 <polygon points="34.0000,52.0000 34.0000,50.0000 39.0000,51.0000 " stroke-width="0.010" stroke="#000000" fill="#000000"/>
 <polygon points="0.5000,46.0000 2.5000,46.0000 1.5000,51.0000 " stroke-width="0.010" stroke="#000000" fill="#000000"/>
 <polygon points="28.5000,37.0000 30.5000,37.0000 29.5000,42.0000 " stroke-width="0.010" stroke="#000000" fill="#000000"/>
 <polygon points="9.8284,37.7574 11.2426,39.1716 7.0000,42.0000 " stroke-width="0.010" stroke="#000000" fill="#000000"/>
 <polygon points="22.4926,33.5784 21.0784,34.9926 18.2500,30.7500 " stroke-width="0.010" stroke="#000000" fill="#000000"/>
 <polygon points="65.0074,32.6716 66.4216,31.2574 69.2500,35.5000 " stroke-width="0.010" stroke="#000000" fill="#000000"/>
 <polygon points="50.2500,30.5000 52.2500,30.5000 51.2500,35.5000 " stroke-width="0.010" stroke="#000000" fill="#000000"/>
 <polygon points="101.8284,31.2574 103.2426,32.6716 99.0000,35.5000 " stroke-width="0.010" stroke="#000000" fill="#000000"/>
 <polygon points="14.0074,27.9216 15.4216,26.5074 18.2500,30.7500 " stroke-width="0.010" stroke="#000000" fill="#000000"/>
 <polygon points="57.4216,30.7426 56.0074,29.3284 60.2500,26.5000 " stroke-width="0.010" stroke="#000000" fill="#000000"/>
 <polygon points="63.0784,22.2574 64.4926,23.6716 60.2500,26.5000 " stroke-width="0.010" stroke="#000000" fill="#000000"/>
 <polygon points="70.2500,22.5000 68.2500,22.5000 69.2500,17.5000 " stroke-width="0.010" stroke="#000000" fill="#000000"/>
 <polygon points="89.2426,24.3284 87.8284,25.7426 85.0000,21.5000 " stroke-width="0.010" stroke="#000000" fill="#000000"/>
 <polygon points="103.2426,24.3284 101.8284,25.7426 99.0000,21.5000 " stroke-width="0.010" stroke="#000000" fill="#000000"/>
 <polygon points="94.8284,24.2574 96.2426,25.6716 92.0000,28.5000 " stroke-width="0.010" stroke="#000000" fill="#000000"/>
 <polygon points="107.7500,22.5000 107.7500,20.5000 112.7500,21.5000 " stroke-width="0.010" stroke="#000000" fill="#000000"/>
 <polygon points="100.7500,29.5000 100.7500,27.5000 105.7500,28.5000 " stroke-width="0.010" stroke="#000000" fill="#000000"/>
 <polygon points="112.5000,52.0000 112.5000,50.0000 117.5000,51.0000 " stroke-width="0.010" stroke="#000000" fill="#000000"/>
 <polygon points="79.0000,46.0000 81.0000,46.0000 80.0000,51.0000 " stroke-width="0.010" stroke="#000000" fill="#000000"/>
 <polygon points="118.5000,6.5000 116.5000,6.5000 117.5000,1.5000 " stroke-width="0.010" stroke="#000000" fill="#000000"/>
 <polygon points="85.0000,0.5000 85.0000,2.5000 80.0000,1.5000 " stroke-width="0.010" stroke="#000000" fill="#000000"/>
 <line x1="3.5000" y1="1.5000" x2="39.0000" y2="1.5000" stroke-width="0.2540" stroke="#000000" stroke-linecap="round"/>
 <line x1="1.5000" y1="1.5000" x2="1.5000" y2="49.0000" stroke-width="0.2540" stroke="#000000" stroke-linecap="round"/>
 <line x1="7.0000" y1="42.0000" x2="7.0000" y2="21.5000" stroke-width="0.2540" stroke="#000000" stroke-linecap="round"/>
 <line x1="29.5000" y1="19.5000" x2="7.0000" y2="42.0000" stroke-width="0.2540" stroke="#000000" stroke-linecap="round"/>
 <line x1="37.0000" y1="51.0000" x2="1.5000" y2="51.0000" stroke-width="0.2540" stroke="#000000" stroke-linecap="round"/>
 <line x1="39.0000" y1="51.0000" x2="39.0000" y2="3.5000" stroke-width="0.2540" stroke="#000000" stroke-linecap="round"/>
 <line x1="7.0000" y1="19.5000" x2="29.5000" y2="42.0000" stroke-width="0.2540" stroke="#000000" stroke-linecap="round"/>
 <line x1="29.5000" y1="19.5000" x2="29.5000" y2="39.0000" stroke-width="0.2540" stroke="#000000" stroke-linecap="round"/>
 <line x1="115.5000" y1="51.0000" x2="80.0000" y2="51.0000" stroke-width="0.2540" stroke="#000000" stroke-linecap="round"/>
 <line x1="117.5000" y1="51.0000" x2="117.5000" y2="3.5000" stroke-width="0.2540" stroke="#000000" stroke-linecap="round"/>
 <line x1="82.0000" y1="1.5000" x2="117.5000" y2="1.5000" stroke-width="0.2540" stroke="#000000" stroke-linecap="round"/>
 <line x1="85.0000" y1="21.5000" x2="113.0000" y2="21.5000" stroke-width="0.2540" stroke="#000000" stroke-linecap="round"/>
 <line x1="99.0000" y1="21.5000" x2="92.0000" y2="28.5000" stroke-width="0.2540" stroke="#000000" stroke-linecap="round"/>
 <line x1="85.0000" y1="21.5000" x2="99.0000" y2="35.5000" stroke-width="0.2540" stroke="#000000" stroke-linecap="round"/>
 <line x1="99.0000" y1="35.5000" x2="113.0000" y2="21.5000" stroke-width="0.2540" stroke="#000000" stroke-linecap="round"/>
 <line x1="92.0000" y1="28.5000" x2="106.0000" y2="28.5000" stroke-width="0.2540" stroke="#000000" stroke-linecap="round"/>
 <line x1="106.0000" y1="28.5000" x2="99.0000" y2="21.5000" stroke-width="0.2540" stroke="#000000" stroke-linecap="round"/>
 <line x1="80.0000" y1="1.5000" x2="80.0000" y2="49.0000" stroke-width="0.2540" stroke="#000000" stroke-linecap="round"/>
 <line x1="51.2500" y1="17.5000" x2="69.2500" y2="35.5000" stroke-width="0.2540" stroke="#000000" stroke-linecap="round"/>
 <line x1="51.2500" y1="35.5000" x2="69.2500" y2="17.5000" stroke-width="0.2540" stroke="#000000" stroke-linecap="round"/>
 <line x1="51.2500" y1="17.5000" x2="51.2500" y2="35.5000" stroke-width="0.2540" stroke="#000000" stroke-linecap="round"/>
 <line x1="69.2500" y1="17.5000" x2="69.2500" y2="35.5000" stroke-width="0.2540" stroke="#000000" stroke-linecap="round"/>
 <path d="M 39.25000000 1.50000000 A 0.2500 0.2500 0 0 1 38.7500 1.5000" stroke-width="0.2540" stroke="#000000" stroke-linecap="round" fill="none"/>
 <path d="M 38.75000000 1.50000000 A 0.2500 0.2500 0 0 1 39.2500 1.5000" stroke-width="0.2540" stroke="#000000" stroke-linecap="round" fill="none"/>
 <path d="M 1.75000000 1.50000000 A 0.2500 0.2500 0 0 1 1.2500 1.5000" stroke-width="0.2540" stroke="#000000" stroke-linecap="round" fill="none"/>
 <path d="M 1.25000000 1.50000000 A 0.2500 0.2500 0 0 1 1.7500 1.5000" stroke-width="0.2540" stroke="#000000" stroke-linecap="round" fill="none"/>
 <path d="M 29.75000000 19.50000000 A 0.2500 0.2500 0 0 1 29.2500 19.5000" stroke-width="0.2540" stroke="#000000" stroke-linecap="round" fill="none"/>
 <path d="M 29.25000000 19.50000000 A 0.2500 0.2500 0 0 1 29.7500 19.5000" stroke-width="0.2540" stroke="#000000" stroke-linecap="round" fill="none"/>
 <path d="M 7.25000000 19.50000000 A 0.2500 0.2500 0 0 1 6.7500 19.5000" stroke-width="0.2540" stroke="#000000" stroke-linecap="round" fill="none"/>
 <path d="M 6.75000000 19.50000000 A 0.2500 0.2500 0 0 1 7.2500 19.5000" stroke-width="0.2540" stroke="#000000" stroke-linecap="round" fill="none"/>
 <path d="M 51.50000000 17.50000000 A 0.2500 0.2500 0 0 1 51.0000 17.5000" stroke-width="0.2540" stroke="#000000" stroke-linecap="round" fill="none"/>
 <path d="M 51.00000000 17.50000000 A 0.2500 0.2500 0 0 1 51.5000 17.5000" stroke-width="0.2540" stroke="#000000" stroke-linecap="round" fill="none"/>
 <path d="M 39.25000000 51.00000000 A 0.2500 0.2500 0 0 1 38.7500 51.0000" stroke-width="0.2540" stroke="#000000" stroke-linecap="round" fill="none"/>
 <path d="M 38.75000000 51.00000000 A 0.2500 0.2500 0 0 1 39.2500 51.0000" stroke-width="0.2540" stroke="#000000" stroke-linecap="round" fill="none"/>
 <path d="M 1.75000000 51.00000000 A 0.2500 0.2500 0 0 1 1.2500 51.0000" stroke-width="0.2540" stroke="#000000" stroke-linecap="round" fill="none"/>
 <path d="M 1.25000000 51.00000000 A 0.2500 0.2500 0 0 1 1.7500 51.0000" stroke-width="0.2540" stroke="#000000" stroke-linecap="round" fill="none"/>
 <path d="M 18.50000000 30.75000000 A 0.2500 0.2500 0 0 1 18.0000 30.7500" stroke-width="0.2540" stroke="#000000" stroke-linecap="round" fill="none"/>
 <path d="M 18.00000000 30.75000000 A 0.2500 0.2500 0 0 1 18.5000 30.7500" stroke-width="0.2540" stroke="#000000" stroke-linecap="round" fill="none"/>
 <path d="M 29.75000000 42.00000000 A 0.2500 0.2500 0 0 1 29.2500 42.0000" stroke-width="0.2540" stroke="#000000" stroke-linecap="round" fill="none"/>
 <path d="M 29.25000000 42.00000000 A 0.2500 0.2500 0 0 1 29.7500 42.0000" stroke-width="0.2540" stroke="#000000" stroke-linecap="round" fill="none"/>
 <path d="M 7.25000000 42.00000000 A 0.2500 0.2500 0 0 1 6.7500 42.0000" stroke-width="0.2540" stroke="#000000" stroke-linecap="round" fill="none"/>
 <path d="M 6.75000000 42.00000000 A 0.2500 0.2500 0 0 1 7.2500 42.0000" stroke-width="0.2540" stroke="#000000" stroke-linecap="round" fill="none"/>
 <path d="M 51.50000000 35.50000000 A 0.2500 0.2500 0 0 1 51.0000 35.5000" stroke-width="0.2540" stroke="#000000" stroke-linecap="round" fill="none"/>
 <path d="M 51.00000000 35.50000000 A 0.2500 0.2500 0 0 1 51.5000 35.5000" stroke-width="0.2540" stroke="#000000" stroke-linecap="round" fill="none"/>
 <path d="M 117.75000000 51.00000000 A 0.2500 0.2500 0 0 1 117.2500 51.0000" stroke-width="0.2540" stroke="#000000" stroke-linecap="round" fill="none"/>
 <path d="M 117.25000000 51.00000000 A 0.2500 0.2500 0 0 1 117.7500 51.0000" stroke-width="0.2540" stroke="#000000" stroke-linecap="round" fill="none"/>
 <path d="M 99.25000000 35.50000000 A 0.2500 0.2500 0 0 1 98.7500 35.5000" stroke-width="0.2540" stroke="#000000" stroke-linecap="round" fill="none"/>
 <path d="M 98.75000000 35.50000000 A 0.2500 0.2500 0 0 1 99.2500 35.5000" stroke-width="0.2540" stroke="#000000" stroke-linecap="round" fill="none"/>
 <path d="M 92.25000000 28.50000000 A 0.2500 0.2500 0 0 1 91.7500 28.5000" stroke-width="0.2540" stroke="#000000" stroke-linecap="round" fill="none"/>
 <path d="M 91.75000000 28.50000000 A 0.2500 0.2500 0 0 1 92.2500 28.5000" stroke-width="0.2540" stroke="#000000" stroke-linecap="round" fill="none"/>
 <path d="M 99.25000000 21.50000000 A 0.2500 0.2500 0 0 1 98.7500 21.5000" stroke-width="0.2540" stroke="#000000" stroke-linecap="round" fill="none"/>
 <path d="M 98.75000000 21.50000000 A 0.2500 0.2500 0 0 1 99.2500 21.5000" stroke-width="0.2540" stroke="#000000" stroke-linecap="round" fill="none"/>
 <path d="M 106.25000000 28.50000000 A 0.2500 0.2500 0 0 1 105.7500 28.5000" stroke-width="0.2540" stroke="#000000" stroke-linecap="round" fill="none"/>
 <path d="M 105.75000000 28.50000000 A 0.2500 0.2500 0 0 1 106.2500 28.5000" stroke-width="0.2540" stroke="#000000" stroke-linecap="round" fill="none"/>
 <path d="M 113.25000000 21.50000000 A 0.2500 0.2500 0 0 1 112.7500 21.5000" stroke-width="0.2540" stroke="#000000" stroke-linecap="round" fill="none"/>
 <path d="M 112.75000000 21.50000000 A 0.2500 0.2500 0 0 1 113.2500 21.5000" stroke-width="0.2540" stroke="#000000" stroke-linecap="round" fill="none"/>
 <path d="M 117.75000000 1.50000000 A 0.2500 0.2500 0 0 1 117.2500 1.5000" stroke-width="0.2540" stroke="#000000" stroke-linecap="round" fill="none"/>
 <path d="M 117.25000000 1.50000000 A 0.2500 0.2500 0 0 1 117.7500 1.5000" stroke-width="0.2540" stroke="#000000" stroke-linecap="round" fill="none"/>
 <path d="M 80.25000000 1.50000000 A 0.2500 0.2500 0 0 1 79.7500 1.5000" stroke-width="0.2540" stroke="#000000" stroke-linecap="round" fill="none"/>
 <path d="M 79.75000000 1.50000000 A 0.2500 0.2500 0 0 1 80.2500 1.5000" stroke-width="0.2540" stroke="#000000" stroke-linecap="round" fill="none"/>
 <path d="M 69.50000000 17.50000000 A 0.2500 0.2500 0 0 1 69.0000 17.5000" stroke-width="0.2540" stroke="#000000" stroke-linecap="round" fill="none"/>
 <path d="M 69.00000000 17.50000000 A 0.2500 0.2500 0 0 1 69.5000 17.5000" stroke-width="0.2540" stroke="#000000" stroke-linecap="round" fill="none"/>
 <path d="M 85.25000000 21.50000000 A 0.2500 0.2500 0 0 1 84.7500 21.5000" stroke-width="0.2540" stroke="#000000" stroke-linecap="round" fill="none"/>
 <path d="M 84.75000000 21.50000000 A 0.2500 0.2500 0 0 1 85.2500 21.5000" stroke-width="0.2540" stroke="#000000" stroke-linecap="round" fill="none"/>
 <path d="M 80.25000000 51.00000000 A 0.2500 0.2500 0 0 1 79.7500 51.0000" stroke-width="0.2540" stroke="#000000" stroke-linecap="round" fill="none"/>
 <path d="M 79.75000000 51.00000000 A 0.2500 0.2500 0 0 1 80.2500 51.0000" stroke-width="0.2540" stroke="#000000" stroke-linecap="round" fill="none"/>
 <path d="M 69.50000000 35.50000000 A 0.2500 0.2500 0 0 1 69.0000 35.5000" stroke-width="0.2540" stroke="#000000" stroke-linecap="round" fill="none"/>
 <path d="M 69.00000000 35.50000000 A 0.2500 0.2500 0 0 1 69.5000 35.5000" stroke-width="0.2540" stroke="#000000" stroke-linecap="round" fill="none"/>
 <path d="M 60.50000000 26.50000000 A 0.2500 0.2500 0 0 1 60.0000 26.5000" stroke-width="0.2540" stroke="#000000" stroke-linecap="round" fill="none"/>
 <path d="M 60.00000000 26.50000000 A 0.2500 0.2500 0 0 1 60.5000 26.5000" stroke-width="0.2540" stroke="#000000" stroke-linecap="round" fill="none"/>
</g>
</svg>
