<?xml version="1.0"?>
<svg xmlns="http://www.w3.org/2000/svg" xmlns:xlink="http://www.w3.org/1999/xlink" version="1.0" width="1632.0000" height="1600.0000" viewBox="-2.0000 -2.0000 56.0000 55.0000">
<g id="layer_3_top-fab">
<!--normal-->
 <polygon points="28.9524,38.1262 6.3579,34.1421 20.5000,20.0000 " stroke-width="0.010" stroke="#ff0000" fill="#ff0000"/>
 <polygon points="39.8185,14.8236 20.5000,20.0000 1.5000,1.0000 " stroke-width="0.010" stroke="#ff0000" fill="#ff0000"/>
 <polygon points="35.2477,17.0836 34.7301,15.1518 39.8185,14.8236 " stroke-width="0.010" stroke="#800000" fill="#800000"/>
 <polygon points="9.1863,29.8995 10.6005,31.3137 6.3579,34.1421 " stroke-width="0.010" stroke="#800000" fill="#800000"/>
 <polygon points="16.3995,17.3137 17.8137,15.8995 20.6421,20.1421 " stroke-width="0.010" stroke="#800000" fill="#800000"/>
 <polygon points="23.5194,24.1089 21.7068,24.9542 20.5000,20.0000 " stroke-width="0.010" stroke="#800000" fill="#800000"/>
 <polygon points="17.0000,46.0000 17.0000,44.0000 22.0000,45.0000 " stroke-width="0.010" stroke="#800000" fill="#800000"/>
 <line x1="20.5000" y1="20.0000" x2="37.8867" y2="15.3413" stroke-width="0.2540" stroke="#800000" stroke-linecap="round"/>
 <line x1="20.5000" y1="20.0000" x2="7.7721" y2="32.7279" stroke-width="0.2540" stroke="#800000" stroke-linecap="round"/>
 <line x1="1.5000" y1="1.0000" x2="19.2279" y2="18.7279" stroke-width="0.2540" stroke="#800000" stroke-linecap="round"/>
 <line x1="28.9524" y1="38.1262" x2="21.3452" y2="21.8126" stroke-width="0.2540" stroke="#800000" stroke-linecap="round"/>
 <line x1="2.0000" y1="45.0000" x2="20.0000" y2="45.0000" stroke-width="0.2540" stroke="#800000" stroke-linecap="round"/>
</g>
<g id="layer_4_top">
</g>
<g id="layer_5_top">
</g>
<g id="layer_6_top">
</g>
<g id="layer_7_top">
<!--normal-->
 <polygon points="32.2137,29.4228 33.3609,27.7845 36.8830,31.4715 " stroke-width="0.010" stroke="#000000" fill="#000000"/>
 <polygon points="19.9396,14.9319 21.9320,15.1062 20.5000,20.0000 " stroke-width="0.010" stroke="#000000" fill="#000000"/>
 <polygon points="44.0000,46.0000 44.0000,44.0000 49.0000,45.0000 " stroke-width="0.010" stroke="#000000" fill="#000000"/>
 <line x1="21.5000" y1="8.4000" x2="20.6743" y2="18.0076" stroke-width="0.2540" stroke="#000000" stroke-linecap="round"/>
 <line x1="21.1906" y1="12.0000" x2="25.1906" y2="8.0000" stroke-width="0.1540" stroke="#000000" stroke-linecap="round"/>
 <line x1="25.1906" y1="8.0000" x2="33.5000" y2="8.0000" stroke-width="0.1540" stroke="#000000" stroke-linecap="round"/>
 <line x1="20.5000" y1="20.0000" x2="35.2447" y2="30.3244" stroke-width="0.2540" stroke="#000000" stroke-linecap="round"/>
 <line x1="28.5000" y1="25.5000" x2="30.0000" y2="24.0000" stroke-width="0.1540" stroke="#000000" stroke-linecap="round"/>
 <line x1="30.0000" y1="24.0000" x2="39.0000" y2="24.0000" stroke-width="0.1540" stroke="#000000" stroke-linecap="round"/>
 <line x1="29.0000" y1="45.0000" x2="47.0000" y2="45.0000" stroke-width="0.2540" stroke="#000000" stroke-linecap="round"/>
 <line x1="25.7500" y1="6.9612" x2="26.1310" y2="6.9612" stroke-width="0.2540" stroke="#000000" stroke-linecap="round"/>
 <line x1="25.7500" y1="7.5200" x2="26.2580" y2="7.5200" stroke-width="0.2540" stroke="#000000" stroke-linecap="round"/>
 <line x1="25.7500" y1="6.5040" x2="25.7500" y2="7.5200" stroke-width="0.2540" stroke="#000000" stroke-linecap="round"/>
 <line x1="25.7500" y1="6.5040" x2="26.2580" y2="6.5040" stroke-width="0.2540" stroke="#000000" stroke-linecap="round"/>
 <line x1="27.0200" y1="6.7580" x2="27.0200" y2="6.7834" stroke-width="0.2540" stroke="#000000" stroke-linecap="round"/>
 <line x1="27.0200" y1="7.1390" x2="27.0200" y2="7.5200" stroke-width="0.2540" stroke="#000000" stroke-linecap="round"/>
 <line x1="27.4010" y1="7.5200" x2="27.7820" y2="7.5200" stroke-width="0.2540" stroke="#000000" stroke-linecap="round"/>
 <line x1="27.7820" y1="7.5200" x2="27.9090" y2="7.3930" stroke-width="0.2540" stroke="#000000" stroke-linecap="round"/>
 <line x1="27.7820" y1="7.2660" x2="27.9090" y2="7.3930" stroke-width="0.2540" stroke="#000000" stroke-linecap="round"/>
 <line x1="27.4010" y1="7.2660" x2="27.7820" y2="7.2660" stroke-width="0.2540" stroke="#000000" stroke-linecap="round"/>
 <line x1="27.2740" y1="7.1390" x2="27.4010" y2="7.2660" stroke-width="0.2540" stroke="#000000" stroke-linecap="round"/>
 <line x1="27.2740" y1="7.1390" x2="27.4010" y2="7.0120" stroke-width="0.2540" stroke="#000000" stroke-linecap="round"/>
 <line x1="27.4010" y1="7.0120" x2="27.7820" y2="7.0120" stroke-width="0.2540" stroke="#000000" stroke-linecap="round"/>
 <line x1="27.7820" y1="7.0120" x2="27.9090" y2="7.1390" stroke-width="0.2540" stroke="#000000" stroke-linecap="round"/>
 <line x1="27.2740" y1="7.3930" x2="27.4010" y2="7.5200" stroke-width="0.2540" stroke="#000000" stroke-linecap="round"/>
 <line x1="28.6710" y1="6.5040" x2="28.9250" y2="6.5040" stroke-width="0.2540" stroke="#000000" stroke-linecap="round"/>
 <line x1="28.7980" y1="6.5040" x2="28.7980" y2="7.5200" stroke-width="0.2540" stroke="#000000" stroke-linecap="round"/>
 <line x1="28.6710" y1="7.5200" x2="28.9250" y2="7.5200" stroke-width="0.2540" stroke="#000000" stroke-linecap="round"/>
 <line x1="29.2298" y1="6.5040" x2="29.2298" y2="7.5200" stroke-width="0.2540" stroke="#000000" stroke-linecap="round"/>
 <line x1="29.2298" y1="6.5040" x2="29.8648" y2="7.5200" stroke-width="0.2540" stroke="#000000" stroke-linecap="round"/>
 <line x1="29.8648" y1="6.5040" x2="29.8648" y2="7.5200" stroke-width="0.2540" stroke="#000000" stroke-linecap="round"/>
 <line x1="30.6776" y1="6.5040" x2="30.8046" y2="6.6310" stroke-width="0.2540" stroke="#000000" stroke-linecap="round"/>
 <line x1="30.2966" y1="6.5040" x2="30.6776" y2="6.5040" stroke-width="0.2540" stroke="#000000" stroke-linecap="round"/>
 <line x1="30.1696" y1="6.6310" x2="30.2966" y2="6.5040" stroke-width="0.2540" stroke="#000000" stroke-linecap="round"/>
 <line x1="30.1696" y1="6.6310" x2="30.1696" y2="6.8850" stroke-width="0.2540" stroke="#000000" stroke-linecap="round"/>
 <line x1="30.1696" y1="6.8850" x2="30.2966" y2="7.0120" stroke-width="0.2540" stroke="#000000" stroke-linecap="round"/>
 <line x1="30.2966" y1="7.0120" x2="30.6776" y2="7.0120" stroke-width="0.2540" stroke="#000000" stroke-linecap="round"/>
 <line x1="30.6776" y1="7.0120" x2="30.8046" y2="7.1390" stroke-width="0.2540" stroke="#000000" stroke-linecap="round"/>
 <line x1="30.8046" y1="7.1390" x2="30.8046" y2="7.3930" stroke-width="0.2540" stroke="#000000" stroke-linecap="round"/>
 <line x1="30.6776" y1="7.5200" x2="30.8046" y2="7.3930" stroke-width="0.2540" stroke="#000000" stroke-linecap="round"/>
 <line x1="30.2966" y1="7.5200" x2="30.6776" y2="7.5200" stroke-width="0.2540" stroke="#000000" stroke-linecap="round"/>
 <line x1="30.1696" y1="7.3930" x2="30.2966" y2="7.5200" stroke-width="0.2540" stroke="#000000" stroke-linecap="round"/>
 <line x1="31.1094" y1="6.5040" x2="31.3634" y2="6.5040" stroke-width="0.2540" stroke="#000000" stroke-linecap="round"/>
 <line x1="31.2364" y1="6.5040" x2="31.2364" y2="7.5200" stroke-width="0.2540" stroke="#000000" stroke-linecap="round"/>
 <line x1="31.1094" y1="7.5200" x2="31.3634" y2="7.5200" stroke-width="0.2540" stroke="#000000" stroke-linecap="round"/>
 <line x1="31.7952" y1="6.5040" x2="31.7952" y2="7.5200" stroke-width="0.2540" stroke="#000000" stroke-linecap="round"/>
 <line x1="32.1254" y1="6.5040" x2="32.3032" y2="6.6818" stroke-width="0.2540" stroke="#000000" stroke-linecap="round"/>
 <line x1="32.3032" y1="6.6818" x2="32.3032" y2="7.3422" stroke-width="0.2540" stroke="#000000" stroke-linecap="round"/>
 <line x1="32.1254" y1="7.5200" x2="32.3032" y2="7.3422" stroke-width="0.2540" stroke="#000000" stroke-linecap="round"/>
 <line x1="31.6682" y1="7.5200" x2="32.1254" y2="7.5200" stroke-width="0.2540" stroke="#000000" stroke-linecap="round"/>
 <line x1="31.6682" y1="6.5040" x2="32.1254" y2="6.5040" stroke-width="0.2540" stroke="#000000" stroke-linecap="round"/>
 <line x1="32.6080" y1="6.9612" x2="32.9890" y2="6.9612" stroke-width="0.2540" stroke="#000000" stroke-linecap="round"/>
 <line x1="32.6080" y1="7.5200" x2="33.1160" y2="7.5200" stroke-width="0.2540" stroke="#000000" stroke-linecap="round"/>
 <line x1="32.6080" y1="6.5040" x2="32.6080" y2="7.5200" stroke-width="0.2540" stroke="#000000" stroke-linecap="round"/>
 <line x1="32.6080" y1="6.5040" x2="33.1160" y2="6.5040" stroke-width="0.2540" stroke="#000000" stroke-linecap="round"/>
 <line x1="30.5594" y1="22.9612" x2="30.9404" y2="22.9612" stroke-width="0.2540" stroke="#000000" stroke-linecap="round"/>
 <line x1="30.5594" y1="23.5200" x2="31.0674" y2="23.5200" stroke-width="0.2540" stroke="#000000" stroke-linecap="round"/>
 <line x1="30.5594" y1="22.5040" x2="30.5594" y2="23.5200" stroke-width="0.2540" stroke="#000000" stroke-linecap="round"/>
 <line x1="30.5594" y1="22.5040" x2="31.0674" y2="22.5040" stroke-width="0.2540" stroke="#000000" stroke-linecap="round"/>
 <line x1="31.8294" y1="22.7580" x2="31.8294" y2="22.7834" stroke-width="0.2540" stroke="#000000" stroke-linecap="round"/>
 <line x1="31.8294" y1="23.1390" x2="31.8294" y2="23.5200" stroke-width="0.2540" stroke="#000000" stroke-linecap="round"/>
 <line x1="32.2104" y1="23.5200" x2="32.5914" y2="23.5200" stroke-width="0.2540" stroke="#000000" stroke-linecap="round"/>
 <line x1="32.5914" y1="23.5200" x2="32.7184" y2="23.3930" stroke-width="0.2540" stroke="#000000" stroke-linecap="round"/>
 <line x1="32.5914" y1="23.2660" x2="32.7184" y2="23.3930" stroke-width="0.2540" stroke="#000000" stroke-linecap="round"/>
 <line x1="32.2104" y1="23.2660" x2="32.5914" y2="23.2660" stroke-width="0.2540" stroke="#000000" stroke-linecap="round"/>
 <line x1="32.0834" y1="23.1390" x2="32.2104" y2="23.2660" stroke-width="0.2540" stroke="#000000" stroke-linecap="round"/>
 <line x1="32.0834" y1="23.1390" x2="32.2104" y2="23.0120" stroke-width="0.2540" stroke="#000000" stroke-linecap="round"/>
 <line x1="32.2104" y1="23.0120" x2="32.5914" y2="23.0120" stroke-width="0.2540" stroke="#000000" stroke-linecap="round"/>
 <line x1="32.5914" y1="23.0120" x2="32.7184" y2="23.1390" stroke-width="0.2540" stroke="#000000" stroke-linecap="round"/>
 <line x1="32.0834" y1="23.3930" x2="32.2104" y2="23.5200" stroke-width="0.2540" stroke="#000000" stroke-linecap="round"/>
 <line x1="33.4804" y1="22.6310" x2="33.4804" y2="23.3930" stroke-width="0.2540" stroke="#000000" stroke-linecap="round"/>
 <line x1="33.4804" y1="22.6310" x2="33.6074" y2="22.5040" stroke-width="0.2540" stroke="#000000" stroke-linecap="round"/>
 <line x1="33.6074" y1="22.5040" x2="33.8614" y2="22.5040" stroke-width="0.2540" stroke="#000000" stroke-linecap="round"/>
 <line x1="33.8614" y1="22.5040" x2="33.9884" y2="22.6310" stroke-width="0.2540" stroke="#000000" stroke-linecap="round"/>
 <line x1="33.9884" y1="22.6310" x2="33.9884" y2="23.3930" stroke-width="0.2540" stroke="#000000" stroke-linecap="round"/>
 <line x1="33.8614" y1="23.5200" x2="33.9884" y2="23.3930" stroke-width="0.2540" stroke="#000000" stroke-linecap="round"/>
 <line x1="33.6074" y1="23.5200" x2="33.8614" y2="23.5200" stroke-width="0.2540" stroke="#000000" stroke-linecap="round"/>
 <line x1="33.4804" y1="23.3930" x2="33.6074" y2="23.5200" stroke-width="0.2540" stroke="#000000" stroke-linecap="round"/>
 <line x1="34.2932" y1="22.5040" x2="34.2932" y2="23.3930" stroke-width="0.2540" stroke="#000000" stroke-linecap="round"/>
 <line x1="34.2932" y1="23.3930" x2="34.4202" y2="23.5200" stroke-width="0.2540" stroke="#000000" stroke-linecap="round"/>
 <line x1="34.4202" y1="23.5200" x2="34.6742" y2="23.5200" stroke-width="0.2540" stroke="#000000" stroke-linecap="round"/>
 <line x1="34.6742" y1="23.5200" x2="34.8012" y2="23.3930" stroke-width="0.2540" stroke="#000000" stroke-linecap="round"/>
 <line x1="34.8012" y1="22.5040" x2="34.8012" y2="23.3930" stroke-width="0.2540" stroke="#000000" stroke-linecap="round"/>
 <line x1="35.1060" y1="22.5040" x2="35.6140" y2="22.5040" stroke-width="0.2540" stroke="#000000" stroke-linecap="round"/>
 <line x1="35.3600" y1="22.5040" x2="35.3600" y2="23.5200" stroke-width="0.2540" stroke="#000000" stroke-linecap="round"/>
 <line x1="36.4268" y1="22.5040" x2="36.5538" y2="22.6310" stroke-width="0.2540" stroke="#000000" stroke-linecap="round"/>
 <line x1="36.0458" y1="22.5040" x2="36.4268" y2="22.5040" stroke-width="0.2540" stroke="#000000" stroke-linecap="round"/>
 <line x1="35.9188" y1="22.6310" x2="36.0458" y2="22.5040" stroke-width="0.2540" stroke="#000000" stroke-linecap="round"/>
 <line x1="35.9188" y1="22.6310" x2="35.9188" y2="22.8850" stroke-width="0.2540" stroke="#000000" stroke-linecap="round"/>
 <line x1="35.9188" y1="22.8850" x2="36.0458" y2="23.0120" stroke-width="0.2540" stroke="#000000" stroke-linecap="round"/>
 <line x1="36.0458" y1="23.0120" x2="36.4268" y2="23.0120" stroke-width="0.2540" stroke="#000000" stroke-linecap="round"/>
 <line x1="36.4268" y1="23.0120" x2="36.5538" y2="23.1390" stroke-width="0.2540" stroke="#000000" stroke-linecap="round"/>
 <line x1="36.5538" y1="23.1390" x2="36.5538" y2="23.3930" stroke-width="0.2540" stroke="#000000" stroke-linecap="round"/>
 <line x1="36.4268" y1="23.5200" x2="36.5538" y2="23.3930" stroke-width="0.2540" stroke="#000000" stroke-linecap="round"/>
 <line x1="36.0458" y1="23.5200" x2="36.4268" y2="23.5200" stroke-width="0.2540" stroke="#000000" stroke-linecap="round"/>
 <line x1="35.9188" y1="23.3930" x2="36.0458" y2="23.5200" stroke-width="0.2540" stroke="#000000" stroke-linecap="round"/>
 <line x1="36.8586" y1="22.5040" x2="37.1126" y2="22.5040" stroke-width="0.2540" stroke="#000000" stroke-linecap="round"/>
 <line x1="36.9856" y1="22.5040" x2="36.9856" y2="23.5200" stroke-width="0.2540" stroke="#000000" stroke-linecap="round"/>
 <line x1="36.8586" y1="23.5200" x2="37.1126" y2="23.5200" stroke-width="0.2540" stroke="#000000" stroke-linecap="round"/>
 <line x1="37.5444" y1="22.5040" x2="37.5444" y2="23.5200" stroke-width="0.2540" stroke="#000000" stroke-linecap="round"/>
 <line x1="37.8746" y1="22.5040" x2="38.0524" y2="22.6818" stroke-width="0.2540" stroke="#000000" stroke-linecap="round"/>
 <line x1="38.0524" y1="22.6818" x2="38.0524" y2="23.3422" stroke-width="0.2540" stroke="#000000" stroke-linecap="round"/>
 <line x1="37.8746" y1="23.5200" x2="38.0524" y2="23.3422" stroke-width="0.2540" stroke="#000000" stroke-linecap="round"/>
 <line x1="37.4174" y1="23.5200" x2="37.8746" y2="23.5200" stroke-width="0.2540" stroke="#000000" stroke-linecap="round"/>
 <line x1="37.4174" y1="22.5040" x2="37.8746" y2="22.5040" stroke-width="0.2540" stroke="#000000" stroke-linecap="round"/>
 <line x1="38.3572" y1="22.9612" x2="38.7382" y2="22.9612" stroke-width="0.2540" stroke="#000000" stroke-linecap="round"/>
 <line x1="38.3572" y1="23.5200" x2="38.8652" y2="23.5200" stroke-width="0.2540" stroke="#000000" stroke-linecap="round"/>
 <line x1="38.3572" y1="22.5040" x2="38.3572" y2="23.5200" stroke-width="0.2540" stroke="#000000" stroke-linecap="round"/>
 <line x1="38.3572" y1="22.5040" x2="38.8652" y2="22.5040" stroke-width="0.2540" stroke="#000000" stroke-linecap="round"/>
 <line x1="18.0000" y1="30.0040" x2="18.0000" y2="31.0200" stroke-width="0.2540" stroke="#000000" stroke-linecap="round"/>
 <line x1="18.0000" y1="30.0040" x2="18.3810" y2="30.5120" stroke-width="0.2540" stroke="#000000" stroke-linecap="round"/>
 <line x1="18.3810" y1="30.5120" x2="18.7620" y2="30.0040" stroke-width="0.2540" stroke="#000000" stroke-linecap="round"/>
 <line x1="18.7620" y1="30.0040" x2="18.7620" y2="31.0200" stroke-width="0.2540" stroke="#000000" stroke-linecap="round"/>
 <line x1="15.0000" y1="9.0040" x2="15.0000" y2="10.0200" stroke-width="0.2540" stroke="#000000" stroke-linecap="round"/>
 <line x1="15.0000" y1="9.0040" x2="15.3810" y2="9.5120" stroke-width="0.2540" stroke="#000000" stroke-linecap="round"/>
 <line x1="15.3810" y1="9.5120" x2="15.7620" y2="9.0040" stroke-width="0.2540" stroke="#000000" stroke-linecap="round"/>
 <line x1="15.7620" y1="9.0040" x2="15.7620" y2="10.0200" stroke-width="0.2540" stroke="#000000" stroke-linecap="round"/>
 <line x1="3.0000" y1="46.7112" x2="3.3810" y2="46.7112" stroke-width="0.2540" stroke="#000000" stroke-linecap="round"/>
 <line x1="3.0000" y1="47.2700" x2="3.5080" y2="47.2700" stroke-width="0.2540" stroke="#000000" stroke-linecap="round"/>
 <line x1="3.0000" y1="46.2540" x2="3.0000" y2="47.2700" stroke-width="0.2540" stroke="#000000" stroke-linecap="round"/>
 <line x1="3.0000" y1="46.2540" x2="3.5080" y2="46.2540" stroke-width="0.2540" stroke="#000000" stroke-linecap="round"/>
 <line x1="4.3208" y1="46.2540" x2="4.3208" y2="47.2700" stroke-width="0.2540" stroke="#000000" stroke-linecap="round"/>
 <line x1="4.1938" y1="47.2700" x2="4.3208" y2="47.1430" stroke-width="0.2540" stroke="#000000" stroke-linecap="round"/>
 <line x1="3.9398" y1="47.2700" x2="4.1938" y2="47.2700" stroke-width="0.2540" stroke="#000000" stroke-linecap="round"/>
 <line x1="3.8128" y1="47.1430" x2="3.9398" y2="47.2700" stroke-width="0.2540" stroke="#000000" stroke-linecap="round"/>
 <line x1="3.8128" y1="46.8890" x2="3.8128" y2="47.1430" stroke-width="0.2540" stroke="#000000" stroke-linecap="round"/>
 <line x1="3.8128" y1="46.8890" x2="3.9398" y2="46.7620" stroke-width="0.2540" stroke="#000000" stroke-linecap="round"/>
 <line x1="3.9398" y1="46.7620" x2="4.1938" y2="46.7620" stroke-width="0.2540" stroke="#000000" stroke-linecap="round"/>
 <line x1="4.1938" y1="46.7620" x2="4.3208" y2="46.8890" stroke-width="0.2540" stroke="#000000" stroke-linecap="round"/>
 <line x1="5.0066" y1="46.7620" x2="5.1336" y2="46.8890" stroke-width="0.2540" stroke="#000000" stroke-linecap="round"/>
 <line x1="4.7526" y1="46.7620" x2="5.0066" y2="46.7620" stroke-width="0.2540" stroke="#000000" stroke-linecap="round"/>
 <line x1="4.6256" y1="46.8890" x2="4.7526" y2="46.7620" stroke-width="0.2540" stroke="#000000" stroke-linecap="round"/>
 <line x1="4.6256" y1="46.8890" x2="4.6256" y2="47.1430" stroke-width="0.2540" stroke="#000000" stroke-linecap="round"/>
 <line x1="4.6256" y1="47.1430" x2="4.7526" y2="47.2700" stroke-width="0.2540" stroke="#000000" stroke-linecap="round"/>
 <line x1="4.7526" y1="47.2700" x2="5.0066" y2="47.2700" stroke-width="0.2540" stroke="#000000" stroke-linecap="round"/>
 <line x1="5.0066" y1="47.2700" x2="5.1336" y2="47.1430" stroke-width="0.2540" stroke="#000000" stroke-linecap="round"/>
 <line x1="4.6256" y1="47.5240" x2="4.7526" y2="47.6510" stroke-width="0.2540" stroke="#000000" stroke-linecap="round"/>
 <line x1="4.7526" y1="47.6510" x2="5.0066" y2="47.6510" stroke-width="0.2540" stroke="#000000" stroke-linecap="round"/>
 <line x1="5.0066" y1="47.6510" x2="5.1336" y2="47.5240" stroke-width="0.2540" stroke="#000000" stroke-linecap="round"/>
 <line x1="5.1336" y1="46.7620" x2="5.1336" y2="47.5240" stroke-width="0.2540" stroke="#000000" stroke-linecap="round"/>
 <line x1="5.5654" y1="47.2700" x2="5.9464" y2="47.2700" stroke-width="0.2540" stroke="#000000" stroke-linecap="round"/>
 <line x1="5.4384" y1="47.1430" x2="5.5654" y2="47.2700" stroke-width="0.2540" stroke="#000000" stroke-linecap="round"/>
 <line x1="5.4384" y1="46.8890" x2="5.4384" y2="47.1430" stroke-width="0.2540" stroke="#000000" stroke-linecap="round"/>
 <line x1="5.4384" y1="46.8890" x2="5.5654" y2="46.7620" stroke-width="0.2540" stroke="#000000" stroke-linecap="round"/>
 <line x1="5.5654" y1="46.7620" x2="5.8194" y2="46.7620" stroke-width="0.2540" stroke="#000000" stroke-linecap="round"/>
 <line x1="5.8194" y1="46.7620" x2="5.9464" y2="46.8890" stroke-width="0.2540" stroke="#000000" stroke-linecap="round"/>
 <line x1="5.4384" y1="47.0160" x2="5.9464" y2="47.0160" stroke-width="0.2540" stroke="#000000" stroke-linecap="round"/>
 <line x1="5.9464" y1="47.0160" x2="5.9464" y2="46.8890" stroke-width="0.2540" stroke="#000000" stroke-linecap="round"/>
 <line x1="6.8354" y1="46.3810" x2="6.8354" y2="47.2700" stroke-width="0.2540" stroke="#000000" stroke-linecap="round"/>
 <line x1="6.8354" y1="46.3810" x2="6.9624" y2="46.2540" stroke-width="0.2540" stroke="#000000" stroke-linecap="round"/>
 <line x1="6.9624" y1="46.2540" x2="7.0894" y2="46.2540" stroke-width="0.2540" stroke="#000000" stroke-linecap="round"/>
 <line x1="6.7084" y1="46.7620" x2="6.9624" y2="46.7620" stroke-width="0.2540" stroke="#000000" stroke-linecap="round"/>
 <line x1="7.4704" y1="46.8890" x2="7.4704" y2="47.2700" stroke-width="0.2540" stroke="#000000" stroke-linecap="round"/>
 <line x1="7.4704" y1="46.8890" x2="7.5974" y2="46.7620" stroke-width="0.2540" stroke="#000000" stroke-linecap="round"/>
 <line x1="7.5974" y1="46.7620" x2="7.8514" y2="46.7620" stroke-width="0.2540" stroke="#000000" stroke-linecap="round"/>
 <line x1="7.3434" y1="46.7620" x2="7.4704" y2="46.8890" stroke-width="0.2540" stroke="#000000" stroke-linecap="round"/>
 <line x1="8.1562" y1="46.8890" x2="8.1562" y2="47.1430" stroke-width="0.2540" stroke="#000000" stroke-linecap="round"/>
 <line x1="8.1562" y1="46.8890" x2="8.2832" y2="46.7620" stroke-width="0.2540" stroke="#000000" stroke-linecap="round"/>
 <line x1="8.2832" y1="46.7620" x2="8.5372" y2="46.7620" stroke-width="0.2540" stroke="#000000" stroke-linecap="round"/>
 <line x1="8.5372" y1="46.7620" x2="8.6642" y2="46.8890" stroke-width="0.2540" stroke="#000000" stroke-linecap="round"/>
 <line x1="8.6642" y1="46.8890" x2="8.6642" y2="47.1430" stroke-width="0.2540" stroke="#000000" stroke-linecap="round"/>
 <line x1="8.5372" y1="47.2700" x2="8.6642" y2="47.1430" stroke-width="0.2540" stroke="#000000" stroke-linecap="round"/>
 <line x1="8.2832" y1="47.2700" x2="8.5372" y2="47.2700" stroke-width="0.2540" stroke="#000000" stroke-linecap="round"/>
 <line x1="8.1562" y1="47.1430" x2="8.2832" y2="47.2700" stroke-width="0.2540" stroke="#000000" stroke-linecap="round"/>
 <line x1="9.0960" y1="46.8890" x2="9.0960" y2="47.2700" stroke-width="0.2540" stroke="#000000" stroke-linecap="round"/>
 <line x1="9.0960" y1="46.8890" x2="9.2230" y2="46.7620" stroke-width="0.2540" stroke="#000000" stroke-linecap="round"/>
 <line x1="9.2230" y1="46.7620" x2="9.3500" y2="46.7620" stroke-width="0.2540" stroke="#000000" stroke-linecap="round"/>
 <line x1="9.3500" y1="46.7620" x2="9.4770" y2="46.8890" stroke-width="0.2540" stroke="#000000" stroke-linecap="round"/>
 <line x1="9.4770" y1="46.8890" x2="9.4770" y2="47.2700" stroke-width="0.2540" stroke="#000000" stroke-linecap="round"/>
 <line x1="9.4770" y1="46.8890" x2="9.6040" y2="46.7620" stroke-width="0.2540" stroke="#000000" stroke-linecap="round"/>
 <line x1="9.6040" y1="46.7620" x2="9.7310" y2="46.7620" stroke-width="0.2540" stroke="#000000" stroke-linecap="round"/>
 <line x1="9.7310" y1="46.7620" x2="9.8580" y2="46.8890" stroke-width="0.2540" stroke="#000000" stroke-linecap="round"/>
 <line x1="9.8580" y1="46.8890" x2="9.8580" y2="47.2700" stroke-width="0.2540" stroke="#000000" stroke-linecap="round"/>
 <line x1="8.9690" y1="46.7620" x2="9.0960" y2="46.8890" stroke-width="0.2540" stroke="#000000" stroke-linecap="round"/>
 <line x1="10.6200" y1="46.2540" x2="10.6200" y2="47.2700" stroke-width="0.2540" stroke="#000000" stroke-linecap="round"/>
 <line x1="10.6200" y1="46.2540" x2="11.0010" y2="46.7620" stroke-width="0.2540" stroke="#000000" stroke-linecap="round"/>
 <line x1="11.0010" y1="46.7620" x2="11.3820" y2="46.2540" stroke-width="0.2540" stroke="#000000" stroke-linecap="round"/>
 <line x1="11.3820" y1="46.2540" x2="11.3820" y2="47.2700" stroke-width="0.2540" stroke="#000000" stroke-linecap="round"/>
 <line x1="30.0000" y1="46.7112" x2="30.3810" y2="46.7112" stroke-width="0.2540" stroke="#000000" stroke-linecap="round"/>
 <line x1="30.0000" y1="47.2700" x2="30.5080" y2="47.2700" stroke-width="0.2540" stroke="#000000" stroke-linecap="round"/>
 <line x1="30.0000" y1="46.2540" x2="30.0000" y2="47.2700" stroke-width="0.2540" stroke="#000000" stroke-linecap="round"/>
 <line x1="30.0000" y1="46.2540" x2="30.5080" y2="46.2540" stroke-width="0.2540" stroke="#000000" stroke-linecap="round"/>
 <line x1="31.3208" y1="46.2540" x2="31.3208" y2="47.2700" stroke-width="0.2540" stroke="#000000" stroke-linecap="round"/>
 <line x1="31.1938" y1="47.2700" x2="31.3208" y2="47.1430" stroke-width="0.2540" stroke="#000000" stroke-linecap="round"/>
 <line x1="30.9398" y1="47.2700" x2="31.1938" y2="47.2700" stroke-width="0.2540" stroke="#000000" stroke-linecap="round"/>
 <line x1="30.8128" y1="47.1430" x2="30.9398" y2="47.2700" stroke-width="0.2540" stroke="#000000" stroke-linecap="round"/>
 <line x1="30.8128" y1="46.8890" x2="30.8128" y2="47.1430" stroke-width="0.2540" stroke="#000000" stroke-linecap="round"/>
 <line x1="30.8128" y1="46.8890" x2="30.9398" y2="46.7620" stroke-width="0.2540" stroke="#000000" stroke-linecap="round"/>
 <line x1="30.9398" y1="46.7620" x2="31.1938" y2="46.7620" stroke-width="0.2540" stroke="#000000" stroke-linecap="round"/>
 <line x1="31.1938" y1="46.7620" x2="31.3208" y2="46.8890" stroke-width="0.2540" stroke="#000000" stroke-linecap="round"/>
 <line x1="32.0066" y1="46.7620" x2="32.1336" y2="46.8890" stroke-width="0.2540" stroke="#000000" stroke-linecap="round"/>
 <line x1="31.7526" y1="46.7620" x2="32.0066" y2="46.7620" stroke-width="0.2540" stroke="#000000" stroke-linecap="round"/>
 <line x1="31.6256" y1="46.8890" x2="31.7526" y2="46.7620" stroke-width="0.2540" stroke="#000000" stroke-linecap="round"/>
 <line x1="31.6256" y1="46.8890" x2="31.6256" y2="47.1430" stroke-width="0.2540" stroke="#000000" stroke-linecap="round"/>
 <line x1="31.6256" y1="47.1430" x2="31.7526" y2="47.2700" stroke-width="0.2540" stroke="#000000" stroke-linecap="round"/>
 <line x1="31.7526" y1="47.2700" x2="32.0066" y2="47.2700" stroke-width="0.2540" stroke="#000000" stroke-linecap="round"/>
 <line x1="32.0066" y1="47.2700" x2="32.1336" y2="47.1430" stroke-width="0.2540" stroke="#000000" stroke-linecap="round"/>
 <line x1="31.6256" y1="47.5240" x2="31.7526" y2="47.6510" stroke-width="0.2540" stroke="#000000" stroke-linecap="round"/>
 <line x1="31.7526" y1="47.6510" x2="32.0066" y2="47.6510" stroke-width="0.2540" stroke="#000000" stroke-linecap="round"/>
 <line x1="32.0066" y1="47.6510" x2="32.1336" y2="47.5240" stroke-width="0.2540" stroke="#000000" stroke-linecap="round"/>
 <line x1="32.1336" y1="46.7620" x2="32.1336" y2="47.5240" stroke-width="0.2540" stroke="#000000" stroke-linecap="round"/>
 <line x1="32.5654" y1="47.2700" x2="32.9464" y2="47.2700" stroke-width="0.2540" stroke="#000000" stroke-linecap="round"/>
 <line x1="32.4384" y1="47.1430" x2="32.5654" y2="47.2700" stroke-width="0.2540" stroke="#000000" stroke-linecap="round"/>
 <line x1="32.4384" y1="46.8890" x2="32.4384" y2="47.1430" stroke-width="0.2540" stroke="#000000" stroke-linecap="round"/>
 <line x1="32.4384" y1="46.8890" x2="32.5654" y2="46.7620" stroke-width="0.2540" stroke="#000000" stroke-linecap="round"/>
 <line x1="32.5654" y1="46.7620" x2="32.8194" y2="46.7620" stroke-width="0.2540" stroke="#000000" stroke-linecap="round"/>
 <line x1="32.8194" y1="46.7620" x2="32.9464" y2="46.8890" stroke-width="0.2540" stroke="#000000" stroke-linecap="round"/>
 <line x1="32.4384" y1="47.0160" x2="32.9464" y2="47.0160" stroke-width="0.2540" stroke="#000000" stroke-linecap="round"/>
 <line x1="32.9464" y1="47.0160" x2="32.9464" y2="46.8890" stroke-width="0.2540" stroke="#000000" stroke-linecap="round"/>
 <line x1="33.7084" y1="46.2540" x2="33.7084" y2="47.2700" stroke-width="0.2540" stroke="#000000" stroke-linecap="round"/>
 <line x1="33.7084" y1="47.1430" x2="33.8354" y2="47.2700" stroke-width="0.2540" stroke="#000000" stroke-linecap="round"/>
 <line x1="33.8354" y1="47.2700" x2="34.0894" y2="47.2700" stroke-width="0.2540" stroke="#000000" stroke-linecap="round"/>
 <line x1="34.0894" y1="47.2700" x2="34.2164" y2="47.1430" stroke-width="0.2540" stroke="#000000" stroke-linecap="round"/>
 <line x1="34.2164" y1="46.8890" x2="34.2164" y2="47.1430" stroke-width="0.2540" stroke="#000000" stroke-linecap="round"/>
 <line x1="34.0894" y1="46.7620" x2="34.2164" y2="46.8890" stroke-width="0.2540" stroke="#000000" stroke-linecap="round"/>
 <line x1="33.8354" y1="46.7620" x2="34.0894" y2="46.7620" stroke-width="0.2540" stroke="#000000" stroke-linecap="round"/>
 <line x1="33.7084" y1="46.8890" x2="33.8354" y2="46.7620" stroke-width="0.2540" stroke="#000000" stroke-linecap="round"/>
 <line x1="34.6482" y1="47.2700" x2="35.0292" y2="47.2700" stroke-width="0.2540" stroke="#000000" stroke-linecap="round"/>
 <line x1="34.5212" y1="47.1430" x2="34.6482" y2="47.2700" stroke-width="0.2540" stroke="#000000" stroke-linecap="round"/>
 <line x1="34.5212" y1="46.8890" x2="34.5212" y2="47.1430" stroke-width="0.2540" stroke="#000000" stroke-linecap="round"/>
 <line x1="34.5212" y1="46.8890" x2="34.6482" y2="46.7620" stroke-width="0.2540" stroke="#000000" stroke-linecap="round"/>
 <line x1="34.6482" y1="46.7620" x2="34.9022" y2="46.7620" stroke-width="0.2540" stroke="#000000" stroke-linecap="round"/>
 <line x1="34.9022" y1="46.7620" x2="35.0292" y2="46.8890" stroke-width="0.2540" stroke="#000000" stroke-linecap="round"/>
 <line x1="34.5212" y1="47.0160" x2="35.0292" y2="47.0160" stroke-width="0.2540" stroke="#000000" stroke-linecap="round"/>
 <line x1="35.0292" y1="47.0160" x2="35.0292" y2="46.8890" stroke-width="0.2540" stroke="#000000" stroke-linecap="round"/>
 <line x1="35.3340" y1="46.5080" x2="35.3340" y2="46.5334" stroke-width="0.2540" stroke="#000000" stroke-linecap="round"/>
 <line x1="35.3340" y1="46.8890" x2="35.3340" y2="47.2700" stroke-width="0.2540" stroke="#000000" stroke-linecap="round"/>
 <line x1="35.7150" y1="46.8890" x2="35.7150" y2="47.2700" stroke-width="0.2540" stroke="#000000" stroke-linecap="round"/>
 <line x1="35.7150" y1="46.8890" x2="35.8420" y2="46.7620" stroke-width="0.2540" stroke="#000000" stroke-linecap="round"/>
 <line x1="35.8420" y1="46.7620" x2="35.9690" y2="46.7620" stroke-width="0.2540" stroke="#000000" stroke-linecap="round"/>
 <line x1="35.9690" y1="46.7620" x2="36.0960" y2="46.8890" stroke-width="0.2540" stroke="#000000" stroke-linecap="round"/>
 <line x1="36.0960" y1="46.8890" x2="36.0960" y2="47.2700" stroke-width="0.2540" stroke="#000000" stroke-linecap="round"/>
 <line x1="35.5880" y1="46.7620" x2="35.7150" y2="46.8890" stroke-width="0.2540" stroke="#000000" stroke-linecap="round"/>
 <line x1="36.7818" y1="46.7620" x2="36.9088" y2="46.8890" stroke-width="0.2540" stroke="#000000" stroke-linecap="round"/>
 <line x1="36.5278" y1="46.7620" x2="36.7818" y2="46.7620" stroke-width="0.2540" stroke="#000000" stroke-linecap="round"/>
 <line x1="36.4008" y1="46.8890" x2="36.5278" y2="46.7620" stroke-width="0.2540" stroke="#000000" stroke-linecap="round"/>
 <line x1="36.4008" y1="46.8890" x2="36.4008" y2="47.1430" stroke-width="0.2540" stroke="#000000" stroke-linecap="round"/>
 <line x1="36.4008" y1="47.1430" x2="36.5278" y2="47.2700" stroke-width="0.2540" stroke="#000000" stroke-linecap="round"/>
 <line x1="36.5278" y1="47.2700" x2="36.7818" y2="47.2700" stroke-width="0.2540" stroke="#000000" stroke-linecap="round"/>
 <line x1="36.7818" y1="47.2700" x2="36.9088" y2="47.1430" stroke-width="0.2540" stroke="#000000" stroke-linecap="round"/>
 <line x1="36.4008" y1="47.5240" x2="36.5278" y2="47.6510" stroke-width="0.2540" stroke="#000000" stroke-linecap="round"/>
 <line x1="36.5278" y1="47.6510" x2="36.7818" y2="47.6510" stroke-width="0.2540" stroke="#000000" stroke-linecap="round"/>
 <line x1="36.7818" y1="47.6510" x2="36.9088" y2="47.5240" stroke-width="0.2540" stroke="#000000" stroke-linecap="round"/>
 <line x1="36.9088" y1="46.7620" x2="36.9088" y2="47.5240" stroke-width="0.2540" stroke="#000000" stroke-linecap="round"/>
 <line x1="37.6708" y1="46.2540" x2="37.6708" y2="47.1430" stroke-width="0.2540" stroke="#000000" stroke-linecap="round"/>
 <line x1="37.6708" y1="47.1430" x2="37.7978" y2="47.2700" stroke-width="0.2540" stroke="#000000" stroke-linecap="round"/>
 <line x1="38.4328" y1="46.7620" x2="38.5598" y2="46.8890" stroke-width="0.2540" stroke="#000000" stroke-linecap="round"/>
 <line x1="38.1788" y1="46.7620" x2="38.4328" y2="46.7620" stroke-width="0.2540" stroke="#000000" stroke-linecap="round"/>
 <line x1="38.0518" y1="46.8890" x2="38.1788" y2="46.7620" stroke-width="0.2540" stroke="#000000" stroke-linecap="round"/>
 <line x1="38.0518" y1="46.8890" x2="38.0518" y2="47.1430" stroke-width="0.2540" stroke="#000000" stroke-linecap="round"/>
 <line x1="38.0518" y1="47.1430" x2="38.1788" y2="47.2700" stroke-width="0.2540" stroke="#000000" stroke-linecap="round"/>
 <line x1="38.5598" y1="46.7620" x2="38.5598" y2="47.1430" stroke-width="0.2540" stroke="#000000" stroke-linecap="round"/>
 <line x1="38.5598" y1="47.1430" x2="38.6868" y2="47.2700" stroke-width="0.2540" stroke="#000000" stroke-linecap="round"/>
 <line x1="38.1788" y1="47.2700" x2="38.4328" y2="47.2700" stroke-width="0.2540" stroke="#000000" stroke-linecap="round"/>
 <line x1="38.4328" y1="47.2700" x2="38.5598" y2="47.1430" stroke-width="0.2540" stroke="#000000" stroke-linecap="round"/>
 <line x1="38.9916" y1="46.2540" x2="38.9916" y2="47.2700" stroke-width="0.2540" stroke="#000000" stroke-linecap="round"/>
 <line x1="38.9916" y1="47.1430" x2="39.1186" y2="47.2700" stroke-width="0.2540" stroke="#000000" stroke-linecap="round"/>
 <line x1="39.1186" y1="47.2700" x2="39.3726" y2="47.2700" stroke-width="0.2540" stroke="#000000" stroke-linecap="round"/>
 <line x1="39.3726" y1="47.2700" x2="39.4996" y2="47.1430" stroke-width="0.2540" stroke="#000000" stroke-linecap="round"/>
 <line x1="39.4996" y1="46.8890" x2="39.4996" y2="47.1430" stroke-width="0.2540" stroke="#000000" stroke-linecap="round"/>
 <line x1="39.3726" y1="46.7620" x2="39.4996" y2="46.8890" stroke-width="0.2540" stroke="#000000" stroke-linecap="round"/>
 <line x1="39.1186" y1="46.7620" x2="39.3726" y2="46.7620" stroke-width="0.2540" stroke="#000000" stroke-linecap="round"/>
 <line x1="38.9916" y1="46.8890" x2="39.1186" y2="46.7620" stroke-width="0.2540" stroke="#000000" stroke-linecap="round"/>
 <line x1="39.9314" y1="47.2700" x2="40.3124" y2="47.2700" stroke-width="0.2540" stroke="#000000" stroke-linecap="round"/>
 <line x1="39.8044" y1="47.1430" x2="39.9314" y2="47.2700" stroke-width="0.2540" stroke="#000000" stroke-linecap="round"/>
 <line x1="39.8044" y1="46.8890" x2="39.8044" y2="47.1430" stroke-width="0.2540" stroke="#000000" stroke-linecap="round"/>
 <line x1="39.8044" y1="46.8890" x2="39.9314" y2="46.7620" stroke-width="0.2540" stroke="#000000" stroke-linecap="round"/>
 <line x1="39.9314" y1="46.7620" x2="40.1854" y2="46.7620" stroke-width="0.2540" stroke="#000000" stroke-linecap="round"/>
 <line x1="40.1854" y1="46.7620" x2="40.3124" y2="46.8890" stroke-width="0.2540" stroke="#000000" stroke-linecap="round"/>
 <line x1="39.8044" y1="47.0160" x2="40.3124" y2="47.0160" stroke-width="0.2540" stroke="#000000" stroke-linecap="round"/>
 <line x1="40.3124" y1="47.0160" x2="40.3124" y2="46.8890" stroke-width="0.2540" stroke="#000000" stroke-linecap="round"/>
 <line x1="40.6172" y1="46.2540" x2="40.6172" y2="47.1430" stroke-width="0.2540" stroke="#000000" stroke-linecap="round"/>
 <line x1="40.6172" y1="47.1430" x2="40.7442" y2="47.2700" stroke-width="0.2540" stroke="#000000" stroke-linecap="round"/>
 <line x1="41.1252" y1="47.2700" x2="41.5062" y2="47.2700" stroke-width="0.2540" stroke="#000000" stroke-linecap="round"/>
 <line x1="40.9982" y1="47.1430" x2="41.1252" y2="47.2700" stroke-width="0.2540" stroke="#000000" stroke-linecap="round"/>
 <line x1="40.9982" y1="46.8890" x2="40.9982" y2="47.1430" stroke-width="0.2540" stroke="#000000" stroke-linecap="round"/>
 <line x1="40.9982" y1="46.8890" x2="41.1252" y2="46.7620" stroke-width="0.2540" stroke="#000000" stroke-linecap="round"/>
 <line x1="41.1252" y1="46.7620" x2="41.3792" y2="46.7620" stroke-width="0.2540" stroke="#000000" stroke-linecap="round"/>
 <line x1="41.3792" y1="46.7620" x2="41.5062" y2="46.8890" stroke-width="0.2540" stroke="#000000" stroke-linecap="round"/>
 <line x1="40.9982" y1="47.0160" x2="41.5062" y2="47.0160" stroke-width="0.2540" stroke="#000000" stroke-linecap="round"/>
 <line x1="41.5062" y1="47.0160" x2="41.5062" y2="46.8890" stroke-width="0.2540" stroke="#000000" stroke-linecap="round"/>
 <line x1="42.3190" y1="46.2540" x2="42.3190" y2="47.2700" stroke-width="0.2540" stroke="#000000" stroke-linecap="round"/>
 <line x1="42.1920" y1="47.2700" x2="42.3190" y2="47.1430" stroke-width="0.2540" stroke="#000000" stroke-linecap="round"/>
 <line x1="41.9380" y1="47.2700" x2="42.1920" y2="47.2700" stroke-width="0.2540" stroke="#000000" stroke-linecap="round"/>
 <line x1="41.8110" y1="47.1430" x2="41.9380" y2="47.2700" stroke-width="0.2540" stroke="#000000" stroke-linecap="round"/>
 <line x1="41.8110" y1="46.8890" x2="41.8110" y2="47.1430" stroke-width="0.2540" stroke="#000000" stroke-linecap="round"/>
 <line x1="41.8110" y1="46.8890" x2="41.9380" y2="46.7620" stroke-width="0.2540" stroke="#000000" stroke-linecap="round"/>
 <line x1="41.9380" y1="46.7620" x2="42.1920" y2="46.7620" stroke-width="0.2540" stroke="#000000" stroke-linecap="round"/>
 <line x1="42.1920" y1="46.7620" x2="42.3190" y2="46.8890" stroke-width="0.2540" stroke="#000000" stroke-linecap="round"/>
</g>
</svg>
