<?xml version="1.0"?>
<svg xmlns="http://www.w3.org/2000/svg" xmlns:xlink="http://www.w3.org/1999/xlink" version="1.0" width="1280.1600" height="792.4800" viewBox="-2.0000 -2.0000 45.0050 29.7650">
<g id="layer_3_top">
<!--normal-->
 <line x1="9.5250" y1="3.1750" x2="8.2550" y2="1.9050" stroke-width="0.1016" stroke="#104e8b" stroke-linecap="round"/>
 <line x1="9.5250" y1="12.7000" x2="8.2550" y2="11.4300" stroke-width="0.1016" stroke="#104e8b" stroke-linecap="round"/>
 <line x1="10.1600" y1="3.1750" x2="11.4300" y2="1.9050" stroke-width="0.1016" stroke="#104e8b" stroke-linecap="round"/>
 <line x1="10.1600" y1="12.7000" x2="11.4300" y2="11.4300" stroke-width="0.1016" stroke="#104e8b" stroke-linecap="round"/>
 <line x1="29.8450" y1="3.1750" x2="28.5750" y2="1.9050" stroke-width="0.1016" stroke="#104e8b" stroke-linecap="round"/>
 <line x1="29.8450" y1="12.7000" x2="28.5750" y2="11.4300" stroke-width="0.1016" stroke="#104e8b" stroke-linecap="round"/>
 <line x1="30.4800" y1="10.7950" x2="31.1150" y2="11.4300" stroke-width="0.1016" stroke="#104e8b" stroke-linecap="round"/>
 <line x1="29.8450" y1="5.7150" x2="27.9400" y2="5.7150" stroke-width="0.1016" stroke="#104e8b" stroke-linecap="round"/>
 <line x1="29.8450" y1="10.7950" x2="28.5750" y2="9.5250" stroke-width="0.1016" stroke="#104e8b" stroke-linecap="round"/>
 <line x1="30.4800" y1="10.7950" x2="31.7500" y2="9.5250" stroke-width="0.1016" stroke="#104e8b" stroke-linecap="round"/>
 <line x1="30.4800" y1="5.7150" x2="31.7500" y2="6.9850" stroke-width="0.1016" stroke="#104e8b" stroke-linecap="round"/>
 <line x1="7.6200" y1="1.7272" x2="7.8232" y2="1.5240" stroke-width="0.2540" stroke="#104e8b" stroke-linecap="round"/>
 <line x1="7.8232" y1="1.5240" x2="7.8232" y2="2.5400" stroke-width="0.2540" stroke="#104e8b" stroke-linecap="round"/>
 <line x1="7.6200" y1="2.5400" x2="8.0010" y2="2.5400" stroke-width="0.2540" stroke="#104e8b" stroke-linecap="round"/>
 <line x1="6.9850" y1="11.1760" x2="7.1120" y2="11.0490" stroke-width="0.2540" stroke="#104e8b" stroke-linecap="round"/>
 <line x1="7.1120" y1="11.0490" x2="7.4930" y2="11.0490" stroke-width="0.2540" stroke="#104e8b" stroke-linecap="round"/>
 <line x1="7.4930" y1="11.0490" x2="7.6200" y2="11.1760" stroke-width="0.2540" stroke="#104e8b" stroke-linecap="round"/>
 <line x1="7.6200" y1="11.1760" x2="7.6200" y2="11.4300" stroke-width="0.2540" stroke="#104e8b" stroke-linecap="round"/>
 <line x1="6.9850" y1="12.0650" x2="7.6200" y2="11.4300" stroke-width="0.2540" stroke="#104e8b" stroke-linecap="round"/>
 <line x1="6.9850" y1="12.0650" x2="7.6200" y2="12.0650" stroke-width="0.2540" stroke="#104e8b" stroke-linecap="round"/>
 <line x1="12.0650" y1="2.1590" x2="12.5730" y2="1.5240" stroke-width="0.2540" stroke="#104e8b" stroke-linecap="round"/>
 <line x1="12.0650" y1="2.1590" x2="12.7000" y2="2.1590" stroke-width="0.2540" stroke="#104e8b" stroke-linecap="round"/>
 <line x1="12.5730" y1="1.5240" x2="12.5730" y2="2.5400" stroke-width="0.2540" stroke="#104e8b" stroke-linecap="round"/>
 <line x1="12.0650" y1="11.1760" x2="12.1920" y2="11.0490" stroke-width="0.2540" stroke="#104e8b" stroke-linecap="round"/>
 <line x1="12.1920" y1="11.0490" x2="12.4460" y2="11.0490" stroke-width="0.2540" stroke="#104e8b" stroke-linecap="round"/>
 <line x1="12.4460" y1="11.0490" x2="12.5730" y2="11.1760" stroke-width="0.2540" stroke="#104e8b" stroke-linecap="round"/>
 <line x1="12.4460" y1="12.0650" x2="12.5730" y2="11.9380" stroke-width="0.2540" stroke="#104e8b" stroke-linecap="round"/>
 <line x1="12.1920" y1="12.0650" x2="12.4460" y2="12.0650" stroke-width="0.2540" stroke="#104e8b" stroke-linecap="round"/>
 <line x1="12.0650" y1="11.9380" x2="12.1920" y2="12.0650" stroke-width="0.2540" stroke="#104e8b" stroke-linecap="round"/>
 <line x1="12.1920" y1="11.5062" x2="12.4460" y2="11.5062" stroke-width="0.2540" stroke="#104e8b" stroke-linecap="round"/>
 <line x1="12.5730" y1="11.1760" x2="12.5730" y2="11.3792" stroke-width="0.2540" stroke="#104e8b" stroke-linecap="round"/>
 <line x1="12.5730" y1="11.6332" x2="12.5730" y2="11.9380" stroke-width="0.2540" stroke="#104e8b" stroke-linecap="round"/>
 <line x1="12.5730" y1="11.6332" x2="12.4460" y2="11.5062" stroke-width="0.2540" stroke="#104e8b" stroke-linecap="round"/>
 <line x1="12.5730" y1="11.3792" x2="12.4460" y2="11.5062" stroke-width="0.2540" stroke="#104e8b" stroke-linecap="round"/>
 <line x1="27.6860" y1="11.0490" x2="27.8130" y2="11.1760" stroke-width="0.2540" stroke="#104e8b" stroke-linecap="round"/>
 <line x1="27.4320" y1="11.0490" x2="27.6860" y2="11.0490" stroke-width="0.2540" stroke="#104e8b" stroke-linecap="round"/>
 <line x1="27.3050" y1="11.1760" x2="27.4320" y2="11.0490" stroke-width="0.2540" stroke="#104e8b" stroke-linecap="round"/>
 <line x1="27.3050" y1="11.1760" x2="27.3050" y2="11.9380" stroke-width="0.2540" stroke="#104e8b" stroke-linecap="round"/>
 <line x1="27.3050" y1="11.9380" x2="27.4320" y2="12.0650" stroke-width="0.2540" stroke="#104e8b" stroke-linecap="round"/>
 <line x1="27.6860" y1="11.5062" x2="27.8130" y2="11.6332" stroke-width="0.2540" stroke="#104e8b" stroke-linecap="round"/>
 <line x1="27.3050" y1="11.5062" x2="27.6860" y2="11.5062" stroke-width="0.2540" stroke="#104e8b" stroke-linecap="round"/>
 <line x1="27.4320" y1="12.0650" x2="27.6860" y2="12.0650" stroke-width="0.2540" stroke="#104e8b" stroke-linecap="round"/>
 <line x1="27.6860" y1="12.0650" x2="27.8130" y2="11.9380" stroke-width="0.2540" stroke="#104e8b" stroke-linecap="round"/>
 <line x1="27.8130" y1="11.6332" x2="27.8130" y2="11.9380" stroke-width="0.2540" stroke="#104e8b" stroke-linecap="round"/>
 <line x1="27.4320" y1="9.5250" x2="27.8130" y2="9.0170" stroke-width="0.2540" stroke="#104e8b" stroke-linecap="round"/>
 <line x1="27.8130" y1="8.6360" x2="27.8130" y2="9.0170" stroke-width="0.2540" stroke="#104e8b" stroke-linecap="round"/>
 <line x1="27.6860" y1="8.5090" x2="27.8130" y2="8.6360" stroke-width="0.2540" stroke="#104e8b" stroke-linecap="round"/>
 <line x1="27.4320" y1="8.5090" x2="27.6860" y2="8.5090" stroke-width="0.2540" stroke="#104e8b" stroke-linecap="round"/>
 <line x1="27.3050" y1="8.6360" x2="27.4320" y2="8.5090" stroke-width="0.2540" stroke="#104e8b" stroke-linecap="round"/>
 <line x1="27.3050" y1="8.6360" x2="27.3050" y2="8.8900" stroke-width="0.2540" stroke="#104e8b" stroke-linecap="round"/>
 <line x1="27.3050" y1="8.8900" x2="27.4320" y2="9.0170" stroke-width="0.2540" stroke="#104e8b" stroke-linecap="round"/>
 <line x1="27.4320" y1="9.0170" x2="27.8130" y2="9.0170" stroke-width="0.2540" stroke="#104e8b" stroke-linecap="round"/>
 <line x1="27.3050" y1="1.5240" x2="27.8130" y2="1.5240" stroke-width="0.2540" stroke="#104e8b" stroke-linecap="round"/>
 <line x1="27.3050" y1="1.5240" x2="27.3050" y2="2.0320" stroke-width="0.2540" stroke="#104e8b" stroke-linecap="round"/>
 <line x1="27.3050" y1="2.0320" x2="27.4320" y2="1.9050" stroke-width="0.2540" stroke="#104e8b" stroke-linecap="round"/>
 <line x1="27.4320" y1="1.9050" x2="27.6860" y2="1.9050" stroke-width="0.2540" stroke="#104e8b" stroke-linecap="round"/>
 <line x1="27.6860" y1="1.9050" x2="27.8130" y2="2.0320" stroke-width="0.2540" stroke="#104e8b" stroke-linecap="round"/>
 <line x1="27.8130" y1="2.0320" x2="27.8130" y2="2.4130" stroke-width="0.2540" stroke="#104e8b" stroke-linecap="round"/>
 <line x1="27.6860" y1="2.5400" x2="27.8130" y2="2.4130" stroke-width="0.2540" stroke="#104e8b" stroke-linecap="round"/>
 <line x1="27.4320" y1="2.5400" x2="27.6860" y2="2.5400" stroke-width="0.2540" stroke="#104e8b" stroke-linecap="round"/>
 <line x1="27.3050" y1="2.4130" x2="27.4320" y2="2.5400" stroke-width="0.2540" stroke="#104e8b" stroke-linecap="round"/>
 <line x1="32.5120" y1="10.1600" x2="33.0200" y2="9.1440" stroke-width="0.2540" stroke="#104e8b" stroke-linecap="round"/>
 <line x1="32.3850" y1="9.1440" x2="33.0200" y2="9.1440" stroke-width="0.2540" stroke="#104e8b" stroke-linecap="round"/>
 <line x1="32.3850" y1="6.8580" x2="32.5120" y2="6.9850" stroke-width="0.2540" stroke="#104e8b" stroke-linecap="round"/>
 <line x1="32.3850" y1="6.6548" x2="32.3850" y2="6.8580" stroke-width="0.2540" stroke="#104e8b" stroke-linecap="round"/>
 <line x1="32.3850" y1="6.6548" x2="32.5628" y2="6.4770" stroke-width="0.2540" stroke="#104e8b" stroke-linecap="round"/>
 <line x1="32.5628" y1="6.4770" x2="32.7152" y2="6.4770" stroke-width="0.2540" stroke="#104e8b" stroke-linecap="round"/>
 <line x1="32.7152" y1="6.4770" x2="32.8930" y2="6.6548" stroke-width="0.2540" stroke="#104e8b" stroke-linecap="round"/>
 <line x1="32.8930" y1="6.6548" x2="32.8930" y2="6.8580" stroke-width="0.2540" stroke="#104e8b" stroke-linecap="round"/>
 <line x1="32.7660" y1="6.9850" x2="32.8930" y2="6.8580" stroke-width="0.2540" stroke="#104e8b" stroke-linecap="round"/>
 <line x1="32.5120" y1="6.9850" x2="32.7660" y2="6.9850" stroke-width="0.2540" stroke="#104e8b" stroke-linecap="round"/>
 <line x1="32.3850" y1="6.2992" x2="32.5628" y2="6.4770" stroke-width="0.2540" stroke="#104e8b" stroke-linecap="round"/>
 <line x1="32.3850" y1="6.0960" x2="32.3850" y2="6.2992" stroke-width="0.2540" stroke="#104e8b" stroke-linecap="round"/>
 <line x1="32.3850" y1="6.0960" x2="32.5120" y2="5.9690" stroke-width="0.2540" stroke="#104e8b" stroke-linecap="round"/>
 <line x1="32.5120" y1="5.9690" x2="32.7660" y2="5.9690" stroke-width="0.2540" stroke="#104e8b" stroke-linecap="round"/>
 <line x1="32.7660" y1="5.9690" x2="32.8930" y2="6.0960" stroke-width="0.2540" stroke="#104e8b" stroke-linecap="round"/>
 <line x1="32.8930" y1="6.0960" x2="32.8930" y2="6.2992" stroke-width="0.2540" stroke="#104e8b" stroke-linecap="round"/>
 <line x1="32.7152" y1="6.4770" x2="32.8930" y2="6.2992" stroke-width="0.2540" stroke="#104e8b" stroke-linecap="round"/>
 <line x1="26.0350" y1="4.9022" x2="26.2382" y2="4.6990" stroke-width="0.2540" stroke="#104e8b" stroke-linecap="round"/>
 <line x1="26.2382" y1="4.6990" x2="26.2382" y2="5.7150" stroke-width="0.2540" stroke="#104e8b" stroke-linecap="round"/>
 <line x1="26.0350" y1="5.7150" x2="26.4160" y2="5.7150" stroke-width="0.2540" stroke="#104e8b" stroke-linecap="round"/>
 <line x1="26.7208" y1="5.5880" x2="26.8478" y2="5.7150" stroke-width="0.2540" stroke="#104e8b" stroke-linecap="round"/>
 <line x1="26.7208" y1="4.8260" x2="26.7208" y2="5.5880" stroke-width="0.2540" stroke="#104e8b" stroke-linecap="round"/>
 <line x1="26.7208" y1="4.8260" x2="26.8478" y2="4.6990" stroke-width="0.2540" stroke="#104e8b" stroke-linecap="round"/>
 <line x1="26.8478" y1="4.6990" x2="27.1018" y2="4.6990" stroke-width="0.2540" stroke="#104e8b" stroke-linecap="round"/>
 <line x1="27.1018" y1="4.6990" x2="27.2288" y2="4.8260" stroke-width="0.2540" stroke="#104e8b" stroke-linecap="round"/>
 <line x1="27.2288" y1="4.8260" x2="27.2288" y2="5.5880" stroke-width="0.2540" stroke="#104e8b" stroke-linecap="round"/>
 <line x1="27.1018" y1="5.7150" x2="27.2288" y2="5.5880" stroke-width="0.2540" stroke="#104e8b" stroke-linecap="round"/>
 <line x1="26.8478" y1="5.7150" x2="27.1018" y2="5.7150" stroke-width="0.2540" stroke="#104e8b" stroke-linecap="round"/>
 <line x1="26.7208" y1="5.4610" x2="27.2288" y2="4.9530" stroke-width="0.2540" stroke="#104e8b" stroke-linecap="round"/>
 <line x1="1.9050" y1="3.1750" x2="1.9050" y2="20.3200" stroke-width="0.2540" stroke="#8b2323" stroke-linecap="round"/>
 <line x1="1.9050" y1="3.1750" x2="9.5250" y2="3.1750" stroke-width="0.2540" stroke="#8b2323" stroke-linecap="round"/>
 <line x1="9.5250" y1="3.1750" x2="9.5250" y2="12.7000" stroke-width="0.2540" stroke="#8b2323" stroke-linecap="round"/>
 <line x1="9.5250" y1="12.7000" x2="5.7150" y2="16.5100" stroke-width="0.2540" stroke="#8b2323" stroke-linecap="round"/>
 <line x1="5.7150" y1="16.5100" x2="13.9700" y2="16.5100" stroke-width="0.2540" stroke="#8b2323" stroke-linecap="round"/>
 <line x1="10.1600" y1="12.7000" x2="10.1600" y2="3.1750" stroke-width="0.2540" stroke="#8b2323" stroke-linecap="round"/>
 <line x1="1.9050" y1="20.3200" x2="17.7800" y2="20.3200" stroke-width="0.2540" stroke="#8b2323" stroke-linecap="round"/>
 <line x1="17.7800" y1="20.3200" x2="17.7800" y2="3.1750" stroke-width="0.2540" stroke="#8b2323" stroke-linecap="round"/>
 <line x1="13.9700" y1="16.5100" x2="10.1600" y2="12.7000" stroke-width="0.2540" stroke="#8b2323" stroke-linecap="round"/>
 <line x1="10.1600" y1="3.1750" x2="17.7800" y2="3.1750" stroke-width="0.2540" stroke="#8b2323" stroke-linecap="round"/>
 <line x1="22.2250" y1="3.1750" x2="22.2250" y2="20.3200" stroke-width="0.2540" stroke="#8b2323" stroke-linecap="round"/>
 <line x1="22.2250" y1="20.3200" x2="38.1000" y2="20.3200" stroke-width="0.2540" stroke="#8b2323" stroke-linecap="round"/>
 <line x1="38.1000" y1="20.3200" x2="38.1000" y2="3.1750" stroke-width="0.2540" stroke="#8b2323" stroke-linecap="round"/>
 <line x1="22.2250" y1="3.1750" x2="29.8450" y2="3.1750" stroke-width="0.2540" stroke="#8b2323" stroke-linecap="round"/>
 <line x1="29.8450" y1="3.1750" x2="29.8450" y2="12.7000" stroke-width="0.2540" stroke="#8b2323" stroke-linecap="round"/>
 <line x1="30.4800" y1="10.7950" x2="30.4800" y2="5.7150" stroke-width="0.2540" stroke="#8b2323" stroke-linecap="round"/>
 <line x1="30.4800" y1="5.7150" x2="33.0200" y2="3.1750" stroke-width="0.2540" stroke="#8b2323" stroke-linecap="round"/>
 <line x1="29.8450" y1="12.7000" x2="26.0350" y2="16.5100" stroke-width="0.2540" stroke="#8b2323" stroke-linecap="round"/>
 <line x1="36.1950" y1="16.5100" x2="30.4800" y2="10.7950" stroke-width="0.2540" stroke="#8b2323" stroke-linecap="round"/>
 <line x1="26.0350" y1="16.5100" x2="36.1950" y2="16.5100" stroke-width="0.2540" stroke="#8b2323" stroke-linecap="round"/>
 <line x1="33.0200" y1="3.1750" x2="38.1000" y2="3.1750" stroke-width="0.2540" stroke="#8b2323" stroke-linecap="round"/>
 <line x1="9.9060" y1="22.9870" x2="10.0330" y2="23.1140" stroke-width="0.2540" stroke="#8b2323" stroke-linecap="round"/>
 <line x1="9.6520" y1="22.9870" x2="9.9060" y2="22.9870" stroke-width="0.2540" stroke="#8b2323" stroke-linecap="round"/>
 <line x1="9.5250" y1="23.1140" x2="9.6520" y2="22.9870" stroke-width="0.2540" stroke="#8b2323" stroke-linecap="round"/>
 <line x1="9.5250" y1="23.1140" x2="9.5250" y2="23.3680" stroke-width="0.2540" stroke="#8b2323" stroke-linecap="round"/>
 <line x1="9.5250" y1="23.3680" x2="9.6520" y2="23.4950" stroke-width="0.2540" stroke="#8b2323" stroke-linecap="round"/>
 <line x1="10.0330" y1="22.9870" x2="10.0330" y2="23.3680" stroke-width="0.2540" stroke="#8b2323" stroke-linecap="round"/>
 <line x1="10.0330" y1="23.3680" x2="10.1600" y2="23.4950" stroke-width="0.2540" stroke="#8b2323" stroke-linecap="round"/>
 <line x1="9.6520" y1="23.4950" x2="9.9060" y2="23.4950" stroke-width="0.2540" stroke="#8b2323" stroke-linecap="round"/>
 <line x1="9.9060" y1="23.4950" x2="10.0330" y2="23.3680" stroke-width="0.2540" stroke="#8b2323" stroke-linecap="round"/>
 <line x1="29.8450" y1="22.4790" x2="29.8450" y2="23.4950" stroke-width="0.2540" stroke="#8b2323" stroke-linecap="round"/>
 <line x1="29.8450" y1="23.3680" x2="29.9720" y2="23.4950" stroke-width="0.2540" stroke="#8b2323" stroke-linecap="round"/>
 <line x1="29.9720" y1="23.4950" x2="30.2260" y2="23.4950" stroke-width="0.2540" stroke="#8b2323" stroke-linecap="round"/>
 <line x1="30.2260" y1="23.4950" x2="30.3530" y2="23.3680" stroke-width="0.2540" stroke="#8b2323" stroke-linecap="round"/>
 <line x1="30.3530" y1="23.1140" x2="30.3530" y2="23.3680" stroke-width="0.2540" stroke="#8b2323" stroke-linecap="round"/>
 <line x1="30.2260" y1="22.9870" x2="30.3530" y2="23.1140" stroke-width="0.2540" stroke="#8b2323" stroke-linecap="round"/>
 <line x1="29.9720" y1="22.9870" x2="30.2260" y2="22.9870" stroke-width="0.2540" stroke="#8b2323" stroke-linecap="round"/>
 <line x1="29.8450" y1="23.1140" x2="29.9720" y2="22.9870" stroke-width="0.2540" stroke="#8b2323" stroke-linecap="round"/>
</g>
</svg>
