<?xml version="1.0"?>
<svg xmlns="http://www.w3.org/2000/svg" xmlns:xlink="http://www.w3.org/1999/xlink" version="1.0" width="1564.6400" height="1198.8800" viewBox="-2.0000 -2.0000 53.8950 42.4650">
<g id="layer_3_top">
<!--normal-->
 <line x1="5.0800" y1="25.4000" x2="5.0800" y2="31.1150" stroke-width="0.2540" stroke="#548b54" stroke-linecap="round"/>
 <line x1="8.8900" y1="25.4000" x2="5.0800" y2="25.4000" stroke-width="0.2540" stroke="#548b54" stroke-linecap="round"/>
 <line x1="10.7950" y1="25.4000" x2="5.7150" y2="28.5750" stroke-width="0.2540" stroke="#548b54" stroke-linecap="round"/>
 <line x1="5.0800" y1="31.1150" x2="9.5250" y2="31.1150" stroke-width="0.2540" stroke="#548b54" stroke-linecap="round"/>
 <line x1="9.5250" y1="31.1150" x2="8.8900" y2="25.4000" stroke-width="0.2540" stroke="#548b54" stroke-linecap="round"/>
 <line x1="5.7150" y1="28.5750" x2="13.3350" y2="31.1150" stroke-width="0.2540" stroke="#548b54" stroke-linecap="round"/>
 <line x1="13.3350" y1="31.1150" x2="10.7950" y2="25.4000" stroke-width="0.2540" stroke="#548b54" stroke-linecap="round"/>
 <line x1="20.9550" y1="26.6700" x2="24.7650" y2="19.6850" stroke-width="0.2540" stroke="#548b54" stroke-linecap="round"/>
 <line x1="24.7650" y1="19.6850" x2="27.9400" y2="19.6850" stroke-width="0.2540" stroke="#548b54" stroke-linecap="round"/>
 <line x1="27.9400" y1="19.6850" x2="29.8450" y2="26.6700" stroke-width="0.2540" stroke="#548b54" stroke-linecap="round"/>
 <line x1="29.8450" y1="26.6700" x2="20.9550" y2="26.6700" stroke-width="0.2540" stroke="#548b54" stroke-linecap="round"/>
 <line x1="3.8100" y1="6.8072" x2="4.0132" y2="6.6040" stroke-width="0.2540" stroke="#104e8b" stroke-linecap="round"/>
 <line x1="4.0132" y1="6.6040" x2="4.0132" y2="7.6200" stroke-width="0.2540" stroke="#104e8b" stroke-linecap="round"/>
 <line x1="3.8100" y1="7.6200" x2="4.1910" y2="7.6200" stroke-width="0.2540" stroke="#104e8b" stroke-linecap="round"/>
 <line x1="12.7000" y1="6.7310" x2="12.8270" y2="6.6040" stroke-width="0.2540" stroke="#104e8b" stroke-linecap="round"/>
 <line x1="12.8270" y1="6.6040" x2="13.2080" y2="6.6040" stroke-width="0.2540" stroke="#104e8b" stroke-linecap="round"/>
 <line x1="13.2080" y1="6.6040" x2="13.3350" y2="6.7310" stroke-width="0.2540" stroke="#104e8b" stroke-linecap="round"/>
 <line x1="13.3350" y1="6.7310" x2="13.3350" y2="6.9850" stroke-width="0.2540" stroke="#104e8b" stroke-linecap="round"/>
 <line x1="12.7000" y1="7.6200" x2="13.3350" y2="6.9850" stroke-width="0.2540" stroke="#104e8b" stroke-linecap="round"/>
 <line x1="12.7000" y1="7.6200" x2="13.3350" y2="7.6200" stroke-width="0.2540" stroke="#104e8b" stroke-linecap="round"/>
 <line x1="5.7150" y1="25.8572" x2="5.9182" y2="25.6540" stroke-width="0.2540" stroke="#104e8b" stroke-linecap="round"/>
 <line x1="5.9182" y1="25.6540" x2="5.9182" y2="26.6700" stroke-width="0.2540" stroke="#104e8b" stroke-linecap="round"/>
 <line x1="5.7150" y1="26.6700" x2="6.0960" y2="26.6700" stroke-width="0.2540" stroke="#104e8b" stroke-linecap="round"/>
 <line x1="6.4008" y1="26.5430" x2="6.5278" y2="26.6700" stroke-width="0.2540" stroke="#104e8b" stroke-linecap="round"/>
 <line x1="6.4008" y1="25.7810" x2="6.4008" y2="26.5430" stroke-width="0.2540" stroke="#104e8b" stroke-linecap="round"/>
 <line x1="6.4008" y1="25.7810" x2="6.5278" y2="25.6540" stroke-width="0.2540" stroke="#104e8b" stroke-linecap="round"/>
 <line x1="6.5278" y1="25.6540" x2="6.7818" y2="25.6540" stroke-width="0.2540" stroke="#104e8b" stroke-linecap="round"/>
 <line x1="6.7818" y1="25.6540" x2="6.9088" y2="25.7810" stroke-width="0.2540" stroke="#104e8b" stroke-linecap="round"/>
 <line x1="6.9088" y1="25.7810" x2="6.9088" y2="26.5430" stroke-width="0.2540" stroke="#104e8b" stroke-linecap="round"/>
 <line x1="6.7818" y1="26.6700" x2="6.9088" y2="26.5430" stroke-width="0.2540" stroke="#104e8b" stroke-linecap="round"/>
 <line x1="6.5278" y1="26.6700" x2="6.7818" y2="26.6700" stroke-width="0.2540" stroke="#104e8b" stroke-linecap="round"/>
 <line x1="6.4008" y1="26.4160" x2="6.9088" y2="25.9080" stroke-width="0.2540" stroke="#104e8b" stroke-linecap="round"/>
 <line x1="19.6850" y1="4.8260" x2="19.8120" y2="4.6990" stroke-width="0.2540" stroke="#104e8b" stroke-linecap="round"/>
 <line x1="19.8120" y1="4.6990" x2="20.0660" y2="4.6990" stroke-width="0.2540" stroke="#104e8b" stroke-linecap="round"/>
 <line x1="20.0660" y1="4.6990" x2="20.1930" y2="4.8260" stroke-width="0.2540" stroke="#104e8b" stroke-linecap="round"/>
 <line x1="20.0660" y1="5.7150" x2="20.1930" y2="5.5880" stroke-width="0.2540" stroke="#104e8b" stroke-linecap="round"/>
 <line x1="19.8120" y1="5.7150" x2="20.0660" y2="5.7150" stroke-width="0.2540" stroke="#104e8b" stroke-linecap="round"/>
 <line x1="19.6850" y1="5.5880" x2="19.8120" y2="5.7150" stroke-width="0.2540" stroke="#104e8b" stroke-linecap="round"/>
 <line x1="19.8120" y1="5.1562" x2="20.0660" y2="5.1562" stroke-width="0.2540" stroke="#104e8b" stroke-linecap="round"/>
 <line x1="20.1930" y1="4.8260" x2="20.1930" y2="5.0292" stroke-width="0.2540" stroke="#104e8b" stroke-linecap="round"/>
 <line x1="20.1930" y1="5.2832" x2="20.1930" y2="5.5880" stroke-width="0.2540" stroke="#104e8b" stroke-linecap="round"/>
 <line x1="20.1930" y1="5.2832" x2="20.0660" y2="5.1562" stroke-width="0.2540" stroke="#104e8b" stroke-linecap="round"/>
 <line x1="20.1930" y1="5.0292" x2="20.0660" y2="5.1562" stroke-width="0.2540" stroke="#104e8b" stroke-linecap="round"/>
 <line x1="2.6670" y1="29.2100" x2="3.0480" y2="28.7020" stroke-width="0.2540" stroke="#104e8b" stroke-linecap="round"/>
 <line x1="3.0480" y1="28.3210" x2="3.0480" y2="28.7020" stroke-width="0.2540" stroke="#104e8b" stroke-linecap="round"/>
 <line x1="2.9210" y1="28.1940" x2="3.0480" y2="28.3210" stroke-width="0.2540" stroke="#104e8b" stroke-linecap="round"/>
 <line x1="2.6670" y1="28.1940" x2="2.9210" y2="28.1940" stroke-width="0.2540" stroke="#104e8b" stroke-linecap="round"/>
 <line x1="2.5400" y1="28.3210" x2="2.6670" y2="28.1940" stroke-width="0.2540" stroke="#104e8b" stroke-linecap="round"/>
 <line x1="2.5400" y1="28.3210" x2="2.5400" y2="28.5750" stroke-width="0.2540" stroke="#104e8b" stroke-linecap="round"/>
 <line x1="2.5400" y1="28.5750" x2="2.6670" y2="28.7020" stroke-width="0.2540" stroke="#104e8b" stroke-linecap="round"/>
 <line x1="2.6670" y1="28.7020" x2="3.0480" y2="28.7020" stroke-width="0.2540" stroke="#104e8b" stroke-linecap="round"/>
 <line x1="10.1600" y1="27.1272" x2="10.3632" y2="26.9240" stroke-width="0.2540" stroke="#104e8b" stroke-linecap="round"/>
 <line x1="10.3632" y1="26.9240" x2="10.3632" y2="27.9400" stroke-width="0.2540" stroke="#104e8b" stroke-linecap="round"/>
 <line x1="10.1600" y1="27.9400" x2="10.5410" y2="27.9400" stroke-width="0.2540" stroke="#104e8b" stroke-linecap="round"/>
 <line x1="10.8458" y1="27.1272" x2="11.0490" y2="26.9240" stroke-width="0.2540" stroke="#104e8b" stroke-linecap="round"/>
 <line x1="11.0490" y1="26.9240" x2="11.0490" y2="27.9400" stroke-width="0.2540" stroke="#104e8b" stroke-linecap="round"/>
 <line x1="10.8458" y1="27.9400" x2="11.2268" y2="27.9400" stroke-width="0.2540" stroke="#104e8b" stroke-linecap="round"/>
 <line x1="7.6200" y1="28.3972" x2="7.8232" y2="28.1940" stroke-width="0.2540" stroke="#104e8b" stroke-linecap="round"/>
 <line x1="7.8232" y1="28.1940" x2="7.8232" y2="29.2100" stroke-width="0.2540" stroke="#104e8b" stroke-linecap="round"/>
 <line x1="7.6200" y1="29.2100" x2="8.0010" y2="29.2100" stroke-width="0.2540" stroke="#104e8b" stroke-linecap="round"/>
 <line x1="8.3058" y1="28.3210" x2="8.4328" y2="28.1940" stroke-width="0.2540" stroke="#104e8b" stroke-linecap="round"/>
 <line x1="8.4328" y1="28.1940" x2="8.8138" y2="28.1940" stroke-width="0.2540" stroke="#104e8b" stroke-linecap="round"/>
 <line x1="8.8138" y1="28.1940" x2="8.9408" y2="28.3210" stroke-width="0.2540" stroke="#104e8b" stroke-linecap="round"/>
 <line x1="8.9408" y1="28.3210" x2="8.9408" y2="28.5750" stroke-width="0.2540" stroke="#104e8b" stroke-linecap="round"/>
 <line x1="8.3058" y1="29.2100" x2="8.9408" y2="28.5750" stroke-width="0.2540" stroke="#104e8b" stroke-linecap="round"/>
 <line x1="8.3058" y1="29.2100" x2="8.9408" y2="29.2100" stroke-width="0.2540" stroke="#104e8b" stroke-linecap="round"/>
 <line x1="25.4000" y1="6.6040" x2="25.9080" y2="5.9690" stroke-width="0.2540" stroke="#104e8b" stroke-linecap="round"/>
 <line x1="25.4000" y1="6.6040" x2="26.0350" y2="6.6040" stroke-width="0.2540" stroke="#104e8b" stroke-linecap="round"/>
 <line x1="25.9080" y1="5.9690" x2="25.9080" y2="6.9850" stroke-width="0.2540" stroke="#104e8b" stroke-linecap="round"/>
 <line x1="37.8460" y1="4.0640" x2="37.9730" y2="4.1910" stroke-width="0.2540" stroke="#104e8b" stroke-linecap="round"/>
 <line x1="37.5920" y1="4.0640" x2="37.8460" y2="4.0640" stroke-width="0.2540" stroke="#104e8b" stroke-linecap="round"/>
 <line x1="37.4650" y1="4.1910" x2="37.5920" y2="4.0640" stroke-width="0.2540" stroke="#104e8b" stroke-linecap="round"/>
 <line x1="37.4650" y1="4.1910" x2="37.4650" y2="4.9530" stroke-width="0.2540" stroke="#104e8b" stroke-linecap="round"/>
 <line x1="37.4650" y1="4.9530" x2="37.5920" y2="5.0800" stroke-width="0.2540" stroke="#104e8b" stroke-linecap="round"/>
 <line x1="37.8460" y1="4.5212" x2="37.9730" y2="4.6482" stroke-width="0.2540" stroke="#104e8b" stroke-linecap="round"/>
 <line x1="37.4650" y1="4.5212" x2="37.8460" y2="4.5212" stroke-width="0.2540" stroke="#104e8b" stroke-linecap="round"/>
 <line x1="37.5920" y1="5.0800" x2="37.8460" y2="5.0800" stroke-width="0.2540" stroke="#104e8b" stroke-linecap="round"/>
 <line x1="37.8460" y1="5.0800" x2="37.9730" y2="4.9530" stroke-width="0.2540" stroke="#104e8b" stroke-linecap="round"/>
 <line x1="37.9730" y1="4.6482" x2="37.9730" y2="4.9530" stroke-width="0.2540" stroke="#104e8b" stroke-linecap="round"/>
 <line x1="39.4970" y1="8.8900" x2="40.0050" y2="7.8740" stroke-width="0.2540" stroke="#104e8b" stroke-linecap="round"/>
 <line x1="39.3700" y1="7.8740" x2="40.0050" y2="7.8740" stroke-width="0.2540" stroke="#104e8b" stroke-linecap="round"/>
 <line x1="43.1800" y1="10.6680" x2="43.3070" y2="10.7950" stroke-width="0.2540" stroke="#104e8b" stroke-linecap="round"/>
 <line x1="43.1800" y1="10.4648" x2="43.1800" y2="10.6680" stroke-width="0.2540" stroke="#104e8b" stroke-linecap="round"/>
 <line x1="43.1800" y1="10.4648" x2="43.3578" y2="10.2870" stroke-width="0.2540" stroke="#104e8b" stroke-linecap="round"/>
 <line x1="43.3578" y1="10.2870" x2="43.5102" y2="10.2870" stroke-width="0.2540" stroke="#104e8b" stroke-linecap="round"/>
 <line x1="43.5102" y1="10.2870" x2="43.6880" y2="10.4648" stroke-width="0.2540" stroke="#104e8b" stroke-linecap="round"/>
 <line x1="43.6880" y1="10.4648" x2="43.6880" y2="10.6680" stroke-width="0.2540" stroke="#104e8b" stroke-linecap="round"/>
 <line x1="43.5610" y1="10.7950" x2="43.6880" y2="10.6680" stroke-width="0.2540" stroke="#104e8b" stroke-linecap="round"/>
 <line x1="43.3070" y1="10.7950" x2="43.5610" y2="10.7950" stroke-width="0.2540" stroke="#104e8b" stroke-linecap="round"/>
 <line x1="43.1800" y1="10.1092" x2="43.3578" y2="10.2870" stroke-width="0.2540" stroke="#104e8b" stroke-linecap="round"/>
 <line x1="43.1800" y1="9.9060" x2="43.1800" y2="10.1092" stroke-width="0.2540" stroke="#104e8b" stroke-linecap="round"/>
 <line x1="43.1800" y1="9.9060" x2="43.3070" y2="9.7790" stroke-width="0.2540" stroke="#104e8b" stroke-linecap="round"/>
 <line x1="43.3070" y1="9.7790" x2="43.5610" y2="9.7790" stroke-width="0.2540" stroke="#104e8b" stroke-linecap="round"/>
 <line x1="43.5610" y1="9.7790" x2="43.6880" y2="9.9060" stroke-width="0.2540" stroke="#104e8b" stroke-linecap="round"/>
 <line x1="43.6880" y1="9.9060" x2="43.6880" y2="10.1092" stroke-width="0.2540" stroke="#104e8b" stroke-linecap="round"/>
 <line x1="43.5102" y1="10.2870" x2="43.6880" y2="10.1092" stroke-width="0.2540" stroke="#104e8b" stroke-linecap="round"/>
 <line x1="22.4790" y1="8.6360" x2="22.9870" y2="8.6360" stroke-width="0.2540" stroke="#104e8b" stroke-linecap="round"/>
 <line x1="22.4790" y1="8.6360" x2="22.4790" y2="9.1440" stroke-width="0.2540" stroke="#104e8b" stroke-linecap="round"/>
 <line x1="22.4790" y1="9.1440" x2="22.6060" y2="9.0170" stroke-width="0.2540" stroke="#104e8b" stroke-linecap="round"/>
 <line x1="22.6060" y1="9.0170" x2="22.8600" y2="9.0170" stroke-width="0.2540" stroke="#104e8b" stroke-linecap="round"/>
 <line x1="22.8600" y1="9.0170" x2="22.9870" y2="9.1440" stroke-width="0.2540" stroke="#104e8b" stroke-linecap="round"/>
 <line x1="22.9870" y1="9.1440" x2="22.9870" y2="9.5250" stroke-width="0.2540" stroke="#104e8b" stroke-linecap="round"/>
 <line x1="22.8600" y1="9.6520" x2="22.9870" y2="9.5250" stroke-width="0.2540" stroke="#104e8b" stroke-linecap="round"/>
 <line x1="22.6060" y1="9.6520" x2="22.8600" y2="9.6520" stroke-width="0.2540" stroke="#104e8b" stroke-linecap="round"/>
 <line x1="22.4790" y1="9.5250" x2="22.6060" y2="9.6520" stroke-width="0.2540" stroke="#104e8b" stroke-linecap="round"/>
 <line x1="19.0500" y1="31.5722" x2="19.2532" y2="31.3690" stroke-width="0.2540" stroke="#104e8b" stroke-linecap="round"/>
 <line x1="19.2532" y1="31.3690" x2="19.2532" y2="32.3850" stroke-width="0.2540" stroke="#104e8b" stroke-linecap="round"/>
 <line x1="19.0500" y1="32.3850" x2="19.4310" y2="32.3850" stroke-width="0.2540" stroke="#104e8b" stroke-linecap="round"/>
 <line x1="19.7358" y1="31.4960" x2="19.8628" y2="31.3690" stroke-width="0.2540" stroke="#104e8b" stroke-linecap="round"/>
 <line x1="19.8628" y1="31.3690" x2="20.1168" y2="31.3690" stroke-width="0.2540" stroke="#104e8b" stroke-linecap="round"/>
 <line x1="20.1168" y1="31.3690" x2="20.2438" y2="31.4960" stroke-width="0.2540" stroke="#104e8b" stroke-linecap="round"/>
 <line x1="20.1168" y1="32.3850" x2="20.2438" y2="32.2580" stroke-width="0.2540" stroke="#104e8b" stroke-linecap="round"/>
 <line x1="19.8628" y1="32.3850" x2="20.1168" y2="32.3850" stroke-width="0.2540" stroke="#104e8b" stroke-linecap="round"/>
 <line x1="19.7358" y1="32.2580" x2="19.8628" y2="32.3850" stroke-width="0.2540" stroke="#104e8b" stroke-linecap="round"/>
 <line x1="19.8628" y1="31.8262" x2="20.1168" y2="31.8262" stroke-width="0.2540" stroke="#104e8b" stroke-linecap="round"/>
 <line x1="20.2438" y1="31.4960" x2="20.2438" y2="31.6992" stroke-width="0.2540" stroke="#104e8b" stroke-linecap="round"/>
 <line x1="20.2438" y1="31.9532" x2="20.2438" y2="32.2580" stroke-width="0.2540" stroke="#104e8b" stroke-linecap="round"/>
 <line x1="20.2438" y1="31.9532" x2="20.1168" y2="31.8262" stroke-width="0.2540" stroke="#104e8b" stroke-linecap="round"/>
 <line x1="20.2438" y1="31.6992" x2="20.1168" y2="31.8262" stroke-width="0.2540" stroke="#104e8b" stroke-linecap="round"/>
 <line x1="39.3700" y1="29.6672" x2="39.5732" y2="29.4640" stroke-width="0.2540" stroke="#104e8b" stroke-linecap="round"/>
 <line x1="39.5732" y1="29.4640" x2="39.5732" y2="30.4800" stroke-width="0.2540" stroke="#104e8b" stroke-linecap="round"/>
 <line x1="39.3700" y1="30.4800" x2="39.7510" y2="30.4800" stroke-width="0.2540" stroke="#104e8b" stroke-linecap="round"/>
 <line x1="40.1828" y1="30.4800" x2="40.6908" y2="29.4640" stroke-width="0.2540" stroke="#104e8b" stroke-linecap="round"/>
 <line x1="40.0558" y1="29.4640" x2="40.6908" y2="29.4640" stroke-width="0.2540" stroke="#104e8b" stroke-linecap="round"/>
 <line x1="25.4000" y1="25.2222" x2="25.6032" y2="25.0190" stroke-width="0.2540" stroke="#104e8b" stroke-linecap="round"/>
 <line x1="25.6032" y1="25.0190" x2="25.6032" y2="26.0350" stroke-width="0.2540" stroke="#104e8b" stroke-linecap="round"/>
 <line x1="25.4000" y1="26.0350" x2="25.7810" y2="26.0350" stroke-width="0.2540" stroke="#104e8b" stroke-linecap="round"/>
 <line x1="26.0858" y1="25.6540" x2="26.5938" y2="25.0190" stroke-width="0.2540" stroke="#104e8b" stroke-linecap="round"/>
 <line x1="26.0858" y1="25.6540" x2="26.7208" y2="25.6540" stroke-width="0.2540" stroke="#104e8b" stroke-linecap="round"/>
 <line x1="26.5938" y1="25.0190" x2="26.5938" y2="26.0350" stroke-width="0.2540" stroke="#104e8b" stroke-linecap="round"/>
 <line x1="26.0350" y1="22.0472" x2="26.2382" y2="21.8440" stroke-width="0.2540" stroke="#104e8b" stroke-linecap="round"/>
 <line x1="26.2382" y1="21.8440" x2="26.2382" y2="22.8600" stroke-width="0.2540" stroke="#104e8b" stroke-linecap="round"/>
 <line x1="26.0350" y1="22.8600" x2="26.4160" y2="22.8600" stroke-width="0.2540" stroke="#104e8b" stroke-linecap="round"/>
 <line x1="26.7208" y1="21.8440" x2="27.2288" y2="21.8440" stroke-width="0.2540" stroke="#104e8b" stroke-linecap="round"/>
 <line x1="26.7208" y1="21.8440" x2="26.7208" y2="22.3520" stroke-width="0.2540" stroke="#104e8b" stroke-linecap="round"/>
 <line x1="26.7208" y1="22.3520" x2="26.8478" y2="22.2250" stroke-width="0.2540" stroke="#104e8b" stroke-linecap="round"/>
 <line x1="26.8478" y1="22.2250" x2="27.1018" y2="22.2250" stroke-width="0.2540" stroke="#104e8b" stroke-linecap="round"/>
 <line x1="27.1018" y1="22.2250" x2="27.2288" y2="22.3520" stroke-width="0.2540" stroke="#104e8b" stroke-linecap="round"/>
 <line x1="27.2288" y1="22.3520" x2="27.2288" y2="22.7330" stroke-width="0.2540" stroke="#104e8b" stroke-linecap="round"/>
 <line x1="27.1018" y1="22.8600" x2="27.2288" y2="22.7330" stroke-width="0.2540" stroke="#104e8b" stroke-linecap="round"/>
 <line x1="26.8478" y1="22.8600" x2="27.1018" y2="22.8600" stroke-width="0.2540" stroke="#104e8b" stroke-linecap="round"/>
 <line x1="26.7208" y1="22.7330" x2="26.8478" y2="22.8600" stroke-width="0.2540" stroke="#104e8b" stroke-linecap="round"/>
 <line x1="34.2900" y1="25.8572" x2="34.4932" y2="25.6540" stroke-width="0.2540" stroke="#104e8b" stroke-linecap="round"/>
 <line x1="34.4932" y1="25.6540" x2="34.4932" y2="26.6700" stroke-width="0.2540" stroke="#104e8b" stroke-linecap="round"/>
 <line x1="34.2900" y1="26.6700" x2="34.6710" y2="26.6700" stroke-width="0.2540" stroke="#104e8b" stroke-linecap="round"/>
 <line x1="35.3568" y1="25.6540" x2="35.4838" y2="25.7810" stroke-width="0.2540" stroke="#104e8b" stroke-linecap="round"/>
 <line x1="35.1028" y1="25.6540" x2="35.3568" y2="25.6540" stroke-width="0.2540" stroke="#104e8b" stroke-linecap="round"/>
 <line x1="34.9758" y1="25.7810" x2="35.1028" y2="25.6540" stroke-width="0.2540" stroke="#104e8b" stroke-linecap="round"/>
 <line x1="34.9758" y1="25.7810" x2="34.9758" y2="26.5430" stroke-width="0.2540" stroke="#104e8b" stroke-linecap="round"/>
 <line x1="34.9758" y1="26.5430" x2="35.1028" y2="26.6700" stroke-width="0.2540" stroke="#104e8b" stroke-linecap="round"/>
 <line x1="35.3568" y1="26.1112" x2="35.4838" y2="26.2382" stroke-width="0.2540" stroke="#104e8b" stroke-linecap="round"/>
 <line x1="34.9758" y1="26.1112" x2="35.3568" y2="26.1112" stroke-width="0.2540" stroke="#104e8b" stroke-linecap="round"/>
 <line x1="35.1028" y1="26.6700" x2="35.3568" y2="26.6700" stroke-width="0.2540" stroke="#104e8b" stroke-linecap="round"/>
 <line x1="35.3568" y1="26.6700" x2="35.4838" y2="26.5430" stroke-width="0.2540" stroke="#104e8b" stroke-linecap="round"/>
 <line x1="35.4838" y1="26.2382" x2="35.4838" y2="26.5430" stroke-width="0.2540" stroke="#104e8b" stroke-linecap="round"/>
 <line x1="1.9050" y1="1.9050" x2="1.9050" y2="12.7000" stroke-width="0.2540" stroke="#8b2323" stroke-linecap="round"/>
 <line x1="1.9050" y1="12.7000" x2="15.2400" y2="1.9050" stroke-width="0.2540" stroke="#8b2323" stroke-linecap="round"/>
 <line x1="15.2400" y1="1.9050" x2="15.2400" y2="12.7000" stroke-width="0.2540" stroke="#8b2323" stroke-linecap="round"/>
 <line x1="15.2400" y1="12.7000" x2="1.9050" y2="1.9050" stroke-width="0.2540" stroke="#8b2323" stroke-linecap="round"/>
 <line x1="1.9050" y1="23.4950" x2="15.2400" y2="23.4950" stroke-width="0.2540" stroke="#8b2323" stroke-linecap="round"/>
 <line x1="15.2400" y1="23.4950" x2="15.2400" y2="33.0200" stroke-width="0.2540" stroke="#8b2323" stroke-linecap="round"/>
 <line x1="15.2400" y1="33.0200" x2="1.9050" y2="33.0200" stroke-width="0.2540" stroke="#8b2323" stroke-linecap="round"/>
 <line x1="1.9050" y1="33.0200" x2="1.9050" y2="23.4950" stroke-width="0.2540" stroke="#8b2323" stroke-linecap="round"/>
 <line x1="17.7800" y1="1.9050" x2="17.7800" y2="13.3350" stroke-width="0.2540" stroke="#8b2323" stroke-linecap="round"/>
 <line x1="17.7800" y1="13.3350" x2="23.4950" y2="13.3350" stroke-width="0.2540" stroke="#8b2323" stroke-linecap="round"/>
 <line x1="28.5750" y1="13.3350" x2="31.1150" y2="13.3350" stroke-width="0.2540" stroke="#8b2323" stroke-linecap="round"/>
 <line x1="17.7800" y1="23.4950" x2="31.1150" y2="23.4950" stroke-width="0.2540" stroke="#8b2323" stroke-linecap="round"/>
 <line x1="31.1150" y1="23.4950" x2="31.1150" y2="33.0200" stroke-width="0.2540" stroke="#8b2323" stroke-linecap="round"/>
 <line x1="31.1150" y1="33.0200" x2="17.7800" y2="33.0200" stroke-width="0.2540" stroke="#8b2323" stroke-linecap="round"/>
 <line x1="17.7800" y1="33.0200" x2="17.7800" y2="23.4950" stroke-width="0.2540" stroke="#8b2323" stroke-linecap="round"/>
 <line x1="33.0200" y1="23.4950" x2="33.0200" y2="33.0200" stroke-width="0.2540" stroke="#8b2323" stroke-linecap="round"/>
 <line x1="33.0200" y1="33.0200" x2="45.7200" y2="33.0200" stroke-width="0.2540" stroke="#8b2323" stroke-linecap="round"/>
 <line x1="45.7200" y1="33.0200" x2="45.7200" y2="23.4950" stroke-width="0.2540" stroke="#8b2323" stroke-linecap="round"/>
 <line x1="38.7350" y1="23.4950" x2="38.7350" y2="26.6700" stroke-width="0.2540" stroke="#8b2323" stroke-linecap="round"/>
 <line x1="33.0200" y1="23.4950" x2="45.7200" y2="23.4950" stroke-width="0.2540" stroke="#8b2323" stroke-linecap="round"/>
 <line x1="38.7350" y1="26.6700" x2="36.1950" y2="29.8450" stroke-width="0.2540" stroke="#8b2323" stroke-linecap="round"/>
 <line x1="36.1950" y1="29.8450" x2="40.0050" y2="32.3850" stroke-width="0.2540" stroke="#8b2323" stroke-linecap="round"/>
 <line x1="40.0050" y1="32.3850" x2="43.1800" y2="27.9400" stroke-width="0.2540" stroke="#8b2323" stroke-linecap="round"/>
 <line x1="43.1800" y1="27.9400" x2="38.7350" y2="26.6700" stroke-width="0.2540" stroke="#8b2323" stroke-linecap="round"/>
 <line x1="23.4950" y1="13.3350" x2="23.4950" y2="5.0800" stroke-width="0.2540" stroke="#8b2323" stroke-linecap="round"/>
 <line x1="23.4950" y1="5.0800" x2="28.5750" y2="5.0800" stroke-width="0.2540" stroke="#8b2323" stroke-linecap="round"/>
 <line x1="28.5750" y1="6.9850" x2="20.3200" y2="8.8900" stroke-width="0.2540" stroke="#8b2323" stroke-linecap="round"/>
 <line x1="31.1150" y1="1.9050" x2="17.7800" y2="1.9050" stroke-width="0.2540" stroke="#8b2323" stroke-linecap="round"/>
 <line x1="28.5750" y1="5.0800" x2="28.5750" y2="6.9850" stroke-width="0.2540" stroke="#8b2323" stroke-linecap="round"/>
 <line x1="20.3200" y1="8.8900" x2="28.5750" y2="13.3350" stroke-width="0.2540" stroke="#8b2323" stroke-linecap="round"/>
 <line x1="31.1150" y1="13.3350" x2="31.1150" y2="1.9050" stroke-width="0.2540" stroke="#8b2323" stroke-linecap="round"/>
 <line x1="36.1950" y1="2.5400" x2="36.1950" y2="13.9700" stroke-width="0.2540" stroke="#8b2323" stroke-linecap="round"/>
 <line x1="36.1950" y1="13.9700" x2="45.0850" y2="2.5400" stroke-width="0.2540" stroke="#8b2323" stroke-linecap="round"/>
 <line x1="45.0850" y1="2.5400" x2="36.1950" y2="2.5400" stroke-width="0.2540" stroke="#8b2323" stroke-linecap="round"/>
 <line x1="38.1000" y1="6.9850" x2="42.5450" y2="13.9700" stroke-width="0.2540" stroke="#8b2323" stroke-linecap="round"/>
 <line x1="42.5450" y1="13.9700" x2="46.9900" y2="6.9850" stroke-width="0.2540" stroke="#8b2323" stroke-linecap="round"/>
 <line x1="46.9900" y1="6.9850" x2="38.1000" y2="6.9850" stroke-width="0.2540" stroke="#8b2323" stroke-linecap="round"/>
 <line x1="8.6360" y1="16.0020" x2="8.7630" y2="16.1290" stroke-width="0.2540" stroke="#8b2323" stroke-linecap="round"/>
 <line x1="8.3820" y1="16.0020" x2="8.6360" y2="16.0020" stroke-width="0.2540" stroke="#8b2323" stroke-linecap="round"/>
 <line x1="8.2550" y1="16.1290" x2="8.3820" y2="16.0020" stroke-width="0.2540" stroke="#8b2323" stroke-linecap="round"/>
 <line x1="8.2550" y1="16.1290" x2="8.2550" y2="16.3830" stroke-width="0.2540" stroke="#8b2323" stroke-linecap="round"/>
 <line x1="8.2550" y1="16.3830" x2="8.3820" y2="16.5100" stroke-width="0.2540" stroke="#8b2323" stroke-linecap="round"/>
 <line x1="8.7630" y1="16.0020" x2="8.7630" y2="16.3830" stroke-width="0.2540" stroke="#8b2323" stroke-linecap="round"/>
 <line x1="8.7630" y1="16.3830" x2="8.8900" y2="16.5100" stroke-width="0.2540" stroke="#8b2323" stroke-linecap="round"/>
 <line x1="8.3820" y1="16.5100" x2="8.6360" y2="16.5100" stroke-width="0.2540" stroke="#8b2323" stroke-linecap="round"/>
 <line x1="8.6360" y1="16.5100" x2="8.7630" y2="16.3830" stroke-width="0.2540" stroke="#8b2323" stroke-linecap="round"/>
 <line x1="8.7630" y1="34.5440" x2="8.7630" y2="35.5600" stroke-width="0.2540" stroke="#8b2323" stroke-linecap="round"/>
 <line x1="8.6360" y1="35.5600" x2="8.7630" y2="35.4330" stroke-width="0.2540" stroke="#8b2323" stroke-linecap="round"/>
 <line x1="8.3820" y1="35.5600" x2="8.6360" y2="35.5600" stroke-width="0.2540" stroke="#8b2323" stroke-linecap="round"/>
 <line x1="8.2550" y1="35.4330" x2="8.3820" y2="35.5600" stroke-width="0.2540" stroke="#8b2323" stroke-linecap="round"/>
 <line x1="8.2550" y1="35.1790" x2="8.2550" y2="35.4330" stroke-width="0.2540" stroke="#8b2323" stroke-linecap="round"/>
 <line x1="8.2550" y1="35.1790" x2="8.3820" y2="35.0520" stroke-width="0.2540" stroke="#8b2323" stroke-linecap="round"/>
 <line x1="8.3820" y1="35.0520" x2="8.6360" y2="35.0520" stroke-width="0.2540" stroke="#8b2323" stroke-linecap="round"/>
 <line x1="8.6360" y1="35.0520" x2="8.7630" y2="35.1790" stroke-width="0.2540" stroke="#8b2323" stroke-linecap="round"/>
 <line x1="24.7650" y1="15.4940" x2="24.7650" y2="16.5100" stroke-width="0.2540" stroke="#8b2323" stroke-linecap="round"/>
 <line x1="24.7650" y1="16.3830" x2="24.8920" y2="16.5100" stroke-width="0.2540" stroke="#8b2323" stroke-linecap="round"/>
 <line x1="24.8920" y1="16.5100" x2="25.1460" y2="16.5100" stroke-width="0.2540" stroke="#8b2323" stroke-linecap="round"/>
 <line x1="25.1460" y1="16.5100" x2="25.2730" y2="16.3830" stroke-width="0.2540" stroke="#8b2323" stroke-linecap="round"/>
 <line x1="25.2730" y1="16.1290" x2="25.2730" y2="16.3830" stroke-width="0.2540" stroke="#8b2323" stroke-linecap="round"/>
 <line x1="25.1460" y1="16.0020" x2="25.2730" y2="16.1290" stroke-width="0.2540" stroke="#8b2323" stroke-linecap="round"/>
 <line x1="24.8920" y1="16.0020" x2="25.1460" y2="16.0020" stroke-width="0.2540" stroke="#8b2323" stroke-linecap="round"/>
 <line x1="24.7650" y1="16.1290" x2="24.8920" y2="16.0020" stroke-width="0.2540" stroke="#8b2323" stroke-linecap="round"/>
 <line x1="24.8920" y1="35.5600" x2="25.2730" y2="35.5600" stroke-width="0.2540" stroke="#8b2323" stroke-linecap="round"/>
 <line x1="24.7650" y1="35.4330" x2="24.8920" y2="35.5600" stroke-width="0.2540" stroke="#8b2323" stroke-linecap="round"/>
 <line x1="24.7650" y1="35.1790" x2="24.7650" y2="35.4330" stroke-width="0.2540" stroke="#8b2323" stroke-linecap="round"/>
 <line x1="24.7650" y1="35.1790" x2="24.8920" y2="35.0520" stroke-width="0.2540" stroke="#8b2323" stroke-linecap="round"/>
 <line x1="24.8920" y1="35.0520" x2="25.1460" y2="35.0520" stroke-width="0.2540" stroke="#8b2323" stroke-linecap="round"/>
 <line x1="25.1460" y1="35.0520" x2="25.2730" y2="35.1790" stroke-width="0.2540" stroke="#8b2323" stroke-linecap="round"/>
 <line x1="24.7650" y1="35.3060" x2="25.2730" y2="35.3060" stroke-width="0.2540" stroke="#8b2323" stroke-linecap="round"/>
 <line x1="25.2730" y1="35.3060" x2="25.2730" y2="35.1790" stroke-width="0.2540" stroke="#8b2323" stroke-linecap="round"/>
 <line x1="39.4970" y1="16.6370" x2="39.8780" y2="16.6370" stroke-width="0.2540" stroke="#8b2323" stroke-linecap="round"/>
 <line x1="39.3700" y1="16.7640" x2="39.4970" y2="16.6370" stroke-width="0.2540" stroke="#8b2323" stroke-linecap="round"/>
 <line x1="39.3700" y1="16.7640" x2="39.3700" y2="17.0180" stroke-width="0.2540" stroke="#8b2323" stroke-linecap="round"/>
 <line x1="39.3700" y1="17.0180" x2="39.4970" y2="17.1450" stroke-width="0.2540" stroke="#8b2323" stroke-linecap="round"/>
 <line x1="39.4970" y1="17.1450" x2="39.8780" y2="17.1450" stroke-width="0.2540" stroke="#8b2323" stroke-linecap="round"/>
 <line x1="39.4970" y1="35.3060" x2="39.4970" y2="36.1950" stroke-width="0.2540" stroke="#8b2323" stroke-linecap="round"/>
 <line x1="39.4970" y1="35.3060" x2="39.6240" y2="35.1790" stroke-width="0.2540" stroke="#8b2323" stroke-linecap="round"/>
 <line x1="39.6240" y1="35.1790" x2="39.7510" y2="35.1790" stroke-width="0.2540" stroke="#8b2323" stroke-linecap="round"/>
 <line x1="39.3700" y1="35.6870" x2="39.6240" y2="35.6870" stroke-width="0.2540" stroke="#8b2323" stroke-linecap="round"/>
</g>
</svg>
