<?xml version="1.0"?>
<svg xmlns="http://www.w3.org/2000/svg" xmlns:xlink="http://www.w3.org/1999/xlink" version="1.0" width="1408.0000" height="736.0000" viewBox="-2.0000 -2.0000 27.0000 16.5000">
<g id="layer_3_top-fab" opacity="0.66">
<!--normal-->
 <polygon points="11.0000,0.5000 21.0000,5.5000 1.0000,5.5000 " stroke-width="0.010" stroke="#ff0000" fill="#ff0000"/>
</g>
<g id="layer_4_top" opacity="0.66">
<!--normal-->
 <polygon points="11.0000,0.5000 21.0000,5.5000 1.0000,5.5000 " stroke-width="0.010" stroke="#00ff00" fill="#00ff00"/>
</g>
<g id="layer_5_top" opacity="0.66">
</g>
<g id="layer_6_top" opacity="0.66">
</g>
<g id="layer_7_top" opacity="0.66">
<!--normal-->
 <polygon points="16.0000,6.5000 16.0000,4.5000 21.0000,5.5000 " stroke-width="0.010" stroke="#000000" fill="#000000"/>
 <line x1="1.0000" y1="5.5000" x2="19.0000" y2="5.5000" stroke-width="0.2540" stroke="#000000" stroke-linecap="round"/>
 <line x1="9.5000" y1="3.0080" x2="9.5000" y2="3.7700" stroke-width="0.2540" stroke="#000000" stroke-linecap="round"/>
 <line x1="9.5000" y1="3.0080" x2="9.6778" y2="2.7540" stroke-width="0.2540" stroke="#000000" stroke-linecap="round"/>
 <line x1="9.6778" y1="2.7540" x2="9.9572" y2="2.7540" stroke-width="0.2540" stroke="#000000" stroke-linecap="round"/>
 <line x1="9.9572" y1="2.7540" x2="10.1350" y2="3.0080" stroke-width="0.2540" stroke="#000000" stroke-linecap="round"/>
 <line x1="10.1350" y1="3.0080" x2="10.1350" y2="3.7700" stroke-width="0.2540" stroke="#000000" stroke-linecap="round"/>
 <line x1="9.5000" y1="3.2620" x2="10.1350" y2="3.2620" stroke-width="0.2540" stroke="#000000" stroke-linecap="round"/>
 <line x1="10.8970" y1="3.6430" x2="11.0240" y2="3.7700" stroke-width="0.2540" stroke="#000000" stroke-linecap="round"/>
 <line x1="10.8970" y1="2.8810" x2="10.8970" y2="3.1350" stroke-width="0.2540" stroke="#000000" stroke-linecap="round"/>
 <line x1="10.8970" y1="2.8810" x2="11.0240" y2="2.7540" stroke-width="0.2540" stroke="#000000" stroke-linecap="round"/>
 <line x1="10.8970" y1="3.3890" x2="11.2780" y2="3.0080" stroke-width="0.2540" stroke="#000000" stroke-linecap="round"/>
 <line x1="11.0240" y1="3.7700" x2="11.1510" y2="3.7700" stroke-width="0.2540" stroke="#000000" stroke-linecap="round"/>
 <line x1="11.1510" y1="3.7700" x2="11.4050" y2="3.5160" stroke-width="0.2540" stroke="#000000" stroke-linecap="round"/>
 <line x1="10.8970" y1="3.1350" x2="11.5320" y2="3.7700" stroke-width="0.2540" stroke="#000000" stroke-linecap="round"/>
 <line x1="11.0240" y1="2.7540" x2="11.1510" y2="2.7540" stroke-width="0.2540" stroke="#000000" stroke-linecap="round"/>
 <line x1="11.1510" y1="2.7540" x2="11.2780" y2="2.8810" stroke-width="0.2540" stroke="#000000" stroke-linecap="round"/>
 <line x1="11.2780" y1="2.8810" x2="11.2780" y2="3.0080" stroke-width="0.2540" stroke="#000000" stroke-linecap="round"/>
 <line x1="10.8970" y1="3.3890" x2="10.8970" y2="3.6430" stroke-width="0.2540" stroke="#000000" stroke-linecap="round"/>
 <line x1="12.2940" y1="3.7700" x2="12.8020" y2="3.7700" stroke-width="0.2540" stroke="#000000" stroke-linecap="round"/>
 <line x1="12.8020" y1="3.7700" x2="12.9290" y2="3.6430" stroke-width="0.2540" stroke="#000000" stroke-linecap="round"/>
 <line x1="12.9290" y1="3.3382" x2="12.9290" y2="3.6430" stroke-width="0.2540" stroke="#000000" stroke-linecap="round"/>
 <line x1="12.8020" y1="3.2112" x2="12.9290" y2="3.3382" stroke-width="0.2540" stroke="#000000" stroke-linecap="round"/>
 <line x1="12.4210" y1="3.2112" x2="12.8020" y2="3.2112" stroke-width="0.2540" stroke="#000000" stroke-linecap="round"/>
 <line x1="12.4210" y1="2.7540" x2="12.4210" y2="3.7700" stroke-width="0.2540" stroke="#000000" stroke-linecap="round"/>
 <line x1="12.2940" y1="2.7540" x2="12.8020" y2="2.7540" stroke-width="0.2540" stroke="#000000" stroke-linecap="round"/>
 <line x1="12.8020" y1="2.7540" x2="12.9290" y2="2.8810" stroke-width="0.2540" stroke="#000000" stroke-linecap="round"/>
 <line x1="12.9290" y1="2.8810" x2="12.9290" y2="3.0842" stroke-width="0.2540" stroke="#000000" stroke-linecap="round"/>
 <line x1="12.8020" y1="3.2112" x2="12.9290" y2="3.0842" stroke-width="0.2540" stroke="#000000" stroke-linecap="round"/>
 <line x1="18.5000" y1="6.9612" x2="18.8810" y2="6.9612" stroke-width="0.2540" stroke="#000000" stroke-linecap="round"/>
 <line x1="18.5000" y1="7.5200" x2="19.0080" y2="7.5200" stroke-width="0.2540" stroke="#000000" stroke-linecap="round"/>
 <line x1="18.5000" y1="6.5040" x2="18.5000" y2="7.5200" stroke-width="0.2540" stroke="#000000" stroke-linecap="round"/>
 <line x1="18.5000" y1="6.5040" x2="19.0080" y2="6.5040" stroke-width="0.2540" stroke="#000000" stroke-linecap="round"/>
</g>
</svg>
