<?xml version="1.0"?>
<svg xmlns="http://www.w3.org/2000/svg" xmlns:xlink="http://www.w3.org/1999/xlink" version="1.0" width="1824.0000" height="1088.0000" viewBox="-2.0000 -2.0000 62.0000 39.0000">
<g id="layer_3_top-fab" opacity="0.66">
<!--normal-->
 <polygon points="23.0000,5.0000 23.0000,26.0000 14.0000,26.0000 14.0000,23.0000 20.0000,17.0000 17.0000,8.0000 14.0000,9.0000 14.0000,5.0000 " stroke-width="0.010" stroke="#ff0000" fill="#ff0000"/>
 <polygon points="14.0000,5.0000 14.0000,9.0000 8.0000,11.0000 14.0000,23.0000 14.0000,26.0000 5.0000,26.0000 5.0000,5.0000 " stroke-width="0.010" stroke="#ff0000" fill="#ff0000"/>
 <polygon points="52.0000,5.0000 52.0000,26.0000 43.0000,26.0000 43.0000,23.0000 49.0000,23.0000 46.0000,17.0000 46.0000,11.0000 43.0000,8.0000 43.0000,5.0000 " stroke-width="0.010" stroke="#ff0000" fill="#ff0000"/>
 <polygon points="43.0000,5.0000 43.0000,8.0000 37.0000,23.0000 43.0000,23.0000 43.0000,26.0000 34.0000,26.0000 34.0000,5.0000 " stroke-width="0.010" stroke="#ff0000" fill="#ff0000"/>
</g>
<g id="layer_4_top" opacity="0.66">
<!--normal-->
 <line x1="12.0000" y1="8.4572" x2="12.2032" y2="8.2540" stroke-width="0.1000" stroke="#00ff00" stroke-linecap="round"/>
 <line x1="12.2032" y1="8.2540" x2="12.2032" y2="9.2700" stroke-width="0.1000" stroke="#00ff00" stroke-linecap="round"/>
 <line x1="12.0000" y1="9.2700" x2="12.3810" y2="9.2700" stroke-width="0.1000" stroke="#00ff00" stroke-linecap="round"/>
 <line x1="19.0000" y1="12.3810" x2="19.1270" y2="12.2540" stroke-width="0.1000" stroke="#00ff00" stroke-linecap="round"/>
 <line x1="19.1270" y1="12.2540" x2="19.5080" y2="12.2540" stroke-width="0.1000" stroke="#00ff00" stroke-linecap="round"/>
 <line x1="19.5080" y1="12.2540" x2="19.6350" y2="12.3810" stroke-width="0.1000" stroke="#00ff00" stroke-linecap="round"/>
 <line x1="19.6350" y1="12.3810" x2="19.6350" y2="12.6350" stroke-width="0.1000" stroke="#00ff00" stroke-linecap="round"/>
 <line x1="19.0000" y1="13.2700" x2="19.6350" y2="12.6350" stroke-width="0.1000" stroke="#00ff00" stroke-linecap="round"/>
 <line x1="19.0000" y1="13.2700" x2="19.6350" y2="13.2700" stroke-width="0.1000" stroke="#00ff00" stroke-linecap="round"/>
 <line x1="16.1778" y1="13.2700" x2="16.5080" y2="13.2700" stroke-width="0.1000" stroke="#00ff00" stroke-linecap="round"/>
 <line x1="16.0000" y1="13.0922" x2="16.1778" y2="13.2700" stroke-width="0.1000" stroke="#00ff00" stroke-linecap="round"/>
 <line x1="16.0000" y1="12.4318" x2="16.0000" y2="13.0922" stroke-width="0.1000" stroke="#00ff00" stroke-linecap="round"/>
 <line x1="16.0000" y1="12.4318" x2="16.1778" y2="12.2540" stroke-width="0.1000" stroke="#00ff00" stroke-linecap="round"/>
 <line x1="16.1778" y1="12.2540" x2="16.5080" y2="12.2540" stroke-width="0.1000" stroke="#00ff00" stroke-linecap="round"/>
 <line x1="11.0000" y1="16.6430" x2="11.1270" y2="16.7700" stroke-width="0.1000" stroke="#00ff00" stroke-linecap="round"/>
 <line x1="11.0000" y1="15.8810" x2="11.0000" y2="16.6430" stroke-width="0.1000" stroke="#00ff00" stroke-linecap="round"/>
 <line x1="11.0000" y1="15.8810" x2="11.1270" y2="15.7540" stroke-width="0.1000" stroke="#00ff00" stroke-linecap="round"/>
 <line x1="11.1270" y1="15.7540" x2="11.3810" y2="15.7540" stroke-width="0.1000" stroke="#00ff00" stroke-linecap="round"/>
 <line x1="11.3810" y1="15.7540" x2="11.5080" y2="15.8810" stroke-width="0.1000" stroke="#00ff00" stroke-linecap="round"/>
 <line x1="11.5080" y1="15.8810" x2="11.5080" y2="16.6430" stroke-width="0.1000" stroke="#00ff00" stroke-linecap="round"/>
 <line x1="11.3810" y1="16.7700" x2="11.5080" y2="16.6430" stroke-width="0.1000" stroke="#00ff00" stroke-linecap="round"/>
 <line x1="11.1270" y1="16.7700" x2="11.3810" y2="16.7700" stroke-width="0.1000" stroke="#00ff00" stroke-linecap="round"/>
 <line x1="11.0000" y1="16.5160" x2="11.5080" y2="16.0080" stroke-width="0.1000" stroke="#00ff00" stroke-linecap="round"/>
 <line x1="18.0000" y1="19.3810" x2="18.1270" y2="19.2540" stroke-width="0.1000" stroke="#00ff00" stroke-linecap="round"/>
 <line x1="18.1270" y1="19.2540" x2="18.3810" y2="19.2540" stroke-width="0.1000" stroke="#00ff00" stroke-linecap="round"/>
 <line x1="18.3810" y1="19.2540" x2="18.5080" y2="19.3810" stroke-width="0.1000" stroke="#00ff00" stroke-linecap="round"/>
 <line x1="18.3810" y1="20.2700" x2="18.5080" y2="20.1430" stroke-width="0.1000" stroke="#00ff00" stroke-linecap="round"/>
 <line x1="18.1270" y1="20.2700" x2="18.3810" y2="20.2700" stroke-width="0.1000" stroke="#00ff00" stroke-linecap="round"/>
 <line x1="18.0000" y1="20.1430" x2="18.1270" y2="20.2700" stroke-width="0.1000" stroke="#00ff00" stroke-linecap="round"/>
 <line x1="18.1270" y1="19.7112" x2="18.3810" y2="19.7112" stroke-width="0.1000" stroke="#00ff00" stroke-linecap="round"/>
 <line x1="18.5080" y1="19.3810" x2="18.5080" y2="19.5842" stroke-width="0.1000" stroke="#00ff00" stroke-linecap="round"/>
 <line x1="18.5080" y1="19.8382" x2="18.5080" y2="20.1430" stroke-width="0.1000" stroke="#00ff00" stroke-linecap="round"/>
 <line x1="18.5080" y1="19.8382" x2="18.3810" y2="19.7112" stroke-width="0.1000" stroke="#00ff00" stroke-linecap="round"/>
 <line x1="18.5080" y1="19.5842" x2="18.3810" y2="19.7112" stroke-width="0.1000" stroke="#00ff00" stroke-linecap="round"/>
 <line x1="23.0000" y1="12.8890" x2="23.5080" y2="12.2540" stroke-width="0.1000" stroke="#00ff00" stroke-linecap="round"/>
 <line x1="23.0000" y1="12.8890" x2="23.6350" y2="12.8890" stroke-width="0.1000" stroke="#00ff00" stroke-linecap="round"/>
 <line x1="23.5080" y1="12.2540" x2="23.5080" y2="13.2700" stroke-width="0.1000" stroke="#00ff00" stroke-linecap="round"/>
 <line x1="16.1270" y1="18.2540" x2="16.1270" y2="19.2700" stroke-width="0.1000" stroke="#00ff00" stroke-linecap="round"/>
 <line x1="16.4572" y1="18.2540" x2="16.6350" y2="18.4318" stroke-width="0.1000" stroke="#00ff00" stroke-linecap="round"/>
 <line x1="16.6350" y1="18.4318" x2="16.6350" y2="19.0922" stroke-width="0.1000" stroke="#00ff00" stroke-linecap="round"/>
 <line x1="16.4572" y1="19.2700" x2="16.6350" y2="19.0922" stroke-width="0.1000" stroke="#00ff00" stroke-linecap="round"/>
 <line x1="16.0000" y1="19.2700" x2="16.4572" y2="19.2700" stroke-width="0.1000" stroke="#00ff00" stroke-linecap="round"/>
 <line x1="16.0000" y1="18.2540" x2="16.4572" y2="18.2540" stroke-width="0.1000" stroke="#00ff00" stroke-linecap="round"/>
 <line x1="40.0000" y1="11.2540" x2="40.5080" y2="11.2540" stroke-width="0.1000" stroke="#00ff00" stroke-linecap="round"/>
 <line x1="40.0000" y1="11.2540" x2="40.0000" y2="11.7620" stroke-width="0.1000" stroke="#00ff00" stroke-linecap="round"/>
 <line x1="40.0000" y1="11.7620" x2="40.1270" y2="11.6350" stroke-width="0.1000" stroke="#00ff00" stroke-linecap="round"/>
 <line x1="40.1270" y1="11.6350" x2="40.3810" y2="11.6350" stroke-width="0.1000" stroke="#00ff00" stroke-linecap="round"/>
 <line x1="40.3810" y1="11.6350" x2="40.5080" y2="11.7620" stroke-width="0.1000" stroke="#00ff00" stroke-linecap="round"/>
 <line x1="40.5080" y1="11.7620" x2="40.5080" y2="12.1430" stroke-width="0.1000" stroke="#00ff00" stroke-linecap="round"/>
 <line x1="40.3810" y1="12.2700" x2="40.5080" y2="12.1430" stroke-width="0.1000" stroke="#00ff00" stroke-linecap="round"/>
 <line x1="40.1270" y1="12.2700" x2="40.3810" y2="12.2700" stroke-width="0.1000" stroke="#00ff00" stroke-linecap="round"/>
 <line x1="40.0000" y1="12.1430" x2="40.1270" y2="12.2700" stroke-width="0.1000" stroke="#00ff00" stroke-linecap="round"/>
 <line x1="45.3810" y1="8.2540" x2="45.5080" y2="8.3810" stroke-width="0.1000" stroke="#00ff00" stroke-linecap="round"/>
 <line x1="45.1270" y1="8.2540" x2="45.3810" y2="8.2540" stroke-width="0.1000" stroke="#00ff00" stroke-linecap="round"/>
 <line x1="45.0000" y1="8.3810" x2="45.1270" y2="8.2540" stroke-width="0.1000" stroke="#00ff00" stroke-linecap="round"/>
 <line x1="45.0000" y1="8.3810" x2="45.0000" y2="9.1430" stroke-width="0.1000" stroke="#00ff00" stroke-linecap="round"/>
 <line x1="45.0000" y1="9.1430" x2="45.1270" y2="9.2700" stroke-width="0.1000" stroke="#00ff00" stroke-linecap="round"/>
 <line x1="45.3810" y1="8.7112" x2="45.5080" y2="8.8382" stroke-width="0.1000" stroke="#00ff00" stroke-linecap="round"/>
 <line x1="45.0000" y1="8.7112" x2="45.3810" y2="8.7112" stroke-width="0.1000" stroke="#00ff00" stroke-linecap="round"/>
 <line x1="45.1270" y1="9.2700" x2="45.3810" y2="9.2700" stroke-width="0.1000" stroke="#00ff00" stroke-linecap="round"/>
 <line x1="45.3810" y1="9.2700" x2="45.5080" y2="9.1430" stroke-width="0.1000" stroke="#00ff00" stroke-linecap="round"/>
 <line x1="45.5080" y1="8.8382" x2="45.5080" y2="9.1430" stroke-width="0.1000" stroke="#00ff00" stroke-linecap="round"/>
 <line x1="46.1270" y1="12.2700" x2="46.6350" y2="11.2540" stroke-width="0.1000" stroke="#00ff00" stroke-linecap="round"/>
 <line x1="46.0000" y1="11.2540" x2="46.6350" y2="11.2540" stroke-width="0.1000" stroke="#00ff00" stroke-linecap="round"/>
 <line x1="6.0000" y1="9.5080" x2="6.0000" y2="10.2700" stroke-width="0.1000" stroke="#00ff00" stroke-linecap="round"/>
 <line x1="6.0000" y1="9.5080" x2="6.1778" y2="9.2540" stroke-width="0.1000" stroke="#00ff00" stroke-linecap="round"/>
 <line x1="6.1778" y1="9.2540" x2="6.4572" y2="9.2540" stroke-width="0.1000" stroke="#00ff00" stroke-linecap="round"/>
 <line x1="6.4572" y1="9.2540" x2="6.6350" y2="9.5080" stroke-width="0.1000" stroke="#00ff00" stroke-linecap="round"/>
 <line x1="6.6350" y1="9.5080" x2="6.6350" y2="10.2700" stroke-width="0.1000" stroke="#00ff00" stroke-linecap="round"/>
 <line x1="6.0000" y1="9.7620" x2="6.6350" y2="9.7620" stroke-width="0.1000" stroke="#00ff00" stroke-linecap="round"/>
 <line x1="16.0000" y1="7.2700" x2="16.5080" y2="7.2700" stroke-width="0.1000" stroke="#00ff00" stroke-linecap="round"/>
 <line x1="16.5080" y1="7.2700" x2="16.6350" y2="7.1430" stroke-width="0.1000" stroke="#00ff00" stroke-linecap="round"/>
 <line x1="16.6350" y1="6.8382" x2="16.6350" y2="7.1430" stroke-width="0.1000" stroke="#00ff00" stroke-linecap="round"/>
 <line x1="16.5080" y1="6.7112" x2="16.6350" y2="6.8382" stroke-width="0.1000" stroke="#00ff00" stroke-linecap="round"/>
 <line x1="16.1270" y1="6.7112" x2="16.5080" y2="6.7112" stroke-width="0.1000" stroke="#00ff00" stroke-linecap="round"/>
 <line x1="16.1270" y1="6.2540" x2="16.1270" y2="7.2700" stroke-width="0.1000" stroke="#00ff00" stroke-linecap="round"/>
 <line x1="16.0000" y1="6.2540" x2="16.5080" y2="6.2540" stroke-width="0.1000" stroke="#00ff00" stroke-linecap="round"/>
 <line x1="16.5080" y1="6.2540" x2="16.6350" y2="6.3810" stroke-width="0.1000" stroke="#00ff00" stroke-linecap="round"/>
 <line x1="16.6350" y1="6.3810" x2="16.6350" y2="6.5842" stroke-width="0.1000" stroke="#00ff00" stroke-linecap="round"/>
 <line x1="16.5080" y1="6.7112" x2="16.6350" y2="6.5842" stroke-width="0.1000" stroke="#00ff00" stroke-linecap="round"/>
 <line x1="52.0000" y1="15.4572" x2="52.2032" y2="15.2540" stroke-width="0.1000" stroke="#00ff00" stroke-linecap="round"/>
 <line x1="52.2032" y1="15.2540" x2="52.2032" y2="16.2700" stroke-width="0.1000" stroke="#00ff00" stroke-linecap="round"/>
 <line x1="52.0000" y1="16.2700" x2="52.3810" y2="16.2700" stroke-width="0.1000" stroke="#00ff00" stroke-linecap="round"/>
 <line x1="52.6858" y1="16.1430" x2="52.8128" y2="16.2700" stroke-width="0.1000" stroke="#00ff00" stroke-linecap="round"/>
 <line x1="52.6858" y1="15.3810" x2="52.6858" y2="16.1430" stroke-width="0.1000" stroke="#00ff00" stroke-linecap="round"/>
 <line x1="52.6858" y1="15.3810" x2="52.8128" y2="15.2540" stroke-width="0.1000" stroke="#00ff00" stroke-linecap="round"/>
 <line x1="52.8128" y1="15.2540" x2="53.0668" y2="15.2540" stroke-width="0.1000" stroke="#00ff00" stroke-linecap="round"/>
 <line x1="53.0668" y1="15.2540" x2="53.1938" y2="15.3810" stroke-width="0.1000" stroke="#00ff00" stroke-linecap="round"/>
 <line x1="53.1938" y1="15.3810" x2="53.1938" y2="16.1430" stroke-width="0.1000" stroke="#00ff00" stroke-linecap="round"/>
 <line x1="53.0668" y1="16.2700" x2="53.1938" y2="16.1430" stroke-width="0.1000" stroke="#00ff00" stroke-linecap="round"/>
 <line x1="52.8128" y1="16.2700" x2="53.0668" y2="16.2700" stroke-width="0.1000" stroke="#00ff00" stroke-linecap="round"/>
 <line x1="52.6858" y1="16.0160" x2="53.1938" y2="15.5080" stroke-width="0.1000" stroke="#00ff00" stroke-linecap="round"/>
 <line x1="45.2500" y1="14.7540" x2="45.2500" y2="15.7700" stroke-width="0.1000" stroke="#00ff00" stroke-linecap="round"/>
 <line x1="45.2500" y1="14.7540" x2="45.7580" y2="14.7540" stroke-width="0.1000" stroke="#00ff00" stroke-linecap="round"/>
 <line x1="45.2500" y1="15.2112" x2="45.6310" y2="15.2112" stroke-width="0.1000" stroke="#00ff00" stroke-linecap="round"/>
 <line x1="47.2500" y1="18.6430" x2="47.3770" y2="18.7700" stroke-width="0.1000" stroke="#00ff00" stroke-linecap="round"/>
 <line x1="47.2500" y1="18.4398" x2="47.2500" y2="18.6430" stroke-width="0.1000" stroke="#00ff00" stroke-linecap="round"/>
 <line x1="47.2500" y1="18.4398" x2="47.4278" y2="18.2620" stroke-width="0.1000" stroke="#00ff00" stroke-linecap="round"/>
 <line x1="47.4278" y1="18.2620" x2="47.5802" y2="18.2620" stroke-width="0.1000" stroke="#00ff00" stroke-linecap="round"/>
 <line x1="47.5802" y1="18.2620" x2="47.7580" y2="18.4398" stroke-width="0.1000" stroke="#00ff00" stroke-linecap="round"/>
 <line x1="47.7580" y1="18.4398" x2="47.7580" y2="18.6430" stroke-width="0.1000" stroke="#00ff00" stroke-linecap="round"/>
 <line x1="47.6310" y1="18.7700" x2="47.7580" y2="18.6430" stroke-width="0.1000" stroke="#00ff00" stroke-linecap="round"/>
 <line x1="47.3770" y1="18.7700" x2="47.6310" y2="18.7700" stroke-width="0.1000" stroke="#00ff00" stroke-linecap="round"/>
 <line x1="47.2500" y1="18.0842" x2="47.4278" y2="18.2620" stroke-width="0.1000" stroke="#00ff00" stroke-linecap="round"/>
 <line x1="47.2500" y1="17.8810" x2="47.2500" y2="18.0842" stroke-width="0.1000" stroke="#00ff00" stroke-linecap="round"/>
 <line x1="47.2500" y1="17.8810" x2="47.3770" y2="17.7540" stroke-width="0.1000" stroke="#00ff00" stroke-linecap="round"/>
 <line x1="47.3770" y1="17.7540" x2="47.6310" y2="17.7540" stroke-width="0.1000" stroke="#00ff00" stroke-linecap="round"/>
 <line x1="47.6310" y1="17.7540" x2="47.7580" y2="17.8810" stroke-width="0.1000" stroke="#00ff00" stroke-linecap="round"/>
 <line x1="47.7580" y1="17.8810" x2="47.7580" y2="18.0842" stroke-width="0.1000" stroke="#00ff00" stroke-linecap="round"/>
 <line x1="47.5802" y1="18.2620" x2="47.7580" y2="18.0842" stroke-width="0.1000" stroke="#00ff00" stroke-linecap="round"/>
 <line x1="49.6778" y1="23.7540" x2="49.8810" y2="23.7540" stroke-width="0.1000" stroke="#00ff00" stroke-linecap="round"/>
 <line x1="49.8810" y1="23.7540" x2="49.8810" y2="24.6430" stroke-width="0.1000" stroke="#00ff00" stroke-linecap="round"/>
 <line x1="49.7540" y1="24.7700" x2="49.8810" y2="24.6430" stroke-width="0.1000" stroke="#00ff00" stroke-linecap="round"/>
 <line x1="49.6270" y1="24.7700" x2="49.7540" y2="24.7700" stroke-width="0.1000" stroke="#00ff00" stroke-linecap="round"/>
 <line x1="49.5000" y1="24.6430" x2="49.6270" y2="24.7700" stroke-width="0.1000" stroke="#00ff00" stroke-linecap="round"/>
 <line x1="49.5000" y1="24.6430" x2="49.5000" y2="24.5160" stroke-width="0.1000" stroke="#00ff00" stroke-linecap="round"/>
 <line x1="42.0000" y1="6.7112" x2="42.3810" y2="6.7112" stroke-width="0.1000" stroke="#00ff00" stroke-linecap="round"/>
 <line x1="42.0000" y1="7.2700" x2="42.5080" y2="7.2700" stroke-width="0.1000" stroke="#00ff00" stroke-linecap="round"/>
 <line x1="42.0000" y1="6.2540" x2="42.0000" y2="7.2700" stroke-width="0.1000" stroke="#00ff00" stroke-linecap="round"/>
 <line x1="42.0000" y1="6.2540" x2="42.5080" y2="6.2540" stroke-width="0.1000" stroke="#00ff00" stroke-linecap="round"/>
 <line x1="36.2580" y1="23.7540" x2="36.3850" y2="23.8810" stroke-width="0.1000" stroke="#00ff00" stroke-linecap="round"/>
 <line x1="35.8770" y1="23.7540" x2="36.2580" y2="23.7540" stroke-width="0.1000" stroke="#00ff00" stroke-linecap="round"/>
 <line x1="35.7500" y1="23.8810" x2="35.8770" y2="23.7540" stroke-width="0.1000" stroke="#00ff00" stroke-linecap="round"/>
 <line x1="35.7500" y1="23.8810" x2="35.7500" y2="24.6430" stroke-width="0.1000" stroke="#00ff00" stroke-linecap="round"/>
 <line x1="35.7500" y1="24.6430" x2="35.8770" y2="24.7700" stroke-width="0.1000" stroke="#00ff00" stroke-linecap="round"/>
 <line x1="35.8770" y1="24.7700" x2="36.2580" y2="24.7700" stroke-width="0.1000" stroke="#00ff00" stroke-linecap="round"/>
 <line x1="36.2580" y1="24.7700" x2="36.3850" y2="24.6430" stroke-width="0.1000" stroke="#00ff00" stroke-linecap="round"/>
 <line x1="36.3850" y1="24.3890" x2="36.3850" y2="24.6430" stroke-width="0.1000" stroke="#00ff00" stroke-linecap="round"/>
 <line x1="36.2580" y1="24.2620" x2="36.3850" y2="24.3890" stroke-width="0.1000" stroke="#00ff00" stroke-linecap="round"/>
 <line x1="36.0040" y1="24.2620" x2="36.2580" y2="24.2620" stroke-width="0.1000" stroke="#00ff00" stroke-linecap="round"/>
 <line x1="40.2500" y1="23.7540" x2="40.2500" y2="24.7700" stroke-width="0.1000" stroke="#00ff00" stroke-linecap="round"/>
 <line x1="40.8850" y1="23.7540" x2="40.8850" y2="24.7700" stroke-width="0.1000" stroke="#00ff00" stroke-linecap="round"/>
 <line x1="40.2500" y1="24.2620" x2="40.8850" y2="24.2620" stroke-width="0.1000" stroke="#00ff00" stroke-linecap="round"/>
 <line x1="44.1270" y1="24.2700" x2="44.5080" y2="23.7620" stroke-width="0.1000" stroke="#00ff00" stroke-linecap="round"/>
 <line x1="44.5080" y1="23.3810" x2="44.5080" y2="23.7620" stroke-width="0.1000" stroke="#00ff00" stroke-linecap="round"/>
 <line x1="44.3810" y1="23.2540" x2="44.5080" y2="23.3810" stroke-width="0.1000" stroke="#00ff00" stroke-linecap="round"/>
 <line x1="44.1270" y1="23.2540" x2="44.3810" y2="23.2540" stroke-width="0.1000" stroke="#00ff00" stroke-linecap="round"/>
 <line x1="44.0000" y1="23.3810" x2="44.1270" y2="23.2540" stroke-width="0.1000" stroke="#00ff00" stroke-linecap="round"/>
 <line x1="44.0000" y1="23.3810" x2="44.0000" y2="23.6350" stroke-width="0.1000" stroke="#00ff00" stroke-linecap="round"/>
 <line x1="44.0000" y1="23.6350" x2="44.1270" y2="23.7620" stroke-width="0.1000" stroke="#00ff00" stroke-linecap="round"/>
 <line x1="44.1270" y1="23.7620" x2="44.5080" y2="23.7620" stroke-width="0.1000" stroke="#00ff00" stroke-linecap="round"/>
</g>
<g id="layer_5_top" opacity="0.66">
<!--normal-->
 <line x1="8.0000" y1="11.5000" x2="8.0000" y2="10.5000" stroke-width="0.2540" stroke="#0000ff" stroke-linecap="round"/>
 <line x1="7.5000" y1="11.0000" x2="8.5000" y2="11.0000" stroke-width="0.2540" stroke="#0000ff" stroke-linecap="round"/>
 <line x1="17.0000" y1="8.5000" x2="17.0000" y2="7.5000" stroke-width="0.2540" stroke="#0000ff" stroke-linecap="round"/>
 <line x1="16.5000" y1="8.0000" x2="17.5000" y2="8.0000" stroke-width="0.2540" stroke="#0000ff" stroke-linecap="round"/>
 <line x1="17.0000" y1="14.5000" x2="17.0000" y2="13.5000" stroke-width="0.2540" stroke="#0000ff" stroke-linecap="round"/>
 <line x1="16.5000" y1="14.0000" x2="17.5000" y2="14.0000" stroke-width="0.2540" stroke="#0000ff" stroke-linecap="round"/>
 <line x1="17.0000" y1="17.5000" x2="17.0000" y2="16.5000" stroke-width="0.2540" stroke="#0000ff" stroke-linecap="round"/>
 <line x1="16.5000" y1="17.0000" x2="17.5000" y2="17.0000" stroke-width="0.2540" stroke="#0000ff" stroke-linecap="round"/>
 <line x1="37.0000" y1="23.5000" x2="37.0000" y2="22.5000" stroke-width="0.2540" stroke="#0000ff" stroke-linecap="round"/>
 <line x1="36.5000" y1="23.0000" x2="37.5000" y2="23.0000" stroke-width="0.2540" stroke="#0000ff" stroke-linecap="round"/>
 <line x1="40.0000" y1="23.5000" x2="40.0000" y2="22.5000" stroke-width="0.2540" stroke="#0000ff" stroke-linecap="round"/>
 <line x1="43.0000" y1="8.5000" x2="43.0000" y2="7.5000" stroke-width="0.2540" stroke="#0000ff" stroke-linecap="round"/>
 <line x1="42.5000" y1="8.0000" x2="43.5000" y2="8.0000" stroke-width="0.2540" stroke="#0000ff" stroke-linecap="round"/>
 <line x1="46.0000" y1="14.5000" x2="46.0000" y2="13.5000" stroke-width="0.2540" stroke="#0000ff" stroke-linecap="round"/>
 <line x1="45.5000" y1="14.0000" x2="46.5000" y2="14.0000" stroke-width="0.2540" stroke="#0000ff" stroke-linecap="round"/>
 <line x1="39.5000" y1="23.0000" x2="40.5000" y2="23.0000" stroke-width="0.2540" stroke="#0000ff" stroke-linecap="round"/>
 <line x1="49.0000" y1="23.5000" x2="49.0000" y2="22.5000" stroke-width="0.2540" stroke="#0000ff" stroke-linecap="round"/>
 <line x1="48.5000" y1="23.0000" x2="49.5000" y2="23.0000" stroke-width="0.2540" stroke="#0000ff" stroke-linecap="round"/>
</g>
<g id="layer_6_top" opacity="0.66">
</g>
<g id="layer_7_top" opacity="0.66">
<!--normal-->
 <line x1="2.0000" y1="2.0000" x2="2.0000" y2="29.0000" stroke-width="0.0500" stroke="#000000" stroke-linecap="round"/>
 <line x1="5.0000" y1="2.0000" x2="5.0000" y2="29.0000" stroke-width="0.0500" stroke="#000000" stroke-linecap="round"/>
 <line x1="8.0000" y1="2.0000" x2="8.0000" y2="29.0000" stroke-width="0.0500" stroke="#000000" stroke-linecap="round"/>
 <line x1="11.0000" y1="2.0000" x2="11.0000" y2="29.0000" stroke-width="0.0500" stroke="#000000" stroke-linecap="round"/>
 <line x1="14.0000" y1="2.0000" x2="14.0000" y2="29.0000" stroke-width="0.0500" stroke="#000000" stroke-linecap="round"/>
 <line x1="17.0000" y1="2.0000" x2="17.0000" y2="29.0000" stroke-width="0.0500" stroke="#000000" stroke-linecap="round"/>
 <line x1="20.0000" y1="2.0000" x2="20.0000" y2="29.0000" stroke-width="0.0500" stroke="#000000" stroke-linecap="round"/>
 <line x1="23.0000" y1="2.0000" x2="23.0000" y2="29.0000" stroke-width="0.0500" stroke="#000000" stroke-linecap="round"/>
 <line x1="26.0000" y1="2.0000" x2="26.0000" y2="29.0000" stroke-width="0.0500" stroke="#000000" stroke-linecap="round"/>
 <line x1="31.0000" y1="2.0000" x2="31.0000" y2="29.0000" stroke-width="0.0500" stroke="#000000" stroke-linecap="round"/>
 <line x1="34.0000" y1="2.0000" x2="34.0000" y2="29.0000" stroke-width="0.0500" stroke="#000000" stroke-linecap="round"/>
 <line x1="37.0000" y1="2.0000" x2="37.0000" y2="29.0000" stroke-width="0.0500" stroke="#000000" stroke-linecap="round"/>
 <line x1="40.0000" y1="2.0000" x2="40.0000" y2="29.0000" stroke-width="0.0500" stroke="#000000" stroke-linecap="round"/>
 <line x1="43.0000" y1="2.0000" x2="43.0000" y2="29.0000" stroke-width="0.0500" stroke="#000000" stroke-linecap="round"/>
 <line x1="46.0000" y1="2.0000" x2="46.0000" y2="29.0000" stroke-width="0.0500" stroke="#000000" stroke-linecap="round"/>
 <line x1="49.0000" y1="2.0000" x2="49.0000" y2="29.0000" stroke-width="0.0500" stroke="#000000" stroke-linecap="round"/>
 <line x1="52.0000" y1="2.0000" x2="52.0000" y2="29.0000" stroke-width="0.0500" stroke="#000000" stroke-linecap="round"/>
 <line x1="55.0000" y1="2.0000" x2="55.0000" y2="29.0000" stroke-width="0.0500" stroke="#000000" stroke-linecap="round"/>
 <line x1="31.0000" y1="2.0000" x2="55.0000" y2="2.0000" stroke-width="0.0500" stroke="#000000" stroke-linecap="round"/>
 <line x1="31.0000" y1="5.0000" x2="55.0000" y2="5.0000" stroke-width="0.0500" stroke="#000000" stroke-linecap="round"/>
 <line x1="31.0000" y1="8.0000" x2="55.0000" y2="8.0000" stroke-width="0.0500" stroke="#000000" stroke-linecap="round"/>
 <line x1="31.0000" y1="11.0000" x2="55.0000" y2="11.0000" stroke-width="0.0500" stroke="#000000" stroke-linecap="round"/>
 <line x1="31.0000" y1="14.0000" x2="55.0000" y2="14.0000" stroke-width="0.0500" stroke="#000000" stroke-linecap="round"/>
 <line x1="31.0000" y1="17.0000" x2="55.0000" y2="17.0000" stroke-width="0.0500" stroke="#000000" stroke-linecap="round"/>
 <line x1="31.0000" y1="20.0000" x2="55.0000" y2="20.0000" stroke-width="0.0500" stroke="#000000" stroke-linecap="round"/>
 <line x1="31.0000" y1="23.0000" x2="55.0000" y2="23.0000" stroke-width="0.0500" stroke="#000000" stroke-linecap="round"/>
 <line x1="31.0000" y1="26.0000" x2="55.0000" y2="26.0000" stroke-width="0.0500" stroke="#000000" stroke-linecap="round"/>
 <line x1="31.0000" y1="29.0000" x2="55.0000" y2="29.0000" stroke-width="0.0500" stroke="#000000" stroke-linecap="round"/>
 <line x1="2.0000" y1="2.0000" x2="26.0000" y2="2.0000" stroke-width="0.0500" stroke="#000000" stroke-linecap="round"/>
 <line x1="2.0000" y1="5.0000" x2="26.0000" y2="5.0000" stroke-width="0.0500" stroke="#000000" stroke-linecap="round"/>
 <line x1="2.0000" y1="8.0000" x2="26.0000" y2="8.0000" stroke-width="0.0500" stroke="#000000" stroke-linecap="round"/>
 <line x1="2.0000" y1="11.0000" x2="26.0000" y2="11.0000" stroke-width="0.0500" stroke="#000000" stroke-linecap="round"/>
 <line x1="2.0000" y1="14.0000" x2="26.0000" y2="14.0000" stroke-width="0.0500" stroke="#000000" stroke-linecap="round"/>
 <line x1="2.0000" y1="17.0000" x2="26.0000" y2="17.0000" stroke-width="0.0500" stroke="#000000" stroke-linecap="round"/>
 <line x1="2.0000" y1="20.0000" x2="26.0000" y2="20.0000" stroke-width="0.0500" stroke="#000000" stroke-linecap="round"/>
 <line x1="2.0000" y1="23.0000" x2="26.0000" y2="23.0000" stroke-width="0.0500" stroke="#000000" stroke-linecap="round"/>
 <line x1="2.0000" y1="26.0000" x2="26.0000" y2="26.0000" stroke-width="0.0500" stroke="#000000" stroke-linecap="round"/>
 <line x1="2.0000" y1="29.0000" x2="26.0000" y2="29.0000" stroke-width="0.0500" stroke="#000000" stroke-linecap="round"/>
 <line x1="14.3810" y1="31.7620" x2="14.5080" y2="31.8890" stroke-width="0.1000" stroke="#000000" stroke-linecap="round"/>
 <line x1="14.1270" y1="31.7620" x2="14.3810" y2="31.7620" stroke-width="0.1000" stroke="#000000" stroke-linecap="round"/>
 <line x1="14.0000" y1="31.8890" x2="14.1270" y2="31.7620" stroke-width="0.1000" stroke="#000000" stroke-linecap="round"/>
 <line x1="14.0000" y1="31.8890" x2="14.0000" y2="32.1430" stroke-width="0.1000" stroke="#000000" stroke-linecap="round"/>
 <line x1="14.0000" y1="32.1430" x2="14.1270" y2="32.2700" stroke-width="0.1000" stroke="#000000" stroke-linecap="round"/>
 <line x1="14.5080" y1="31.7620" x2="14.5080" y2="32.1430" stroke-width="0.1000" stroke="#000000" stroke-linecap="round"/>
 <line x1="14.5080" y1="32.1430" x2="14.6350" y2="32.2700" stroke-width="0.1000" stroke="#000000" stroke-linecap="round"/>
 <line x1="14.1270" y1="32.2700" x2="14.3810" y2="32.2700" stroke-width="0.1000" stroke="#000000" stroke-linecap="round"/>
 <line x1="14.3810" y1="32.2700" x2="14.5080" y2="32.1430" stroke-width="0.1000" stroke="#000000" stroke-linecap="round"/>
 <line x1="14.9398" y1="32.2700" x2="15.0668" y2="32.2700" stroke-width="0.1000" stroke="#000000" stroke-linecap="round"/>
 <line x1="42.0000" y1="31.2540" x2="42.0000" y2="32.2700" stroke-width="0.1000" stroke="#000000" stroke-linecap="round"/>
 <line x1="42.0000" y1="32.1430" x2="42.1270" y2="32.2700" stroke-width="0.1000" stroke="#000000" stroke-linecap="round"/>
 <line x1="42.1270" y1="32.2700" x2="42.3810" y2="32.2700" stroke-width="0.1000" stroke="#000000" stroke-linecap="round"/>
 <line x1="42.3810" y1="32.2700" x2="42.5080" y2="32.1430" stroke-width="0.1000" stroke="#000000" stroke-linecap="round"/>
 <line x1="42.5080" y1="31.8890" x2="42.5080" y2="32.1430" stroke-width="0.1000" stroke="#000000" stroke-linecap="round"/>
 <line x1="42.3810" y1="31.7620" x2="42.5080" y2="31.8890" stroke-width="0.1000" stroke="#000000" stroke-linecap="round"/>
 <line x1="42.1270" y1="31.7620" x2="42.3810" y2="31.7620" stroke-width="0.1000" stroke="#000000" stroke-linecap="round"/>
 <line x1="42.0000" y1="31.8890" x2="42.1270" y2="31.7620" stroke-width="0.1000" stroke="#000000" stroke-linecap="round"/>
 <line x1="42.8128" y1="32.2700" x2="42.9398" y2="32.2700" stroke-width="0.1000" stroke="#000000" stroke-linecap="round"/>
</g>
</svg>
