<?xml version="1.0" encoding="UTF-8" standalone="no"?>
<!DOCTYPE svg PUBLIC "-//W3C//DTD SVG 1.1//EN"
 "http://www.w3.org/Graphics/SVG/1.1/DTD/svg11.dtd">
<!-- Generated by graphviz version 2.40.1 (20161225.0304)
 -->
<!-- Title: render Pages: 1 -->
<svg width="1743pt" height="1397pt"
 viewBox="0.00 0.00 1743.00 1397.45" xmlns="http://www.w3.org/2000/svg" xmlns:xlink="http://www.w3.org/1999/xlink">
<g id="graph0" class="graph" transform="scale(1 1) rotate(0) translate(4 1393.4478)">
<title>render</title>
<polygon fill="#ffffff" stroke="transparent" points="-4,4 -4,-1393.4478 1739,-1393.4478 1739,4 -4,4"/>
<g id="clust1" class="cluster">
<title>cluster_0</title>
<polygon fill="#aa7777" stroke="#aa7777" points="591,-1288.7077 591,-1381.4478 1493,-1381.4478 1493,-1288.7077 591,-1288.7077"/>
<text text-anchor="middle" x="1042" y="-1366.2478" font-family="Times,serif" font-size="14.00" fill="#000000">application</text>
</g>
<g id="clust2" class="cluster">
<title>cluster_100</title>
<polygon fill="#aaaaaa" stroke="#aaaaaa" points="8,-424.6934 8,-1214.7077 1727,-1214.7077 1727,-424.6934 8,-424.6934"/>
<text text-anchor="middle" x="867.5" y="-1199.5077" font-family="Times,serif" font-size="14.00" fill="#000000">librnd</text>
</g>
<g id="clust3" class="cluster">
<title>cluster_1</title>
<polygon fill="#77aaaa" stroke="#77aaaa" points="463,-1090.9676 463,-1183.7077 1667,-1183.7077 1667,-1090.9676 463,-1090.9676"/>
<text text-anchor="middle" x="1065" y="-1168.5077" font-family="Times,serif" font-size="14.00" fill="#000000">HID API (any GUI HID)</text>
</g>
<g id="clust4" class="cluster">
<title>cluster_2</title>
<polygon fill="#77aa77" stroke="#77aa77" points="154,-651.6468 154,-818.2275 1424,-818.2275 1424,-651.6468 154,-651.6468"/>
<text text-anchor="middle" x="789" y="-803.0275" font-family="Times,serif" font-size="14.00" fill="#000000">lib_gtk_common, #included</text>
<text text-anchor="middle" x="789" y="-788.0275" font-family="Times,serif" font-size="14.00" fill="#000000">and thus compiled into</text>
<text text-anchor="middle" x="789" y="-773.0275" font-family="Times,serif" font-size="14.00" fill="#000000">a hid_gtk* plugin</text>
</g>
<g id="clust5" class="cluster">
<title>cluster_3</title>
<polygon fill="#77aa77" stroke="#77aa77" points="16,-893.2275 16,-985.9676 468,-985.9676 468,-893.2275 16,-893.2275"/>
<text text-anchor="middle" x="242" y="-970.7676" font-family="Times,serif" font-size="14.00" fill="#000000">hid_gtk2_gdk plugin</text>
</g>
<g id="clust6" class="cluster">
<title>cluster_4</title>
<polygon fill="#77aa77" stroke="#77aa77" points="476,-893.2275 476,-985.9676 903,-985.9676 903,-893.2275 476,-893.2275"/>
<text text-anchor="middle" x="689.5" y="-970.7676" font-family="Times,serif" font-size="14.00" fill="#000000">hid_gtk2_gl plugin</text>
</g>
<g id="clust7" class="cluster">
<title>cluster_5</title>
<polygon fill="#77aa77" stroke="#77aa77" points="911,-893.2275 911,-985.9676 1339,-985.9676 1339,-893.2275 911,-893.2275"/>
<text text-anchor="middle" x="1125" y="-970.7676" font-family="Times,serif" font-size="14.00" fill="#000000">hid_gtk4_gl plugin</text>
</g>
<g id="clust8" class="cluster">
<title>cluster_6</title>
<polygon fill="#7777aa" stroke="#7777aa" points="1347,-893.2275 1347,-985.9676 1719,-985.9676 1719,-893.2275 1347,-893.2275"/>
<text text-anchor="middle" x="1533" y="-970.7676" font-family="Times,serif" font-size="14.00" fill="#000000">hid_lesstif plugin</text>
</g>
<g id="clust9" class="cluster">
<title>cluster_7</title>
<polygon fill="#77aa77" stroke="#77aa77" points="473,-443.3 473,-536.0402 761,-536.0402 761,-443.3 473,-443.3"/>
<text text-anchor="middle" x="617" y="-520.8402" font-family="Times,serif" font-size="14.00" fill="#000000">lid_gtk2_common plugin</text>
</g>
<g id="clust10" class="cluster">
<title>cluster_8</title>
<polygon fill="#77aa77" stroke="#77aa77" points="769,-443.3 769,-536.0402 1057,-536.0402 1057,-443.3 769,-443.3"/>
<text text-anchor="middle" x="913" y="-520.8402" font-family="Times,serif" font-size="14.00" fill="#000000">lid_gtk4_common plugin</text>
</g>
<g id="clust11" class="cluster">
<title>cluster_9</title>
<polygon fill="#ee7777" stroke="#ee7777" points="209,-432.6934 209,-546.6468 465,-546.6468 465,-432.6934 209,-432.6934"/>
<text text-anchor="middle" x="337" y="-531.4468" font-family="Times,serif" font-size="14.00" fill="#000000">lib_hid_gl</text>
</g>
<g id="clust12" class="cluster">
<title>cluster_200</title>
<polygon fill="#aa7777" stroke="#aa7777" points="9,-8 9,-358.6934 872,-358.6934 872,-8 9,-8"/>
<text text-anchor="middle" x="440.5" y="-343.4934" font-family="Times,serif" font-size="14.00" fill="#000000">system</text>
</g>
<g id="clust13" class="cluster">
<title>cluster_20</title>
<polygon fill="#11aa77" stroke="#11aa77" points="17,-224.3467 17,-317.0868 175,-317.0868 175,-224.3467 17,-224.3467"/>
<text text-anchor="middle" x="96" y="-301.8868" font-family="Times,serif" font-size="14.00" fill="#000000">gtk/gdk</text>
</g>
<g id="clust14" class="cluster">
<title>cluster_30</title>
<polygon fill="#aaaa77" stroke="#aaaa77" points="183,-213.7401 183,-327.6934 778,-327.6934 778,-213.7401 183,-213.7401"/>
<text text-anchor="middle" x="480.5" y="-312.4934" font-family="Times,serif" font-size="14.00" fill="#000000">opengl</text>
</g>
<g id="clust15" class="cluster">
<title>cluster_40</title>
<polygon fill="#aaaa77" stroke="#aaaa77" points="786,-24.8701 786,-308.2168 864,-308.2168 864,-24.8701 786,-24.8701"/>
<text text-anchor="middle" x="825" y="-293.0168" font-family="Times,serif" font-size="14.00" fill="#000000">X</text>
</g>
<g id="clust16" class="cluster">
<title>cluster_41</title>
<polygon fill="#aaaa77" stroke="#aaaa77" points="39,-16 39,-108.7401 153,-108.7401 153,-16 39,-16"/>
<text text-anchor="middle" x="96" y="-93.5401" font-family="Times,serif" font-size="14.00" fill="#000000">win32</text>
</g>
<!-- rnd_gui_inv -->
<g id="node1" class="node">
<title>rnd_gui_inv</title>
<ellipse fill="none" stroke="#000000" cx="1370" cy="-1323.5778" rx="115.0173" ry="26.7407"/>
<text text-anchor="middle" x="1370" y="-1327.3778" font-family="Times,serif" font-size="14.00" fill="#000000">rnd_gui&#45;&gt;invalidate*()</text>
<text text-anchor="middle" x="1370" y="-1312.3778" font-family="Times,serif" font-size="14.00" fill="#000000">Figures a redraw is needed</text>
</g>
<!-- hid_inv -->
<g id="node4" class="node">
<title>hid_inv</title>
<ellipse fill="none" stroke="#000000" cx="1445" cy="-1125.8377" rx="213.5925" ry="26.7407"/>
<text text-anchor="middle" x="1445" y="-1129.6377" font-family="Times,serif" font-size="14.00" fill="#000000">HID&#39;s invalidate*()</text>
<text text-anchor="middle" x="1445" y="-1114.6377" font-family="Times,serif" font-size="14.00" fill="#000000">Prepares the widget and calls the app to render view</text>
</g>
<!-- rnd_gui_inv&#45;&gt;hid_inv -->
<g id="edge1" class="edge">
<title>rnd_gui_inv&#45;&gt;hid_inv</title>
<path fill="none" stroke="#000000" d="M1380.2712,-1296.4975C1393.4745,-1261.6864 1416.4486,-1201.1144 1431.1769,-1162.2826"/>
<polygon fill="#000000" stroke="#000000" points="1434.4589,-1163.4988 1434.7328,-1152.9075 1427.9139,-1161.0163 1434.4589,-1163.4988"/>
</g>
<!-- draw_everything -->
<g id="node2" class="node">
<title>draw_everything</title>
<ellipse fill="none" stroke="#000000" cx="1038" cy="-1323.5778" rx="198.8942" ry="26.7407"/>
<text text-anchor="middle" x="1038" y="-1327.3778" font-family="Times,serif" font-size="14.00" fill="#000000">draw_everything()</text>
<text text-anchor="middle" x="1038" y="-1312.3778" font-family="Times,serif" font-size="14.00" fill="#000000">Renders view (visible part of preview or design)</text>
</g>
<!-- rnd_gui_draw -->
<g id="node5" class="node">
<title>rnd_gui_draw</title>
<ellipse fill="none" stroke="#000000" cx="963" cy="-1125.8377" rx="250.1317" ry="26.7407"/>
<text text-anchor="middle" x="963" y="-1129.6377" font-family="Times,serif" font-size="14.00" fill="#000000">rnd_gui calls:</text>
<text text-anchor="middle" x="963" y="-1114.6377" font-family="Times,serif" font-size="14.00" fill="#000000">&#45;&gt;render_burst(), &#45;&gt;set_drawing_mode(), &#45;&gt;draw*(), &#45;&gt;fill*()</text>
</g>
<!-- draw_everything&#45;&gt;rnd_gui_draw -->
<g id="edge3" class="edge">
<title>draw_everything&#45;&gt;rnd_gui_draw</title>
<path fill="none" stroke="#000000" d="M1027.7288,-1296.4975C1014.5255,-1261.6864 991.5514,-1201.1144 976.8231,-1162.2826"/>
<polygon fill="#000000" stroke="#000000" points="980.0861,-1161.0163 973.2672,-1152.9075 973.5411,-1163.4988 980.0861,-1161.0163"/>
</g>
<!-- dialogs -->
<g id="node3" class="node">
<title>dialogs</title>
<ellipse fill="none" stroke="#000000" cx="710" cy="-1323.5778" rx="111.0315" ry="26.7407"/>
<text text-anchor="middle" x="710" y="-1327.3778" font-family="Times,serif" font-size="14.00" fill="#000000">dialog boxes</text>
<text text-anchor="middle" x="710" y="-1312.3778" font-family="Times,serif" font-size="14.00" fill="#000000">created by the application</text>
</g>
<!-- rnd_gui_dad -->
<g id="node6" class="node">
<title>rnd_gui_dad</title>
<ellipse fill="none" stroke="#000000" cx="583" cy="-1125.8377" rx="111.9462" ry="26.7407"/>
<text text-anchor="middle" x="583" y="-1129.6377" font-family="Times,serif" font-size="14.00" fill="#000000">dialog boxes</text>
<text text-anchor="middle" x="583" y="-1114.6377" font-family="Times,serif" font-size="14.00" fill="#000000">(build with dad.h macros)</text>
</g>
<!-- dialogs&#45;&gt;rnd_gui_dad -->
<g id="edge16" class="edge">
<title>dialogs&#45;&gt;rnd_gui_dad</title>
<path fill="none" stroke="#000000" d="M692.8722,-1296.9097C670.3697,-1261.873 630.7843,-1200.2382 605.776,-1161.3001"/>
<polygon fill="#000000" stroke="#000000" points="608.4077,-1158.921 600.0588,-1152.3983 602.5179,-1162.7038 608.4077,-1158.921"/>
</g>
<!-- hid_inv&#45;&gt;draw_everything -->
<g id="edge2" class="edge">
<title>hid_inv&#45;&gt;draw_everything</title>
<path fill="none" stroke="#000000" d="M1391.2546,-1151.9498C1316.3104,-1188.3612 1180.6779,-1254.258 1101.0517,-1292.9442"/>
<polygon fill="#000000" stroke="#000000" points="1099.0918,-1290.0052 1091.6267,-1297.5234 1102.1508,-1296.3014 1099.0918,-1290.0052"/>
</g>
<!-- gtk2_gdk_pass_render -->
<g id="node13" class="node">
<title>gtk2_gdk_pass_render</title>
<ellipse fill="none" stroke="#000000" cx="413" cy="-928.0975" rx="46.8387" ry="26.7407"/>
<text text-anchor="middle" x="413" y="-931.8975" font-family="Times,serif" font-size="14.00" fill="#000000">pass&#45;thru</text>
<text text-anchor="middle" x="413" y="-916.8975" font-family="Times,serif" font-size="14.00" fill="#000000">render</text>
</g>
<!-- rnd_gui_draw&#45;&gt;gtk2_gdk_pass_render -->
<g id="edge4" class="edge">
<title>rnd_gui_draw&#45;&gt;gtk2_gdk_pass_render</title>
<path fill="none" stroke="#000000" d="M817.1804,-1103.966C715.3301,-1084.1276 578.9879,-1048.1693 472,-985.9676 460.353,-979.1962 449.3124,-969.6065 440.0004,-960.1771"/>
<polygon fill="#000000" stroke="#000000" points="442.342,-957.5597 432.9243,-952.7061 437.2598,-962.3733 442.342,-957.5597"/>
</g>
<!-- gtk2_gl_pass_render -->
<g id="node16" class="node">
<title>gtk2_gl_pass_render</title>
<ellipse fill="none" stroke="#000000" cx="642" cy="-928.0975" rx="46.8387" ry="26.7407"/>
<text text-anchor="middle" x="642" y="-931.8975" font-family="Times,serif" font-size="14.00" fill="#000000">pass&#45;thru</text>
<text text-anchor="middle" x="642" y="-916.8975" font-family="Times,serif" font-size="14.00" fill="#000000">render</text>
</g>
<!-- rnd_gui_draw&#45;&gt;gtk2_gl_pass_render -->
<g id="edge6" class="edge">
<title>rnd_gui_draw&#45;&gt;gtk2_gl_pass_render</title>
<path fill="none" stroke="#000000" d="M900.5621,-1099.6965C844.6923,-1074.7672 761.9761,-1033.9729 698,-985.9676 687.8657,-978.3632 677.8887,-968.8906 669.2277,-959.8254"/>
<polygon fill="#000000" stroke="#000000" points="671.6584,-957.2996 662.2874,-952.3565 666.5305,-962.0645 671.6584,-957.2996"/>
</g>
<!-- gtk4_gl_pass_render -->
<g id="node19" class="node">
<title>gtk4_gl_pass_render</title>
<ellipse fill="none" stroke="#000000" cx="1284" cy="-928.0975" rx="46.8387" ry="26.7407"/>
<text text-anchor="middle" x="1284" y="-931.8975" font-family="Times,serif" font-size="14.00" fill="#000000">pass&#45;thru</text>
<text text-anchor="middle" x="1284" y="-916.8975" font-family="Times,serif" font-size="14.00" fill="#000000">render</text>
</g>
<!-- rnd_gui_draw&#45;&gt;gtk4_gl_pass_render -->
<g id="edge8" class="edge">
<title>rnd_gui_draw&#45;&gt;gtk4_gl_pass_render</title>
<path fill="none" stroke="#000000" d="M1025.4379,-1099.6965C1081.3077,-1074.7672 1164.0239,-1033.9729 1228,-985.9676 1238.1343,-978.3632 1248.1113,-968.8906 1256.7723,-959.8254"/>
<polygon fill="#000000" stroke="#000000" points="1259.4695,-962.0645 1263.7126,-952.3565 1254.3416,-957.2996 1259.4695,-962.0645"/>
</g>
<!-- render_lesstif -->
<g id="node21" class="node">
<title>render_lesstif</title>
<ellipse fill="none" stroke="#000000" cx="1630" cy="-928.0975" rx="80.7205" ry="26.7407"/>
<text text-anchor="middle" x="1630" y="-931.8975" font-family="Times,serif" font-size="14.00" fill="#000000">local render impl:</text>
<text text-anchor="middle" x="1630" y="-916.8975" font-family="Times,serif" font-size="14.00" fill="#000000">hid_lesstif/main.c</text>
</g>
<!-- rnd_gui_draw&#45;&gt;render_lesstif -->
<g id="edge30" class="edge">
<title>rnd_gui_draw&#45;&gt;render_lesstif</title>
<path fill="none" stroke="#000000" d="M1110.4659,-1104.0676C1229.6955,-1083.1989 1400.1234,-1045.8714 1540,-985.9676 1556.8441,-978.7539 1574.0698,-968.5075 1588.8821,-958.6364"/>
<polygon fill="#000000" stroke="#000000" points="1591.0135,-961.4194 1597.3034,-952.8936 1587.0696,-955.6361 1591.0135,-961.4194"/>
</g>
<!-- gtk2_gdk_pass_widget -->
<g id="node14" class="node">
<title>gtk2_gdk_pass_widget</title>
<ellipse fill="none" stroke="#000000" cx="302" cy="-928.0975" rx="46.8387" ry="26.7407"/>
<text text-anchor="middle" x="302" y="-931.8975" font-family="Times,serif" font-size="14.00" fill="#000000">pass&#45;thru</text>
<text text-anchor="middle" x="302" y="-916.8975" font-family="Times,serif" font-size="14.00" fill="#000000">widget</text>
</g>
<!-- rnd_gui_dad&#45;&gt;gtk2_gdk_pass_widget -->
<g id="edge17" class="edge">
<title>rnd_gui_dad&#45;&gt;gtk2_gdk_pass_widget</title>
<path fill="none" stroke="#000000" d="M535.6614,-1101.2271C488.2488,-1075.5292 414.2901,-1032.5341 357,-985.9676 347.3367,-978.1131 337.6819,-968.6439 329.2198,-959.661"/>
<polygon fill="#000000" stroke="#000000" points="331.7672,-957.2604 322.4182,-952.2757 326.6181,-962.0026 331.7672,-957.2604"/>
</g>
<!-- gtk2_gl_pass_widget -->
<g id="node17" class="node">
<title>gtk2_gl_pass_widget</title>
<ellipse fill="none" stroke="#000000" cx="531" cy="-928.0975" rx="46.8387" ry="26.7407"/>
<text text-anchor="middle" x="531" y="-931.8975" font-family="Times,serif" font-size="14.00" fill="#000000">pass&#45;thru</text>
<text text-anchor="middle" x="531" y="-916.8975" font-family="Times,serif" font-size="14.00" fill="#000000">widget</text>
</g>
<!-- rnd_gui_dad&#45;&gt;gtk2_gl_pass_widget -->
<g id="edge19" class="edge">
<title>rnd_gui_dad&#45;&gt;gtk2_gl_pass_widget</title>
<path fill="none" stroke="#000000" d="M575.8787,-1098.7574C566.7376,-1063.9967 550.8418,-1003.5497 540.6284,-964.7114"/>
<polygon fill="#000000" stroke="#000000" points="543.9636,-963.6318 538.0353,-954.8508 537.1937,-965.4121 543.9636,-963.6318"/>
</g>
<!-- gtk4_gl_pass_widget -->
<g id="node20" class="node">
<title>gtk4_gl_pass_widget</title>
<ellipse fill="none" stroke="#000000" cx="966" cy="-928.0975" rx="46.8387" ry="26.7407"/>
<text text-anchor="middle" x="966" y="-931.8975" font-family="Times,serif" font-size="14.00" fill="#000000">pass&#45;thru</text>
<text text-anchor="middle" x="966" y="-916.8975" font-family="Times,serif" font-size="14.00" fill="#000000">widget</text>
</g>
<!-- rnd_gui_dad&#45;&gt;gtk4_gl_pass_widget -->
<g id="edge21" class="edge">
<title>rnd_gui_dad&#45;&gt;gtk4_gl_pass_widget</title>
<path fill="none" stroke="#000000" d="M651.5091,-1104.5384C719.7444,-1081.4801 825.7605,-1040.554 907,-985.9676 918.0885,-978.517 928.9158,-968.8308 938.2051,-959.5208"/>
<polygon fill="#000000" stroke="#000000" points="940.864,-961.8061 945.3008,-952.185 935.8326,-956.9394 940.864,-961.8061"/>
</g>
<!-- widget_lesstif -->
<g id="node22" class="node">
<title>widget_lesstif</title>
<ellipse fill="none" stroke="#000000" cx="1443" cy="-928.0975" rx="88.2768" ry="26.7407"/>
<text text-anchor="middle" x="1443" y="-931.8975" font-family="Times,serif" font-size="14.00" fill="#000000">local widget impl:</text>
<text text-anchor="middle" x="1443" y="-916.8975" font-family="Times,serif" font-size="14.00" fill="#000000">hid_lesstif/dialogs.c</text>
</g>
<!-- rnd_gui_dad&#45;&gt;widget_lesstif -->
<g id="edge28" class="edge">
<title>rnd_gui_dad&#45;&gt;widget_lesstif</title>
<path fill="none" stroke="#000000" d="M651.7436,-1104.5088C668.7242,-1099.6613 686.9387,-1094.8137 704,-1090.9676 984.7631,-1027.6757 1072.0277,-1082.9615 1343,-985.9676 1362.2983,-979.0598 1382.1237,-968.446 1398.9804,-958.1854"/>
<polygon fill="#000000" stroke="#000000" points="1400.8696,-961.1322 1407.5063,-952.8735 1397.168,-955.1909 1400.8696,-961.1322"/>
</g>
<!-- render_gtk_common_gtk2_gl -->
<g id="node7" class="node">
<title>render_gtk_common_gtk2_gl</title>
<ellipse fill="none" stroke="#000000" cx="801" cy="-708.4371" rx="72.6644" ry="48.5816"/>
<text text-anchor="middle" x="801" y="-727.7371" font-family="Times,serif" font-size="14.00" fill="#000000">ghid_gui&#45;&gt;impl</text>
<text text-anchor="middle" x="801" y="-712.7371" font-family="Times,serif" font-size="14.00" fill="#000000">function</text>
<text text-anchor="middle" x="801" y="-697.7371" font-family="Times,serif" font-size="14.00" fill="#000000">pointers</text>
</g>
<!-- render_gtk2_gl -->
<g id="node15" class="node">
<title>render_gtk2_gl</title>
<ellipse fill="none" stroke="#000000" cx="801" cy="-928.0975" rx="94.4839" ry="18"/>
<text text-anchor="middle" x="801" y="-924.3975" font-family="Times,serif" font-size="14.00" fill="#000000">hid_gtk2_gl/gtkhid&#45;gl.c</text>
</g>
<!-- render_gtk_common_gtk2_gl&#45;&gt;render_gtk2_gl -->
<g id="edge12" class="edge">
<title>render_gtk_common_gtk2_gl&#45;&gt;render_gtk2_gl</title>
<path fill="none" stroke="#000000" d="M801,-757.3126C801,-800.9665 801,-863.4222 801,-899.461"/>
<polygon fill="#000000" stroke="#000000" points="797.5001,-899.7472 801,-909.7472 804.5001,-899.7473 797.5001,-899.7472"/>
</g>
<!-- render_gtk_common_gtk2_gdk -->
<g id="node8" class="node">
<title>render_gtk_common_gtk2_gdk</title>
<ellipse fill="none" stroke="#000000" cx="235" cy="-708.4371" rx="72.6644" ry="48.5816"/>
<text text-anchor="middle" x="235" y="-727.7371" font-family="Times,serif" font-size="14.00" fill="#000000">ghid_gui&#45;&gt;impl</text>
<text text-anchor="middle" x="235" y="-712.7371" font-family="Times,serif" font-size="14.00" fill="#000000">function</text>
<text text-anchor="middle" x="235" y="-697.7371" font-family="Times,serif" font-size="14.00" fill="#000000">pointers</text>
</g>
<!-- render_gdk -->
<g id="node12" class="node">
<title>render_gdk</title>
<ellipse fill="none" stroke="#000000" cx="131" cy="-928.0975" rx="106.6812" ry="18"/>
<text text-anchor="middle" x="131" y="-924.3975" font-family="Times,serif" font-size="14.00" fill="#000000">hid_gtk2_gdk/gtkhid&#45;gdk.c</text>
</g>
<!-- render_gtk_common_gtk2_gdk&#45;&gt;render_gdk -->
<g id="edge10" class="edge">
<title>render_gtk_common_gtk2_gdk&#45;&gt;render_gdk</title>
<path fill="none" stroke="#000000" d="M212.8219,-755.2799C191.8926,-799.4852 161.2266,-864.2554 143.9953,-900.6499"/>
<polygon fill="#000000" stroke="#000000" points="140.6266,-899.5859 139.5108,-910.1218 146.9534,-902.5814 140.6266,-899.5859"/>
</g>
<!-- render_gtk_common_gtk4_gl -->
<g id="node9" class="node">
<title>render_gtk_common_gtk4_gl</title>
<ellipse fill="none" stroke="#000000" cx="1343" cy="-708.4371" rx="72.6644" ry="48.5816"/>
<text text-anchor="middle" x="1343" y="-727.7371" font-family="Times,serif" font-size="14.00" fill="#000000">ghid_gui&#45;&gt;impl</text>
<text text-anchor="middle" x="1343" y="-712.7371" font-family="Times,serif" font-size="14.00" fill="#000000">function</text>
<text text-anchor="middle" x="1343" y="-697.7371" font-family="Times,serif" font-size="14.00" fill="#000000">pointers</text>
</g>
<!-- render_gtk4_gl -->
<g id="node18" class="node">
<title>render_gtk4_gl</title>
<ellipse fill="none" stroke="#000000" cx="1125" cy="-928.0975" rx="94.4839" ry="18"/>
<text text-anchor="middle" x="1125" y="-924.3975" font-family="Times,serif" font-size="14.00" fill="#000000">hid_gtk4_gl/gtkhid&#45;gl.c</text>
</g>
<!-- render_gtk_common_gtk4_gl&#45;&gt;render_gtk4_gl -->
<g id="edge14" class="edge">
<title>render_gtk_common_gtk4_gl&#45;&gt;render_gtk4_gl</title>
<path fill="none" stroke="#000000" d="M1313.4235,-753.1915C1298.7702,-773.9399 1280.1394,-798.3462 1261,-818.2275 1229.003,-851.4648 1187.0586,-883.9653 1158.2587,-904.8871"/>
<polygon fill="#000000" stroke="#000000" points="1156.2075,-902.051 1150.1364,-910.7339 1160.2971,-907.7322 1156.2075,-902.051"/>
</g>
<!-- gtk_gl_common -->
<g id="node10" class="node">
<title>gtk_gl_common</title>
<ellipse fill="none" stroke="#000000" cx="1072" cy="-708.4371" rx="180.1247" ry="26.7407"/>
<text text-anchor="middle" x="1072" y="-712.2371" font-family="Times,serif" font-size="14.00" fill="#000000">lib_gtk_common/gtk_gl_common.c</text>
<text text-anchor="middle" x="1072" y="-697.2371" font-family="Times,serif" font-size="14.00" fill="#000000">translates HID API calls to hidgl operations</text>
</g>
<!-- hidgl -->
<g id="node25" class="node">
<title>hidgl</title>
<ellipse fill="none" stroke="#000000" cx="337" cy="-478.1701" rx="120.4167" ry="37.4533"/>
<text text-anchor="middle" x="337" y="-489.4701" font-family="Times,serif" font-size="14.00" fill="#000000">lib_hid_gl/hidgl.h</text>
<text text-anchor="middle" x="337" y="-474.4701" font-family="Times,serif" font-size="14.00" fill="#000000">Unify different opengl APIs</text>
<text text-anchor="middle" x="337" y="-459.4701" font-family="Times,serif" font-size="14.00" fill="#000000">for simple 2D drawing</text>
</g>
<!-- gtk_gl_common&#45;&gt;hidgl -->
<g id="edge25" class="edge">
<title>gtk_gl_common&#45;&gt;hidgl</title>
<path fill="none" stroke="#000000" d="M994.0595,-684.1863C960.0517,-673.8206 919.6513,-661.7959 883,-651.6468 700.0587,-600.9886 646.4244,-614.1327 469,-546.6468 446.8243,-538.2119 423.5591,-527.0084 402.8446,-516.111"/>
<polygon fill="#000000" stroke="#000000" points="404.2986,-512.9199 393.8278,-511.3033 401.005,-519.0967 404.2986,-512.9199"/>
</g>
<!-- gtk_widgets -->
<g id="node11" class="node">
<title>gtk_widgets</title>
<ellipse fill="none" stroke="#000000" cx="518" cy="-708.4371" rx="192.2659" ry="18"/>
<text text-anchor="middle" x="518" y="-704.7371" font-family="Times,serif" font-size="14.00" fill="#000000">generic GTK widgets, window, and event handling</text>
</g>
<!-- gtk2_common -->
<g id="node23" class="node">
<title>gtk2_common</title>
<ellipse fill="none" stroke="#000000" cx="617" cy="-478.1701" rx="135.5294" ry="26.7407"/>
<text text-anchor="middle" x="617" y="-481.9701" font-family="Times,serif" font-size="14.00" fill="#000000">GTK2 low level widget code</text>
<text text-anchor="middle" x="617" y="-466.9701" font-family="Times,serif" font-size="14.00" fill="#000000">provides unified gtk widget API</text>
</g>
<!-- gtk_widgets&#45;&gt;gtk2_common -->
<g id="edge23" class="edge">
<title>gtk_widgets&#45;&gt;gtk2_common</title>
<path fill="none" stroke="#000000" d="M525.7684,-690.3685C542.0072,-652.5981 579.8168,-564.6556 601.3174,-514.6467"/>
<polygon fill="#000000" stroke="#000000" points="604.6545,-515.7461 605.3889,-505.1768 598.2236,-512.9812 604.6545,-515.7461"/>
</g>
<!-- gtk4_common -->
<g id="node24" class="node">
<title>gtk4_common</title>
<ellipse fill="none" stroke="#000000" cx="913" cy="-478.1701" rx="135.5294" ry="26.7407"/>
<text text-anchor="middle" x="913" y="-481.9701" font-family="Times,serif" font-size="14.00" fill="#000000">GTK4 low level widget code</text>
<text text-anchor="middle" x="913" y="-466.9701" font-family="Times,serif" font-size="14.00" fill="#000000">provides unified gtk widget API</text>
</g>
<!-- gtk_widgets&#45;&gt;gtk4_common -->
<g id="edge24" class="edge">
<title>gtk_widgets&#45;&gt;gtk4_common</title>
<path fill="none" stroke="#000000" d="M548.6663,-690.5601C615.8245,-651.4099 776.5683,-557.7036 860.2874,-508.8991"/>
<polygon fill="#000000" stroke="#000000" points="862.2473,-511.8079 869.1238,-503.7479 858.7219,-505.7605 862.2473,-511.8079"/>
</g>
<!-- gdk -->
<g id="node26" class="node">
<title>gdk</title>
<ellipse fill="none" stroke="#000000" cx="96" cy="-259.2168" rx="71.3357" ry="26.7407"/>
<text text-anchor="middle" x="96" y="-263.0168" font-family="Times,serif" font-size="14.00" fill="#000000">gdk2</text>
<text text-anchor="middle" x="96" y="-248.0168" font-family="Times,serif" font-size="14.00" fill="#000000">software render</text>
</g>
<!-- render_gdk&#45;&gt;gdk -->
<g id="edge11" class="edge">
<title>render_gdk&#45;&gt;gdk</title>
<path fill="none" stroke="#000000" d="M128.8524,-909.8509C126.3636,-888.0736 122.3095,-850.5424 120,-818.2275 105.9763,-622.0027 99.1209,-386.4017 96.8686,-296.5245"/>
<polygon fill="#000000" stroke="#000000" points="100.362,-296.2095 96.6166,-286.2988 93.3641,-296.382 100.362,-296.2095"/>
</g>
<!-- gtk2_gdk_pass_render&#45;&gt;render_gtk_common_gtk2_gdk -->
<g id="edge5" class="edge">
<title>gtk2_gdk_pass_render&#45;&gt;render_gtk_common_gtk2_gdk</title>
<path fill="none" stroke="#000000" d="M391.1029,-904.1183C371.2817,-882.1614 341.5226,-848.5641 317,-818.2275 302.15,-799.8568 286.4836,-779.2201 272.8681,-760.8388"/>
<polygon fill="#000000" stroke="#000000" points="275.5201,-758.5379 266.767,-752.5683 269.887,-762.6934 275.5201,-758.5379"/>
</g>
<!-- gtk2_gdk_pass_widget&#45;&gt;gtk_widgets -->
<g id="edge18" class="edge">
<title>gtk2_gdk_pass_widget&#45;&gt;gtk_widgets</title>
<path fill="none" stroke="#000000" d="M325.1158,-904.59C366.0803,-862.9313 451.0595,-776.512 493.1985,-733.6589"/>
<polygon fill="#000000" stroke="#000000" points="495.7908,-736.0146 500.3066,-726.4303 490.7996,-731.1066 495.7908,-736.0146"/>
</g>
<!-- render_gtk2_gl&#45;&gt;gtk_gl_common -->
<g id="edge13" class="edge">
<title>render_gtk2_gl&#45;&gt;gtk_gl_common</title>
<path fill="none" stroke="#000000" d="M822.719,-910.4931C867.9431,-873.8365 972.8443,-788.8083 1031.1205,-741.5722"/>
<polygon fill="#000000" stroke="#000000" points="1033.4584,-744.1826 1039.023,-735.1668 1029.0506,-738.7446 1033.4584,-744.1826"/>
</g>
<!-- gtk2_gl_pass_render&#45;&gt;render_gtk_common_gtk2_gl -->
<g id="edge7" class="edge">
<title>gtk2_gl_pass_render&#45;&gt;render_gtk_common_gtk2_gl</title>
<path fill="none" stroke="#000000" d="M660.2393,-902.8997C685.1964,-868.4212 730.5908,-805.7083 763.0849,-760.8172"/>
<polygon fill="#000000" stroke="#000000" points="765.966,-762.8061 768.9943,-752.6533 760.2956,-758.7016 765.966,-762.8061"/>
</g>
<!-- gtk2_gl_pass_widget&#45;&gt;gtk_widgets -->
<g id="edge20" class="edge">
<title>gtk2_gl_pass_widget&#45;&gt;gtk_widgets</title>
<path fill="none" stroke="#000000" d="M529.4059,-901.1629C526.9361,-859.4292 522.2067,-779.5182 519.6835,-736.8834"/>
<polygon fill="#000000" stroke="#000000" points="523.1624,-736.4223 519.0777,-726.6466 516.1747,-736.8359 523.1624,-736.4223"/>
</g>
<!-- render_gtk4_gl&#45;&gt;gtk_gl_common -->
<g id="edge15" class="edge">
<title>render_gtk4_gl&#45;&gt;gtk_gl_common</title>
<path fill="none" stroke="#000000" d="M1120.5724,-909.7472C1111.8574,-873.6276 1092.3311,-792.7002 1080.8666,-745.185"/>
<polygon fill="#000000" stroke="#000000" points="1084.2286,-744.1963 1078.4806,-735.2962 1077.4238,-745.8382 1084.2286,-744.1963"/>
</g>
<!-- gtk4_gl_pass_render&#45;&gt;render_gtk_common_gtk4_gl -->
<g id="edge9" class="edge">
<title>gtk4_gl_pass_render&#45;&gt;render_gtk_common_gtk4_gl</title>
<path fill="none" stroke="#000000" d="M1291.2346,-901.1629C1300.1984,-867.79 1315.7195,-810.0042 1327.4344,-766.3889"/>
<polygon fill="#000000" stroke="#000000" points="1330.8839,-767.0385 1330.0978,-756.4728 1324.1235,-765.2226 1330.8839,-767.0385"/>
</g>
<!-- gtk4_gl_pass_widget&#45;&gt;gtk_widgets -->
<g id="edge22" class="edge">
<title>gtk4_gl_pass_widget&#45;&gt;gtk_widgets</title>
<path fill="none" stroke="#000000" d="M934.3441,-908.1771C925.6308,-903.0298 916.0771,-897.6873 907,-893.2275 826.2601,-853.5574 800.3997,-856.5253 719,-818.2275 661.2545,-791.0587 596.9104,-754.8024 556.9391,-731.5322"/>
<polygon fill="#000000" stroke="#000000" points="558.4564,-728.3651 548.0567,-726.3412 554.9244,-734.4087 558.4564,-728.3651"/>
</g>
<!-- motif -->
<g id="node29" class="node">
<title>motif</title>
<ellipse fill="none" stroke="#000000" cx="825" cy="-259.2168" rx="30.5947" ry="18"/>
<text text-anchor="middle" x="825" y="-255.5168" font-family="Times,serif" font-size="14.00" fill="#000000">motif</text>
</g>
<!-- render_lesstif&#45;&gt;motif -->
<g id="edge31" class="edge">
<title>render_lesstif&#45;&gt;motif</title>
<path fill="none" stroke="#000000" d="M1582.2852,-906.3964C1568.8687,-901.1856 1554.0889,-896.2565 1540,-893.2275 1388.7862,-860.7174 256.3805,-930.5027 150,-818.2275 89.2664,-754.1286 138.8162,-483.148 205,-424.6934 398.4627,-253.824 574.7102,-512.4957 782,-358.6934 804.7993,-341.7771 815.6607,-310.243 820.7363,-287.1999"/>
<polygon fill="#000000" stroke="#000000" points="824.1891,-287.7803 822.6833,-277.293 817.3205,-286.4303 824.1891,-287.7803"/>
</g>
<!-- xlib -->
<g id="node30" class="node">
<title>xlib</title>
<ellipse fill="none" stroke="#000000" cx="825" cy="-50.8701" rx="27" ry="18"/>
<text text-anchor="middle" x="825" y="-47.1701" font-family="Times,serif" font-size="14.00" fill="#000000">xlib</text>
</g>
<!-- render_lesstif&#45;&gt;xlib -->
<g id="edge32" class="edge">
<title>render_lesstif&#45;&gt;xlib</title>
<path fill="none" stroke="#000000" d="M1614.4711,-901.7289C1584.9855,-852.0218 1518.3459,-741.3897 1457,-651.6468 1386.0293,-547.8237 1375.1687,-515.3449 1288,-424.6934 1139.7134,-270.4821 928.3686,-121.1498 853.0132,-69.7101"/>
<polygon fill="#000000" stroke="#000000" points="854.7484,-66.6575 844.511,-63.9285 850.8121,-72.446 854.7484,-66.6575"/>
</g>
<!-- widget_lesstif&#45;&gt;motif -->
<g id="edge29" class="edge">
<title>widget_lesstif&#45;&gt;motif</title>
<path fill="none" stroke="#000000" d="M1449.0761,-901.1092C1459.2937,-848.9089 1474.5384,-732.1728 1428,-651.6468 1296.179,-423.5553 972.2577,-304.9292 862.2538,-270.2207"/>
<polygon fill="#000000" stroke="#000000" points="863.1774,-266.8427 852.5891,-267.2147 861.0983,-273.5268 863.1774,-266.8427"/>
</g>
<!-- opengl_direct -->
<g id="node27" class="node">
<title>opengl_direct</title>
<ellipse fill="none" stroke="#000000" cx="337" cy="-259.2168" rx="146.2423" ry="37.4533"/>
<text text-anchor="middle" x="337" y="-270.5168" font-family="Times,serif" font-size="14.00" fill="#000000">draw_direct.c</text>
<text text-anchor="middle" x="337" y="-255.5168" font-family="Times,serif" font-size="14.00" fill="#000000">opengl direct/ClientState rendering</text>
<text text-anchor="middle" x="337" y="-240.5168" font-family="Times,serif" font-size="14.00" fill="#000000">(below version 4)</text>
</g>
<!-- hidgl&#45;&gt;opengl_direct -->
<g id="edge26" class="edge">
<title>hidgl&#45;&gt;opengl_direct</title>
<path fill="none" stroke="#000000" d="M337,-440.5307C337,-403.5253 337,-346.9137 337,-306.8058"/>
<polygon fill="#000000" stroke="#000000" points="340.5001,-306.7307 337,-296.7308 333.5001,-306.7308 340.5001,-306.7307"/>
</g>
<!-- opengl_vao -->
<g id="node28" class="node">
<title>opengl_vao</title>
<ellipse fill="none" stroke="#000000" cx="636" cy="-259.2168" rx="134.2007" ry="37.4533"/>
<text text-anchor="middle" x="636" y="-270.5168" font-family="Times,serif" font-size="14.00" fill="#000000">draw_vao.c</text>
<text text-anchor="middle" x="636" y="-255.5168" font-family="Times,serif" font-size="14.00" fill="#000000">opengl vao rendering</text>
<text text-anchor="middle" x="636" y="-240.5168" font-family="Times,serif" font-size="14.00" fill="#000000">(from version 4 and opengl ES)</text>
</g>
<!-- hidgl&#45;&gt;opengl_vao -->
<g id="edge27" class="edge">
<title>hidgl&#45;&gt;opengl_vao</title>
<path fill="none" stroke="#000000" d="M384.3774,-443.4763C437.4262,-404.6295 523.3363,-341.7187 579.7519,-300.4064"/>
<polygon fill="#000000" stroke="#000000" points="581.8539,-303.2053 587.8541,-294.4733 577.7182,-297.5576 581.8539,-303.2053"/>
</g>
<!-- gdk&#45;&gt;xlib -->
<g id="edge34" class="edge">
<title>gdk&#45;&gt;xlib</title>
<path fill="none" stroke="#000000" d="M133.4474,-236.0603C147.3748,-228.1626 163.5526,-219.8047 179,-213.7401 402.8227,-125.8686 689.1425,-73.3058 788.8482,-56.6538"/>
<polygon fill="#000000" stroke="#000000" points="789.4267,-60.1057 798.7216,-55.0208 788.2844,-53.1996 789.4267,-60.1057"/>
</g>
<!-- win32 -->
<g id="node31" class="node">
<title>win32</title>
<ellipse fill="none" stroke="#000000" cx="96" cy="-50.8701" rx="48.5816" ry="26.7407"/>
<text text-anchor="middle" x="96" y="-54.6701" font-family="Times,serif" font-size="14.00" fill="#000000">windows:</text>
<text text-anchor="middle" x="96" y="-39.6701" font-family="Times,serif" font-size="14.00" fill="#000000">winapi</text>
</g>
<!-- gdk&#45;&gt;win32 -->
<g id="edge35" class="edge">
<title>gdk&#45;&gt;win32</title>
<path fill="none" stroke="#000000" d="M96,-231.9791C96,-195.1456 96,-129.3186 96,-87.986"/>
<polygon fill="#000000" stroke="#000000" points="99.5001,-87.7842 96,-77.7843 92.5001,-87.7843 99.5001,-87.7842"/>
</g>
<!-- motif&#45;&gt;xlib -->
<g id="edge33" class="edge">
<title>motif&#45;&gt;xlib</title>
<path fill="none" stroke="#000000" d="M825,-241.0918C825,-204.7671 825,-122.8184 825,-79.2893"/>
<polygon fill="#000000" stroke="#000000" points="828.5001,-79.1014 825,-69.1015 821.5001,-79.1015 828.5001,-79.1014"/>
</g>
</g>
</svg>
