/* XPM */
static char *online_help_xpm[] = {
"50 42 3 1",
"*	c #000000",
".	c #6EA5D7",
" 	c None",
"    ..........................................    ",
"  ..............................................  ",
" ....**...**..*********..**.........*******...... ",
" ....**...**..*********..**.........********..... ",
".....**...**..**.........**.........**.....**.....",
".....**...**..**.........**.........**.....**.....",
".....*******..*******....**.........********......",
".....*******..*******....**.........*******.......",
".....**...**..**.........**.........**............",
".....**...**..**.........**.........**............",
".....**...**..**.........**.........**............",
".....**...**..*********..*********..**............",
".....**...**..*********..*********..**............",
"..................................................",
"..................................................",
"........................*.........................",
"........................*..*......................",
"........................*.........................",
"......***...*.**........*..*..*.**......**........",
".....*...*..*...*.......*..*..*...*...*...*.......",
".....*...*..*...*.......*..*..*...*...*...*.......",
".....*...*..*...*..***..*..*..*...*...*****.......",
".....*...*..*...*.......*..*..*...*...*...........",
".....*...*..*...*.......*..*..*...*...*...........",
"......***...*...*.......*..*..*...*.....***.......",
"..................................................",
"..................................................",
"..................................................",
".............................................*....",
".............................................*....",
"...**...*...*...*.**....*.**.....***...*.**.****..",
"..*.....*...*...**..*...**..*...*...*..*.....*....",
"..*.....*...*...*....*..*....*..*...*..*.....*....",
"...**...*...*...*....*..*....*..*...*..*.....*....",
".....*..*...*...*....*..*....*..*...*..*.....*....",
".....*..*...*...**..*...**..*...*...*..*.....*....",
"..***....***....*.**....*.**.....***...*......**..",
"................*.......*.........................",
" ...............*.......*........................ ",
" ...............*.......*........................ ",
"  ..............................................  ",
"    ..........................................    "};
